<svg width="366" height="586" viewBox="0 0 366 586" fill="none" xmlns="http://www.w3.org/2000/svg">
<path d="M129.36 105.981C132.26 105.448 135.192 107.054 136.213 109.824C137.953 114.548 133.394 119.838 127.257 117.465C121.964 113.541 124.269 106.919 129.36 105.981Z" fill="#CED2E6"/>
<path d="M166.671 96.2646C168.524 102.885 164.667 109.755 158.054 111.612C151.441 113.468 144.579 109.605 142.724 102.986C140.87 96.3655 144.729 89.4939 151.34 87.6384C157.953 85.7829 164.817 89.6441 166.671 96.2646Z" fill="#CED2E6"/>
<path d="M340.609 166.457C340.604 89.64 316.785 5.46614 287.14 0.381926C286.619 0.293161 286.094 0.214402 285.563 0.148555C243.064 -5.17047 239.825 134.015 201.374 149.713C162.922 165.411 133.558 86.1623 87.5485 137.868C46.2259 184.305 35.0333 445.244 156.446 455.706C253.587 464.079 340.621 395.643 340.609 166.457Z" fill="#CED2E6"/>
<path d="M281.06 113.724C281.06 132.391 265.753 147.525 246.872 147.525C227.99 147.525 212.685 132.391 212.685 113.724C212.685 95.0551 227.99 79.9221 246.872 79.9221C265.753 79.9221 281.06 95.0551 281.06 113.724Z" fill="#CED2E6"/>
<path d="M281.06 109.324C281.06 127.992 265.754 143.125 246.873 143.125C227.99 143.125 212.685 127.992 212.685 109.324C212.685 90.655 227.99 75.522 246.873 75.522C265.754 75.522 281.06 90.655 281.06 109.324Z" fill="#0775F7"/>
<path d="M246.873 136.803C231.547 136.803 219.079 124.476 219.079 109.324C219.079 94.1716 231.547 81.8446 246.873 81.8446C262.198 81.8446 274.666 94.1716 274.666 109.324C274.666 124.476 262.198 136.803 246.873 136.803Z" fill="white"/>
<path d="M274.668 109.325C274.668 110.057 274.638 110.781 274.581 111.496C273.457 97.3536 261.458 86.1853 246.875 86.1853C232.287 86.1853 220.289 97.3536 219.166 111.496C219.109 110.781 219.08 110.057 219.08 109.325C219.08 94.1715 231.547 81.8457 246.875 81.8457C262.198 81.8457 274.668 94.1715 274.668 109.325Z" fill="#CED2E6"/>
<path d="M246.874 112.182C246.66 112.182 246.45 112.084 246.315 111.905L232.681 93.7562C232.452 93.452 232.517 93.0203 232.824 92.7944C233.132 92.5672 233.568 92.6316 233.798 92.937L247.102 110.645L262.221 104.084C262.573 103.931 262.981 104.089 263.136 104.437C263.29 104.786 263.132 105.191 262.781 105.344L247.153 112.124C247.062 112.163 246.968 112.182 246.874 112.182Z" fill="#39393A"/>
<path d="M132.275 167.359C132.275 167.359 125.422 152.679 109.141 156.21C97.759 158.679 93.4968 173.198 95.1349 195.252C97.5202 227.353 87.5032 247.196 87.5032 247.196L102.061 249.846C102.061 249.846 136.353 193.141 132.275 167.359Z" fill="#39393A"/>
<path d="M171.228 265.319L189.675 332.845L183.1 325.255C185.537 326.55 188.354 327.547 191.474 328.248C194.592 328.951 197.995 329.356 201.55 329.54C205.108 329.726 208.816 329.693 212.605 329.535C216.396 329.377 220.27 329.093 224.203 328.758L224.224 328.755C230.026 328.26 235.129 332.567 235.624 338.373C236.095 343.911 232.17 348.82 226.78 349.693C222.724 350.341 218.599 350.953 214.367 351.444C210.137 351.932 205.799 352.301 201.306 352.403C196.816 352.499 192.164 352.333 187.354 351.633C182.553 350.937 177.572 349.683 172.705 347.58C169.59 346.236 167.371 343.677 166.363 340.693L166.13 339.993L144 273.586C141.512 266.123 145.54 258.053 152.996 255.564C160.453 253.073 168.513 257.104 171.001 264.569C171.079 264.803 171.162 265.083 171.228 265.319Z" fill="#EA9B79"/>
<path d="M178.33 509.902C178.055 509.902 177.776 509.855 177.503 509.757L80.8661 474.877C79.6002 474.421 78.9433 473.022 79.401 471.754C79.8562 470.486 81.2532 469.828 82.5203 470.286L179.156 505.166C180.423 505.623 181.08 507.021 180.622 508.29C180.265 509.283 179.328 509.902 178.33 509.902Z" fill="#C67D2D"/>
<path d="M77.68 509.902C76.6827 509.902 75.7459 509.286 75.3865 508.292C74.9289 507.025 75.5832 505.625 76.8491 505.167L174.632 469.713C175.898 469.255 177.296 469.909 177.754 471.176C178.213 472.443 177.56 473.843 176.294 474.301L78.5084 509.756C78.2348 509.855 77.9561 509.902 77.68 509.902Z" fill="#C67D2D"/>
<path d="M186.925 572.239C184.867 572.239 183.077 570.712 182.796 568.615L165.341 438.143H92.3004L75.1177 568.606C74.8164 570.893 72.7221 572.502 70.4375 572.201C68.1529 571.899 66.5453 569.8 66.8466 567.514L84.5072 433.42C84.7808 431.343 86.5497 429.791 88.6427 429.791H168.991C171.081 429.791 172.848 431.34 173.126 433.414L191.064 567.506C191.37 569.792 189.767 571.895 187.483 572.201C187.295 572.226 187.109 572.239 186.925 572.239Z" fill="#F9AE39"/>
<path d="M145.72 433.967H93.5362C77.0041 433.967 59.2995 424.909 56.7614 408.554C53.3673 386.686 52.5276 365.508 53.4757 346.072C54.5462 324.092 65.0313 303.643 82.2921 290.016C82.2921 290.016 92.7154 335.492 79.6078 398.26C84.6133 422.109 145.72 433.967 145.72 433.967Z" fill="#F9AE39"/>
<path d="M365.239 574.875C365.239 581.02 283.479 586 182.621 586C81.7626 586 0 581.02 0 574.875C0 568.73 81.7626 563.75 182.621 563.75C283.479 563.75 365.239 568.73 365.239 574.875Z" fill="#CED2E6"/>
<path d="M79.0986 342.32C79.0986 342.32 78.361 347.351 85.0951 348.766L155.295 351.11C155.295 351.11 160.038 348.721 159.183 342.836C159.183 342.836 129.543 326.171 79.0986 342.32Z" fill="#074FC6"/>
<path d="M156.258 365.564C119.82 385.629 80.0301 369.472 80.0301 369.472C81.9768 364.155 83.4192 358.16 84.4644 352.706C85.6786 346.363 86.3607 340.758 86.6709 337.812C102.172 336.96 140.164 335.343 155.052 338.878L155.171 344.851L156.258 365.564Z" fill="#EA9B79"/>
<path d="M129.343 355.939C129.073 357.82 128.224 359.254 127.448 359.143C126.67 359.031 126.259 357.416 126.529 355.535C126.797 353.653 127.646 352.221 128.424 352.332C129.2 352.443 129.611 354.059 129.343 355.939Z" fill="#D96C62"/>
<path d="M155.172 344.85C139.655 343.906 109.122 343.578 84.4647 352.707C85.6801 346.363 86.361 340.758 86.6711 337.812C102.172 336.96 140.166 335.343 155.052 338.879L155.172 344.85Z" fill="#D96C62"/>
<path d="M172.482 315.987C172.337 316.436 172.161 316.858 171.959 317.255C171.885 317.403 171.808 317.552 171.727 317.697C169.777 321.322 166.754 324.462 164.225 326.696C163.698 327.159 163.194 327.584 162.726 327.964C161.792 328.724 160.999 329.314 160.454 329.704C159.952 330.062 159.658 330.249 159.658 330.249C159.655 330.283 159.652 330.317 159.648 330.357C159.621 330.628 159.599 330.912 159.574 331.213C159.488 332.361 159.41 333.73 159.354 335.289C159.305 336.544 159.271 337.921 159.237 339.399C159.218 340.496 159.197 341.643 159.184 342.836C138.591 333.628 96.1829 339.439 79.1011 342.318C79.4138 340.84 79.7 339.396 79.9622 337.983C81.1701 331.461 81.8472 325.586 82.117 320.329C82.5217 312.499 81.8371 300.734 80.1778 288.58C80.0732 287.79 79.961 287.006 79.8463 286.216C79.7719 285.701 79.6949 285.189 79.6117 284.674C79.0292 280.859 78.3509 277.037 77.578 273.329C74.2091 257.153 76.5744 240.173 92.9564 238.163C94.1454 238.018 95.3179 237.884 96.4552 237.763C104.177 236.939 110.53 236.658 112.295 236.589C112.618 236.577 112.784 236.57 112.784 236.57L144.455 245.78L147.469 246.653C149.198 247.211 150.8 247.751 152.28 248.278C152.912 248.507 153.524 248.731 154.113 248.951C155.648 249.527 157.042 250.092 158.305 250.649C160.841 251.77 162.851 252.866 164.438 253.997C171.387 258.935 170.309 264.514 170.132 275.533C170.132 275.583 170.13 275.633 170.13 275.682C170.126 275.821 170.126 275.961 170.123 276.106C170.119 276.169 170.123 276.234 170.123 276.296C170.117 276.745 170.117 277.194 170.119 277.645C170.13 279.066 170.179 280.484 170.266 281.9C170.383 283.98 170.568 286.048 170.795 288.075C170.885 288.887 170.978 289.696 171.076 290.496C171.17 291.248 171.266 291.999 171.365 292.74C172.635 302.386 174.205 310.839 172.482 315.987Z" fill="#266EF1"/>
<path d="M170.129 275.682C170.127 275.821 170.127 275.962 170.123 276.108C170.12 276.171 170.123 276.235 170.123 276.297C170.117 276.746 170.117 277.196 170.12 277.646L163.466 281.827C163.265 281.954 163.033 281.995 162.813 281.957C162.563 281.914 162.33 281.767 162.185 281.535C161.912 281.098 162.045 280.525 162.478 280.253L169.535 275.82C169.717 275.705 169.928 275.661 170.129 275.682Z" fill="#074FC6"/>
<path d="M126.251 311.368C125.996 311.368 125.744 311.265 125.56 311.061C125.217 310.679 125.248 310.091 125.628 309.747L131.822 304.168C132.204 303.825 132.791 303.855 133.134 304.238C133.477 304.619 133.447 305.207 133.065 305.55L126.873 311.131C126.695 311.29 126.473 311.368 126.251 311.368Z" fill="#074FC6"/>
<path d="M171.365 292.739L167.124 296.562C166.943 296.724 166.724 296.8 166.501 296.8C166.246 296.8 165.993 296.699 165.81 296.494C165.467 296.113 165.498 295.524 165.878 295.18L171.076 290.496C171.17 291.25 171.266 291.998 171.365 292.739Z" fill="#074FC6"/>
<path d="M113.692 288.936C113.547 288.726 113.486 288.46 113.55 288.192C113.667 287.692 114.167 287.383 114.667 287.501L122.776 289.413C123.276 289.531 123.584 290.031 123.467 290.531C123.35 291.031 122.849 291.342 122.35 291.223L114.242 289.311C114.008 289.255 113.818 289.117 113.692 288.936Z" fill="#074FC6"/>
<path d="M84.7611 304.859C84.5064 304.859 84.2542 304.754 84.0701 304.551C83.7272 304.17 83.7575 303.582 84.1382 303.238L90.3315 297.659C90.7135 297.316 91.301 297.346 91.644 297.729C91.9869 298.11 91.9567 298.697 91.5746 299.041L85.3827 304.62C85.2049 304.781 84.983 304.859 84.7611 304.859Z" fill="#074FC6"/>
<path d="M156.835 303.532C156.915 303.291 157.094 303.084 157.346 302.974C157.816 302.769 158.362 302.985 158.566 303.455L161.894 311.103C162.098 311.573 161.883 312.121 161.413 312.325C160.943 312.531 160.394 312.315 160.19 311.844L156.864 304.198C156.77 303.979 156.765 303.743 156.835 303.532Z" fill="#074FC6"/>
<path d="M172.482 315.987C172.337 316.436 172.16 316.858 171.959 317.255C171.884 317.403 171.807 317.552 171.727 317.697L167.203 316.27C166.973 316.198 166.794 316.046 166.683 315.854C166.554 315.637 166.513 315.364 166.596 315.104C166.751 314.613 167.271 314.341 167.76 314.496L172.482 315.987Z" fill="#074FC6"/>
<path d="M146.914 316.655C147.166 316.628 147.428 316.706 147.63 316.891C148.011 317.235 148.041 317.825 147.696 318.206L142.095 324.382C141.751 324.762 141.165 324.79 140.785 324.445C140.404 324.099 140.377 323.512 140.721 323.132L146.319 316.955C146.479 316.778 146.693 316.677 146.914 316.655Z" fill="#074FC6"/>
<path d="M143.618 302.413C143.367 302.37 143.135 302.223 142.99 301.991C142.718 301.555 142.849 300.982 143.282 300.708L150.339 296.277C150.773 296.003 151.347 296.134 151.619 296.57C151.891 297.005 151.76 297.577 151.327 297.851L144.271 302.285C144.068 302.413 143.836 302.45 143.618 302.413Z" fill="#074FC6"/>
<path d="M148.113 275.555C148.281 275.744 148.374 276.003 148.343 276.277C148.288 276.787 147.829 277.157 147.319 277.1L139.037 276.196C138.528 276.141 138.158 275.681 138.214 275.17C138.27 274.66 138.728 274.293 139.239 274.348L147.52 275.251C147.758 275.276 147.965 275.389 148.113 275.555Z" fill="#074FC6"/>
<path d="M136.071 257.57C136.131 257.323 136.293 257.102 136.533 256.972C136.986 256.728 137.548 256.899 137.792 257.351L141.733 264.698C141.976 265.151 141.806 265.715 141.355 265.958C140.903 266.2 140.34 266.031 140.097 265.578L136.155 258.23C136.042 258.02 136.018 257.785 136.071 257.57Z" fill="#074FC6"/>
<path d="M164.226 326.697C163.699 327.159 163.194 327.584 162.726 327.966L161.637 325.189C161.546 324.965 161.552 324.729 161.63 324.521C161.72 324.282 161.906 324.082 162.16 323.983C162.636 323.793 163.175 324.029 163.364 324.506L164.226 326.697Z" fill="#074FC6"/>
<path d="M88.0719 312.566C87.9521 312.343 87.9231 312.07 88.0164 311.812C88.1891 311.33 88.7225 311.079 89.2041 311.253L97.0452 314.074C97.5281 314.249 97.7778 314.781 97.605 315.266C97.431 315.748 96.8977 315.999 96.4148 315.825L88.5749 313.001C88.3505 312.921 88.1765 312.762 88.0719 312.566Z" fill="#074FC6"/>
<path d="M91.9137 323.175C92.1684 323.178 92.4205 323.284 92.6021 323.488C92.9413 323.873 92.906 324.461 92.5214 324.801L86.2815 330.327C85.897 330.668 85.3107 330.631 84.9703 330.247C84.6298 329.862 84.6664 329.274 85.051 328.933L91.2908 323.409C91.4699 323.251 91.6918 323.173 91.9137 323.175Z" fill="#074FC6"/>
<path d="M103.22 331.95C103.377 332.15 103.452 332.414 103.406 332.684C103.32 333.19 102.841 333.529 102.336 333.444L94.1214 332.043C93.6158 331.958 93.2754 331.477 93.3624 330.971C93.4481 330.464 93.9272 330.124 94.4341 330.21L102.646 331.61C102.882 331.65 103.082 331.776 103.22 331.95Z" fill="#074FC6"/>
<path d="M110.087 253.868C110.02 253.623 110.054 253.35 110.203 253.12C110.481 252.688 111.056 252.564 111.487 252.843L118.488 257.364C118.918 257.642 119.043 258.218 118.764 258.649C118.487 259.081 117.912 259.206 117.481 258.927L110.481 254.406C110.279 254.276 110.145 254.081 110.087 253.868Z" fill="#074FC6"/>
<path d="M157.853 259.196C158.076 259.075 158.348 259.044 158.607 259.137C159.09 259.308 159.343 259.841 159.172 260.326L156.385 268.184C156.214 268.668 155.683 268.922 155.2 268.75C154.716 268.578 154.464 268.048 154.635 267.563L157.42 259.702C157.5 259.476 157.659 259.301 157.853 259.196Z" fill="#074FC6"/>
<path d="M154.113 248.95L149.808 254.474C149.493 254.88 148.911 254.952 148.505 254.637C148.099 254.32 148.028 253.737 148.343 253.33L152.278 248.278C152.91 248.507 153.524 248.731 154.113 248.95Z" fill="#074FC6"/>
<path d="M112.039 325.238C112.127 325.504 112.35 325.688 112.61 325.74C112.736 325.766 112.869 325.761 112.997 325.717C113.135 325.672 126.608 321.304 140.788 327.186C147.994 330.173 154.399 331.316 159.576 331.213C159.599 330.913 159.622 330.627 159.649 330.357C159.653 330.319 159.656 330.285 159.659 330.251C159.659 330.251 159.952 330.062 160.454 329.703C155.364 329.952 148.836 328.877 141.371 325.783C126.651 319.68 113.088 324.088 112.519 324.278C112.121 324.411 111.906 324.84 112.039 325.238Z" fill="#074FC6"/>
<path d="M144.454 245.781C142.682 248.535 139.016 251.656 131.603 251.118C121.375 250.374 114.645 240.606 112.295 236.589C112.614 236.577 112.781 236.573 112.781 236.573L144.454 245.781Z" fill="#074FC6"/>
<path d="M133.577 263.904C133.878 263.966 134.179 264.009 134.481 264.034C137.31 264.261 139.6 263.44 141.289 261.593C146.208 256.213 144.188 243.951 144.098 243.432C144.029 243.019 143.634 242.741 143.225 242.811C142.812 242.882 142.534 243.273 142.604 243.687C142.624 243.807 144.589 255.739 140.17 260.569C138.794 262.073 136.972 262.711 134.603 262.52C124.69 261.722 113.589 236.522 113.478 236.267C113.31 235.884 112.864 235.71 112.479 235.876C112.096 236.045 111.921 236.492 112.088 236.876C112.544 237.92 123.073 261.774 133.577 263.904Z" fill="white"/>
<path d="M164.441 253.997C163.787 261.273 165.574 273.274 170.264 281.9C170.155 280.038 170.103 278.17 170.123 276.296C170.123 276.234 170.122 276.168 170.122 276.106C170.127 275.913 170.131 275.724 170.133 275.535C170.31 264.515 171.385 258.934 164.441 253.997Z" fill="#EA9B79"/>
<path d="M106.182 266.796C102.549 280.831 89.2646 292.094 80.1777 288.58C80.0706 287.791 79.9596 287.006 79.8449 286.216C79.7705 285.702 79.6923 285.189 79.6116 284.674C79.0304 280.859 78.3483 277.038 77.5741 273.329C74.2077 257.154 76.5743 240.174 92.955 238.165C94.1453 238.02 95.3166 237.886 96.4551 237.765C104.659 241.263 110.366 250.634 106.182 266.796Z" fill="#EA9B79"/>
<path d="M144.301 287.639C153.723 289.55 157.845 279.797 157.884 279.699C158.044 279.311 157.859 278.867 157.472 278.708C157.082 278.547 156.641 278.734 156.482 279.122C156.331 279.489 152.782 287.81 144.603 286.151C136.021 284.41 120.007 267.503 119.847 267.334C119.56 267.027 119.082 267.014 118.777 267.302C118.472 267.59 118.457 268.07 118.744 268.375C119.414 269.086 135.252 285.803 144.301 287.639Z" fill="#074FC6"/>
<path d="M225.87 516.505H202.56C202.56 516.505 197.167 490.605 195.357 476.083C193.545 461.56 192.607 427.127 192.607 427.127C192.607 427.127 174.033 433.168 135.151 430.891C48.9996 425.854 81.6641 362.487 81.6641 362.487C84.5753 366.512 106.41 372.058 118.598 373.982C156.002 377.577 184.435 383.935 203.903 392.344C208.591 394.367 212.758 396.509 216.408 398.762C221.102 401.659 224.04 410.447 225.809 422.004C231.128 456.742 225.87 516.505 225.87 516.505Z" fill="#39393A"/>
<path d="M205.453 504.025C205.063 504.025 204.717 503.751 204.636 503.355C201.274 486.694 200.146 465.956 199.238 449.293C198.485 435.475 197.776 422.426 196.003 420.857C194.567 419.586 188.604 420.578 181.056 421.833C166.04 424.328 143.349 428.1 118.325 422.27C104.694 419.095 94.6746 412.467 88.5419 402.569C77.9673 385.501 82.7875 364.338 82.8379 364.127C82.9438 363.679 83.394 363.399 83.8416 363.506C84.2892 363.612 84.5678 364.06 84.4619 364.511C84.414 364.715 79.7552 385.231 89.968 401.702C95.8586 411.201 105.527 417.574 118.702 420.643C143.403 426.397 165.897 422.659 180.782 420.185C189.696 418.704 195.077 417.809 197.107 419.605C199.301 421.546 199.918 431.089 200.905 449.201C201.809 465.812 202.934 486.482 206.271 503.024C206.363 503.476 206.071 503.916 205.619 504.007C205.563 504.019 205.507 504.025 205.453 504.025Z" fill="#575758"/>
<path d="M226.315 504.465H226.297L200.378 503.908C199.917 503.898 199.551 503.515 199.561 503.055C199.571 502.594 199.948 502.218 200.414 502.237L226.333 502.795C226.793 502.805 227.158 503.186 227.15 503.648C227.139 504.102 226.768 504.465 226.315 504.465Z" fill="#575758"/>
<path d="M261.907 219.574L220.829 219.548C219.237 219.546 217.944 218.252 217.946 216.657L217.964 191.389C217.966 189.795 219.258 188.504 220.851 188.505L261.929 188.533C263.521 188.534 264.812 189.828 264.811 191.422L264.792 216.69C264.792 218.285 263.501 219.575 261.907 219.574Z" fill="#DF605C"/>
<path d="M259.459 214.911L255.71 229.073L249.163 215.76L259.459 214.911Z" fill="#DF605C"/>
<path d="M251.752 201.746C250.914 207.052 241.022 213.692 241.022 213.692C241.022 213.692 231.501 207.039 230.96 201.731C230.372 195.978 237.177 194.218 241.445 198.558C245.954 194.224 252.661 195.993 251.752 201.746Z" fill="white"/>
<path d="M108.055 256.225L129.344 334.155L121.755 325.397C124.568 326.892 127.819 328.043 131.42 328.851C135.02 329.661 138.946 330.129 143.049 330.343C147.154 330.556 151.434 330.519 155.807 330.336C160.182 330.155 164.655 329.826 169.192 329.438L169.216 329.436C175.911 328.865 181.802 333.835 182.373 340.538C182.918 346.927 178.388 352.591 172.167 353.601C167.485 354.349 162.724 355.055 157.842 355.621C152.959 356.184 147.952 356.61 142.768 356.727C137.586 356.838 132.216 356.646 126.664 355.84C121.124 355.035 115.376 353.588 109.759 351.163C106.163 349.611 103.604 346.657 102.44 343.215L102.17 342.406L76.6307 265.768C73.7598 257.152 78.4085 247.839 87.0137 244.965C95.6177 242.091 104.921 246.744 107.792 255.359C107.882 255.629 107.979 255.954 108.055 256.225Z" fill="#EA9B79"/>
<path d="M117.58 331.659C117.36 331.659 117.147 331.544 117.031 331.339C116.859 331.038 116.964 330.652 117.266 330.479C117.463 330.368 122.121 327.735 126.989 327.358C127.34 327.331 127.64 327.592 127.666 327.94C127.693 328.287 127.433 328.59 127.086 328.618C122.506 328.972 117.937 331.552 117.891 331.578C117.792 331.634 117.686 331.659 117.58 331.659Z" fill="#D96C62"/>
<path d="M125.315 328.845C125.204 328.845 125.091 328.816 124.989 328.754C122.053 326.971 118.499 326.701 118.464 326.698C118.117 326.673 117.855 326.371 117.88 326.024C117.904 325.676 118.196 325.417 118.553 325.44C118.711 325.451 122.449 325.734 125.643 327.675C125.94 327.856 126.035 328.243 125.855 328.542C125.736 328.738 125.528 328.845 125.315 328.845Z" fill="#D96C62"/>
<path d="M266.447 516.281H243.139C243.139 516.281 237.745 490.381 235.936 475.859C234.124 461.336 233.186 426.903 233.186 426.903C233.186 426.903 214.61 432.944 175.729 430.667C89.5758 425.63 122.243 362.263 122.243 362.263C125.154 366.288 142.984 363.497 155.171 365.419C192.575 369.014 225.013 383.711 244.482 392.12C249.17 394.142 253.337 396.285 256.987 398.538C261.681 401.435 264.617 410.223 266.386 421.78C271.706 456.518 266.447 516.281 266.447 516.281Z" fill="#39393A"/>
<path d="M246.03 503.803C245.642 503.803 245.294 503.529 245.213 503.133C241.853 486.471 240.723 465.734 239.816 449.071C239.064 435.253 238.353 422.204 236.58 420.635C235.144 419.364 229.182 420.356 221.633 421.611C206.618 424.106 183.927 427.878 158.903 422.047C145.272 418.873 135.252 412.245 129.119 402.346C118.545 385.278 123.366 364.116 123.415 363.904C123.521 363.457 123.971 363.177 124.419 363.284C124.868 363.39 125.146 363.838 125.041 364.289C124.991 364.493 120.333 385.007 130.545 401.479C136.436 410.979 146.104 417.352 159.281 420.42C183.982 426.175 206.475 422.436 221.359 419.962C230.274 418.48 235.655 417.587 237.685 419.383C239.879 421.324 240.495 430.867 241.482 448.979C242.386 465.588 243.511 486.26 246.848 502.802C246.941 503.254 246.648 503.694 246.197 503.785C246.141 503.796 246.084 503.803 246.03 503.803Z" fill="#575758"/>
<path d="M266.893 504.241H266.874L240.957 503.684C240.495 503.674 240.129 503.291 240.14 502.831C240.15 502.37 240.527 501.994 240.992 502.013L266.911 502.571C267.371 502.581 267.737 502.962 267.727 503.424C267.717 503.878 267.346 504.241 266.893 504.241Z" fill="#575758"/>
<path d="M265.805 546.178H249.354L246.185 526.855L244.449 516.281H264.888L265.215 526.855L265.805 546.178Z" fill="#EA9B79"/>
<path d="M265.805 546.178H249.353L246.994 531.793L246.184 526.855H265.215L265.373 531.973L265.805 546.178Z" fill="#F9AE39"/>
<path d="M265.372 531.972L246.994 531.79L246.184 526.855H265.214L265.372 531.972Z" fill="#C67D2D"/>
<path d="M306.403 572.189H244.177C243.715 571.348 243.463 570.155 243.36 568.73C242.969 563.46 244.647 555.051 245.471 549.749C245.57 549.128 245.656 548.552 245.723 548.029C245.837 547.142 245.909 546.404 245.909 545.862C245.909 541.536 249.735 542.277 249.735 542.277C256.031 548.459 263.16 539.189 267.323 542.23C267.323 542.23 267.494 542.354 267.874 542.653C268.224 542.927 268.754 543.355 269.492 543.975C270.552 544.863 272.041 546.152 274.056 547.967C278.995 552.415 287.396 555.352 294.551 558.346C295.463 558.728 296.309 559.11 297.094 559.489C297.691 559.777 298.253 560.067 298.784 560.353C304.63 563.514 306.491 566.535 306.914 568.73C307.317 570.838 306.403 572.189 306.403 572.189Z" fill="#015ECD"/>
<path d="M298.784 560.353C297.181 561.631 293.615 564.187 290.757 564.187C290.631 564.187 290.505 564.183 290.381 564.172C288.363 564.004 280.948 560.355 274.913 557.036C271.456 555.132 268.298 553.261 266.028 551.759C262.303 549.301 261.657 548.363 261.511 547.711C260.966 545.254 265.027 543.54 267.874 542.654C268.223 542.928 268.754 543.356 269.492 543.976C265.955 544.941 263.052 546.454 263.186 547.316C263.533 548.044 267.215 550.854 276.02 555.679C282.739 559.36 289.112 562.338 290.525 562.456C292.44 562.61 295.257 560.865 297.094 559.49C297.69 559.778 298.253 560.066 298.784 560.353Z" fill="#074FC6"/>
<path d="M306.403 572.191H244.178C243.715 571.349 243.464 570.155 243.36 568.731H306.913C307.318 570.838 306.403 572.191 306.403 572.191Z" fill="#074FC6"/>
<path d="M250.528 572.19H248.679C250.524 570.079 252.25 566.843 252.024 562.215C251.724 556.061 248.035 551.912 245.472 549.75C245.571 549.129 245.657 548.55 245.724 548.028C248.486 550.142 253.143 554.769 253.504 562.141C253.72 566.56 252.271 569.857 250.528 572.19Z" fill="#074FC6"/>
<path d="M273.002 551.639C272.542 551.639 272.122 551.327 272.007 550.86C271.871 550.31 272.206 549.753 272.756 549.616L276.642 548.65C277.191 548.512 277.749 548.848 277.885 549.4C278.021 549.949 277.687 550.507 277.138 550.643L273.25 551.609C273.167 551.629 273.084 551.639 273.002 551.639Z" fill="white"/>
<path d="M269.14 548.4C268.68 548.4 268.261 548.089 268.145 547.621C268.011 547.07 268.345 546.513 268.894 546.377L272.782 545.411C273.33 545.274 273.887 545.611 274.023 546.162C274.16 546.711 273.826 547.268 273.276 547.403L269.389 548.371C269.305 548.391 269.222 548.4 269.14 548.4Z" fill="white"/>
<path d="M276.889 553.901C276.429 553.901 276.01 553.589 275.894 553.122C275.758 552.572 276.094 552.015 276.643 551.878L280.531 550.912C281.08 550.774 281.636 551.111 281.772 551.663C281.909 552.212 281.573 552.769 281.024 552.905L277.138 553.872C277.054 553.892 276.971 553.901 276.889 553.901Z" fill="white"/>
<path d="M280.776 556.077C280.316 556.077 279.898 555.765 279.782 555.298C279.646 554.747 279.981 554.19 280.531 554.053L284.418 553.088C284.967 552.951 285.524 553.288 285.66 553.838C285.796 554.387 285.46 554.945 284.911 555.081L281.024 556.047C280.942 556.067 280.858 556.077 280.776 556.077Z" fill="white"/>
<path d="M285.014 558.088C284.554 558.088 284.135 557.775 284.019 557.308C283.883 556.757 284.218 556.201 284.768 556.064L288.655 555.099C289.205 554.961 289.761 555.298 289.897 555.849C290.033 556.398 289.698 556.954 289.148 557.091L285.262 558.059C285.179 558.079 285.096 558.088 285.014 558.088Z" fill="white"/>
<path d="M289.611 559.803C289.151 559.803 288.732 559.49 288.616 559.023C288.48 558.473 288.816 557.916 289.365 557.78L293.252 556.814C293.801 556.675 294.358 557.013 294.494 557.564C294.63 558.113 294.295 558.671 293.745 558.806L289.858 559.773C289.775 559.793 289.693 559.803 289.611 559.803Z" fill="white"/>
<path d="M225.87 516.399H202.56C202.56 516.399 197.167 490.499 195.357 475.977C193.545 461.453 192.607 427.021 192.607 427.021C192.607 427.021 174.033 433.062 135.151 430.785C48.9996 425.747 81.6641 362.38 81.6641 362.38C84.5753 366.405 106.41 371.952 118.598 373.875C156.002 377.47 184.435 383.828 203.903 392.237C208.591 394.261 212.758 396.403 216.408 398.656C221.102 401.553 224.04 410.34 225.809 421.897C231.128 456.635 225.87 516.399 225.87 516.399Z" fill="#39393A"/>
<path d="M205.453 503.919C205.063 503.919 204.716 503.645 204.636 503.249C201.274 486.588 200.146 465.85 199.238 449.187C198.485 435.369 197.775 422.32 196.003 420.751C194.567 419.48 188.604 420.472 181.056 421.727C166.04 424.222 143.349 427.994 118.325 422.164C104.694 418.989 94.6745 412.361 88.5418 402.463C77.9672 385.394 82.7873 364.232 82.8378 364.021C82.9437 363.573 83.3938 363.293 83.8414 363.4C84.289 363.506 84.5676 363.954 84.4617 364.405C84.4138 364.609 79.755 385.124 89.9678 401.595C95.8584 411.095 105.526 417.468 118.702 420.537C143.403 426.291 165.897 422.552 180.782 420.078C189.696 418.598 195.077 417.703 197.107 419.499C199.301 421.44 199.918 430.983 200.905 449.095C201.809 465.706 202.934 486.376 206.271 502.918C206.363 503.37 206.07 503.81 205.619 503.901C205.562 503.913 205.507 503.919 205.453 503.919Z" fill="#575758"/>
<path d="M226.314 504.358H226.297L200.378 503.801C199.916 503.791 199.551 503.409 199.561 502.948C199.571 502.487 199.948 502.111 200.413 502.13L226.332 502.688C226.792 502.698 227.158 503.079 227.149 503.541C227.139 503.996 226.767 504.358 226.314 504.358Z" fill="#575758"/>
<path d="M225.228 546.174H208.777L205.608 526.851L203.872 516.277H224.312L224.636 526.851L225.228 546.174Z" fill="#EA9B79"/>
<path d="M225.228 546.176H208.776L206.415 531.792L205.607 526.852H224.636L224.793 531.971L225.228 546.176Z" fill="#F9AE39"/>
<path d="M224.795 531.97L206.417 531.789L205.607 526.852H224.637L224.795 531.97Z" fill="#C67D2D"/>
<path d="M265.824 572.139H203.598C203.137 571.299 202.885 570.104 202.781 568.681C202.39 563.41 204.068 555 204.892 549.699C204.991 549.078 205.078 548.501 205.144 547.979C205.259 547.091 205.331 546.354 205.331 545.811C205.331 541.486 209.156 542.227 209.156 542.227C215.453 548.409 222.581 539.139 226.745 542.18C226.745 542.18 226.915 542.304 227.296 542.603C227.646 542.877 228.176 543.305 228.913 543.924C229.974 544.813 231.463 546.102 233.479 547.917C238.416 552.365 246.818 555.302 253.972 558.296C254.884 558.679 255.731 559.06 256.517 559.439C257.113 559.726 257.675 560.017 258.205 560.303C264.053 563.464 265.912 566.484 266.335 568.681C266.739 570.787 265.824 572.139 265.824 572.139Z" fill="#0775F7"/>
<path d="M258.206 560.302C256.604 561.579 253.039 564.135 250.18 564.135C250.053 564.135 249.927 564.132 249.804 564.119C247.785 563.951 240.37 560.303 234.336 556.985C230.879 555.08 227.722 553.21 225.451 551.707C221.725 549.251 221.079 548.312 220.933 547.659C220.389 545.203 224.45 543.488 227.297 542.602C227.647 542.876 228.177 543.303 228.914 543.923C225.378 544.889 222.474 546.401 222.609 547.263C222.956 547.991 226.637 550.804 235.443 555.628C242.162 559.309 248.534 562.286 249.948 562.405C251.863 562.559 254.679 560.813 256.518 559.439C257.114 559.726 257.676 560.014 258.206 560.302Z" fill="#074FC6"/>
<path d="M265.824 572.139H203.599C203.137 571.297 202.886 570.103 202.782 568.679H266.335C266.739 570.786 265.824 572.139 265.824 572.139Z" fill="#074FC6"/>
<path d="M209.949 572.139H208.1C209.945 570.029 211.671 566.792 211.445 562.165C211.145 556.01 207.456 551.861 204.893 549.699C204.992 549.079 205.078 548.5 205.145 547.978C207.907 550.092 212.564 554.719 212.927 562.091C213.141 566.511 211.694 569.807 209.949 572.139Z" fill="#074FC6"/>
<path d="M232.424 551.588C231.964 551.588 231.546 551.278 231.43 550.811C231.293 550.261 231.629 549.704 232.179 549.566L236.064 548.602C236.614 548.463 237.172 548.8 237.308 549.35C237.444 549.9 237.108 550.457 236.559 550.594L232.672 551.561C232.59 551.58 232.506 551.588 232.424 551.588Z" fill="white"/>
<path d="M228.561 548.35C228.101 548.35 227.682 548.038 227.566 547.571C227.43 547.019 227.766 546.464 228.315 546.326L232.203 545.361C232.751 545.223 233.308 545.559 233.445 546.11C233.581 546.659 233.245 547.217 232.696 547.354L228.808 548.319C228.726 548.339 228.643 548.35 228.561 548.35Z" fill="white"/>
<path d="M236.312 553.85C235.851 553.85 235.433 553.539 235.317 553.072C235.181 552.521 235.516 551.965 236.065 551.827L239.953 550.863C240.501 550.724 241.059 551.06 241.195 551.611C241.331 552.16 240.996 552.718 240.446 552.854L236.559 553.82C236.477 553.84 236.394 553.85 236.312 553.85Z" fill="white"/>
<path d="M240.199 556.026C239.739 556.026 239.32 555.714 239.204 555.247C239.069 554.696 239.403 554.14 239.953 554.002L243.84 553.038C244.39 552.899 244.946 553.237 245.082 553.788C245.218 554.337 244.884 554.893 244.334 555.03L240.447 555.996C240.364 556.017 240.281 556.026 240.199 556.026Z" fill="white"/>
<path d="M244.437 558.036C243.976 558.036 243.558 557.723 243.442 557.256C243.306 556.706 243.641 556.149 244.191 556.013L248.077 555.047C248.626 554.909 249.184 555.246 249.32 555.797C249.456 556.347 249.121 556.903 248.571 557.039L244.684 558.006C244.6 558.026 244.517 558.036 244.437 558.036Z" fill="white"/>
<path d="M249.032 559.752C248.572 559.752 248.153 559.44 248.037 558.972C247.901 558.421 248.237 557.865 248.786 557.728L252.673 556.763C253.223 556.624 253.779 556.961 253.915 557.512C254.052 558.061 253.716 558.619 253.168 558.754L249.281 559.721C249.197 559.742 249.114 559.752 249.032 559.752Z" fill="white"/>
<path d="M310.104 256.208L293.396 326.94L292.956 328.798L291.833 333.563C291.347 335.627 289.51 337.082 287.392 337.082H174.849C171.904 337.082 169.727 334.328 170.406 331.462L188.676 254.107C189.162 252.045 190.999 250.591 193.116 250.591H305.66C308.606 250.591 310.782 253.342 310.104 256.208Z" fill="#39393A"/>
<path d="M293.396 326.939L292.955 328.8H176.098V326.939H293.396Z" fill="#575758"/>
<path d="M220.204 268.093C219.27 273.107 214.452 277.17 209.445 277.17C204.437 277.17 201.135 273.107 202.069 268.093C203.004 263.08 207.821 259.016 212.828 259.016C217.837 259.016 221.138 263.08 220.204 268.093Z" fill="#F9AE39"/>
<path d="M209.963 266.356C209.777 267.359 209.27 268.171 208.835 268.171C208.4 268.171 208.198 267.359 208.385 266.356C208.571 265.354 209.076 264.541 209.512 264.541C209.947 264.541 210.15 265.354 209.963 266.356Z" fill="#39393A"/>
<path d="M214.694 266.356C214.507 267.359 214.002 268.171 213.566 268.171C213.131 268.171 212.929 267.359 213.116 266.356C213.302 265.354 213.806 264.541 214.243 264.541C214.678 264.541 214.881 265.354 214.694 266.356Z" fill="#39393A"/>
<path d="M210.392 272.514C206.492 272.514 206.327 268.611 206.326 268.572C206.32 268.359 206.494 268.149 206.714 268.102C206.936 268.056 207.122 268.191 207.128 268.404C207.133 268.545 207.285 271.725 210.54 271.725C213.796 271.725 215.133 268.539 215.188 268.404C215.275 268.191 215.511 268.057 215.714 268.102C215.917 268.149 216.013 268.359 215.927 268.572C215.911 268.611 214.292 272.514 210.392 272.514Z" fill="#39393A"/>
<path d="M272.231 310.476C272.329 315.171 280.274 321.051 280.274 321.051C280.274 321.051 289.504 315.171 290.625 310.476C291.841 305.385 286.034 303.824 281.734 307.662C278.271 303.824 272.124 305.385 272.231 310.476Z" fill="#DF605C"/>
<path d="M255.419 296.86C254.883 301.728 250.505 305.675 245.641 305.675C240.778 305.675 237.27 301.728 237.807 296.86C238.343 291.991 242.72 288.044 247.584 288.044C252.447 288.044 255.955 291.991 255.419 296.86Z" fill="#575758"/>
<path d="M197.577 250.59L178.123 337.081H174.849C171.904 337.081 169.727 334.329 170.406 331.463L188.674 254.106C189.162 252.045 191 250.59 193.117 250.59H197.577Z" fill="#575758"/>
<path d="M230.176 337.081L226.76 356.302H238.036L241.451 337.081H230.176Z" fill="white"/>
<path d="M209.885 352.995L212.194 349.745C213.017 348.585 214.352 347.897 215.775 347.897H246.69C248.326 347.897 249.827 348.806 250.585 350.256L252.142 353.236C252.87 354.631 251.86 356.301 250.289 356.301H211.59C209.89 356.301 208.901 354.381 209.885 352.995Z" fill="white"/>
<path d="M145.469 356.291H238.342L239.351 352.783C239.985 350.577 238.33 348.377 236.037 348.377H150.34C148.803 348.377 147.45 349.395 147.025 350.875L145.469 356.291Z" fill="white"/>
<path d="M55.6711 350.028L50.7425 350.784L45.0523 313.592L49.9796 312.836L55.6711 350.028Z" fill="#F9AE39"/>
<path d="M49.9796 312.838L45.0523 313.594L46.1366 309.825L46.699 307.876L47.8186 309.567L49.9796 312.838Z" fill="#EA9B79"/>
<path d="M55.671 350.029L50.7424 350.785L50.3301 348.082L55.2575 347.326L55.671 350.029Z" fill="#39393A"/>
<path d="M55.6721 352.231L51.4004 352.887C51.2188 352.915 51.0499 352.789 51.0222 352.608L50.7422 350.784L55.6709 350.028L55.9495 351.852C55.9772 352.034 55.8537 352.204 55.6721 352.231Z" fill="#DF605C"/>
<path d="M47.8185 309.567L46.1365 309.825L46.6989 307.876L47.8185 309.567Z" fill="#39393A"/>
<path d="M50.0324 346.145L54.9598 345.389L55.2573 347.327L50.3287 348.082L50.0324 346.145Z" fill="#C67D2D"/>
<path d="M46.5576 315.237L50.7713 342.778C50.8041 342.986 50.9982 343.13 51.2063 343.097C51.4143 343.065 51.5568 342.871 51.524 342.663L47.3103 315.121C47.2775 314.912 47.0833 314.77 46.8753 314.801C46.6685 314.834 46.526 315.028 46.5576 315.237Z" fill="#C67D2D"/>
<path d="M48.4855 314.939L52.7005 342.481C52.732 342.689 52.9262 342.833 53.1342 342.801C53.3422 342.769 53.4847 342.575 53.4519 342.366L49.2382 314.824C49.2067 314.616 49.0113 314.473 48.8045 314.505C48.5965 314.538 48.454 314.732 48.4855 314.939Z" fill="#C67D2D"/>
<path d="M59.0123 350.633L54.0269 350.649L53.9046 313.024L58.8887 313.006L59.0123 350.633Z" fill="#20B573"/>
<path d="M58.8886 313.009L53.9033 313.026L55.5335 309.46L56.3783 307.616L57.2344 309.455L58.8886 313.009Z" fill="#EA9B79"/>
<path d="M59.0123 350.633L54.027 350.649L54.0181 347.915L59.0035 347.9L59.0123 350.633Z" fill="#39393A"/>
<path d="M58.688 352.812L54.3646 352.827C54.1818 352.827 54.033 352.679 54.033 352.495L54.0267 350.648L59.0133 350.632L59.0184 352.479C59.0196 352.663 58.8709 352.812 58.688 352.812Z" fill="#DF605C"/>
<path d="M57.2344 309.453L55.5335 309.46L56.3783 307.614L57.2344 309.453Z" fill="#39393A"/>
<path d="M54.0118 345.955L58.9971 345.939L59.0022 347.899L54.0181 347.915L54.0118 345.955Z" fill="#207B57"/>
<path d="M55.1491 314.875L55.2399 342.736C55.2411 342.947 55.4114 343.119 55.6219 343.117C55.8325 343.117 56.0027 342.944 56.0014 342.734L55.9119 314.871C55.9119 314.66 55.7392 314.491 55.5286 314.491C55.3181 314.492 55.1491 314.664 55.1491 314.875Z" fill="#207B57"/>
<path d="M57.0984 314.866L57.1904 342.728C57.1917 342.939 57.3619 343.11 57.5725 343.108C57.783 343.107 57.9532 342.935 57.952 342.726L57.8612 314.863C57.8612 314.652 57.6885 314.482 57.4779 314.482C57.2673 314.483 57.0984 314.655 57.0984 314.866Z" fill="#207B57"/>
<path d="M62.2035 350.789L57.2686 350.086L62.5553 312.836L67.4889 313.537L62.2035 350.789Z" fill="#0775F7"/>
<path d="M67.4911 313.538L62.5536 312.835L64.6807 309.543L65.7826 307.838L66.3639 309.781L67.4911 313.538Z" fill="#EA9B79"/>
<path d="M62.2048 350.79L57.2686 350.087L57.6531 347.382L62.5893 348.082L62.2048 350.79Z" fill="#39393A"/>
<path d="M61.5703 352.9L57.2897 352.292C57.1082 352.265 56.9834 352.097 57.0098 351.915L57.2683 350.086L62.2045 350.79L61.9447 352.617C61.9195 352.799 61.7518 352.927 61.5703 352.9Z" fill="#DF605C"/>
<path d="M66.3653 309.783L64.6808 309.544L65.7816 307.839L66.3653 309.783Z" fill="#39393A"/>
<path d="M57.9292 345.44L62.8641 346.143L62.5893 348.084L57.6544 347.38L57.9292 345.44Z" fill="#074FC6"/>
<path d="M63.5208 314.847L59.606 342.432C59.577 342.641 59.722 342.834 59.93 342.863C60.138 342.894 60.3309 342.747 60.3599 342.539L64.2748 314.953C64.3051 314.745 64.1588 314.553 63.9508 314.522C63.7428 314.493 63.5498 314.637 63.5208 314.847Z" fill="#074FC6"/>
<path d="M65.451 315.118L61.5374 342.703C61.5072 342.913 61.6521 343.106 61.8602 343.135C62.0682 343.165 62.2611 343.019 62.2914 342.81L66.205 315.225C66.2353 315.017 66.0903 314.824 65.881 314.794C65.6729 314.765 65.48 314.91 65.451 315.118Z" fill="#074FC6"/>
<path d="M69.1089 327.891L68.8479 329.91L68.6109 331.743L68.2528 334.526L68.0195 336.336L67.6577 339.144L67.4257 340.934L67.0626 343.762L66.8344 345.526L66.4649 348.378L66.2418 350.122L65.8723 352.997L65.6492 354.719L65.4563 356.206H45.8654L45.675 354.719L45.4506 352.997L45.0799 350.122L44.858 348.378L44.4886 345.526L44.2604 343.762L43.896 340.934L43.664 339.144L43.3034 336.336L43.0701 334.526L42.7108 331.743L42.4738 329.91L42.2153 327.891H69.1089Z" fill="#DF605C"/>
<path d="M68.8491 329.911L68.6121 331.741H42.712L42.4763 329.911H68.8491Z" fill="#B01621"/>
<path d="M68.2526 334.526L68.0207 336.337H43.3045L43.0713 334.526H68.2526Z" fill="#B01621"/>
<path d="M67.659 339.144L67.427 340.933H43.8973L43.6653 339.144H67.659Z" fill="#B01621"/>
<path d="M67.0627 343.762L66.8344 345.525H44.4899L44.2617 343.762H67.0627Z" fill="#B01621"/>
<path d="M66.465 348.38L66.2418 350.122H45.0812L44.8581 348.38H66.465Z" fill="#B01621"/>
<path d="M65.8722 352.998L65.649 354.719H45.6749L45.4517 352.998H65.8722Z" fill="#B01621"/>
<path d="M311.73 361.418V366.59C311.73 369.567 309.933 371.979 307.716 371.979H28.4886C26.2721 371.979 24.4754 369.567 24.4754 366.59V361.418C24.4754 358.444 26.2721 356.032 28.4886 356.032H307.716C309.933 356.032 311.73 358.444 311.73 361.418Z" fill="#20B573"/>
<path d="M311.73 365.424H24.4754V363.056H311.73V365.424Z" fill="#207B57"/>
<path d="M303.339 385.274H40.866C39.6922 385.274 38.739 384.321 38.739 383.145V371.917H305.466V383.145C305.466 384.321 304.514 385.274 303.339 385.274Z" fill="#207B57"/>
<path d="M291.55 460.377H56.8258V451.219H291.55V460.377Z" fill="#207B57"/>
<path d="M39.9004 573.904L85.3434 385.275H69.385L23.9407 573.904H39.9004Z" fill="#20B573"/>
<path d="M308.163 573.904L262.719 385.275H278.677L324.122 573.904H308.163Z" fill="#20B573"/>
<path d="M129.492 226.463C129.492 226.463 114.262 224.277 109.338 209.204C104.65 194.851 107.441 187.176 111.316 179.143C114.235 173.093 123.959 164.665 138.212 166.915C152.602 169.185 163.582 176.048 165.671 187.721C169.577 209.563 153.042 237.137 129.492 226.463Z" fill="#39393A"/>
<path d="M110.159 211.523C109.885 211.535 109.613 211.404 109.457 211.156C109.163 210.687 102.306 199.523 106.927 184.236C109.813 174.689 116.123 170.198 120.909 168.109C126.081 165.851 130.52 165.851 130.708 165.851C131.144 165.854 131.494 166.209 131.491 166.645C131.489 167.079 131.142 167.432 130.7 167.43C130.657 167.429 126.355 167.439 121.482 169.58C114.995 172.43 110.605 177.514 108.436 184.694C104.031 199.266 110.723 210.207 110.791 210.316C111.022 210.685 110.911 211.172 110.543 211.403C110.423 211.478 110.291 211.517 110.159 211.523Z" fill="#F9AE39"/>
<path d="M158.109 209.678C158.109 209.678 162.855 205.576 164.372 210.666C165.888 215.755 162.642 225.061 156.8 222.531L158.109 209.678Z" fill="#D96C62"/>
<path d="M153.723 219.339C151.319 220.255 149.248 222.511 148.82 225.231C148.185 229.271 150.951 233.075 154.985 233.713C159.021 234.349 162.822 231.581 163.457 227.542C163.933 224.516 162.501 221.622 160.057 220.094C159.239 219.58 158.305 219.22 157.291 219.06C157.266 219.056 157.243 219.056 157.218 219.052C157.099 219.562 157.176 219.966 157.477 220.267C158.293 220.445 159.044 220.78 159.698 221.237C161.609 222.563 162.706 224.912 162.321 227.363C161.783 230.775 158.575 233.114 155.165 232.576C151.756 232.038 149.42 228.822 149.957 225.41C150.348 222.931 152.087 221.106 154.352 220.454L153.723 219.339Z" fill="#F9AE39"/>
<path d="M144.18 232.374L142.681 245.346C142.681 245.346 133.478 255.61 115.112 238.719C119.682 234.989 121.13 226.748 120.347 221.494C120.347 221.494 121.771 222.269 123.992 224.113C124.425 224.473 124.974 224.743 125.516 225.081C130.304 228.045 137.61 231.853 144.18 232.374Z" fill="#EA9B79"/>
<path d="M144.179 232.372L143.469 238.524C138.088 236.4 128.536 231.77 123.992 224.111C124.465 224.419 124.972 224.742 125.515 225.08C130.303 228.043 137.609 231.852 144.179 232.372Z" fill="#39393A"/>
<path d="M162.734 206.364C162.52 207.739 162.315 209.047 162.112 210.291C161.897 211.641 161.685 212.915 161.474 214.115C159.915 223.117 158.517 227.961 155.998 229.864C143.257 239.481 121.079 222.101 120.366 221.541L120.348 221.525C120.284 220.476 120.239 219.434 120.215 218.41C119.996 209.73 121.133 201.877 123.16 194.565C123.986 186.648 129.805 180.074 137.607 178.543C145.692 176.962 152.019 181.411 155.938 183.331C161.856 186.234 164.501 194.895 162.734 206.364Z" fill="#EA9B79"/>
<path d="M123.257 186.459C123.257 186.459 131.678 168.356 150.235 172.495C168.792 176.632 170.138 185.119 170.647 189.369C171.156 193.62 161.005 186.495 161.005 186.495C161.005 186.495 161.04 195.037 157.652 192.552C153.497 189.505 148.702 182.746 148.702 182.746C148.702 182.746 138.247 193.972 127.74 191.527C121.773 190.138 123.257 186.459 123.257 186.459Z" fill="#39393A"/>
<path d="M147.486 224.426C145.101 224.53 143.398 222.953 143.311 222.871C143.047 222.621 143.035 222.206 143.284 221.943C143.532 221.679 143.947 221.669 144.21 221.916C144.301 222.001 146.275 223.794 148.731 222.833C149.069 222.701 149.45 222.869 149.582 223.206C149.713 223.544 149.546 223.924 149.209 224.057C148.607 224.293 148.029 224.403 147.486 224.426Z" fill="#D96C62"/>
<path d="M141.528 213.947C141.528 213.947 150.487 216.187 155.075 215.986C155.075 215.986 153.067 222.645 146.415 220.635C141.238 219.071 141.528 213.947 141.528 213.947Z" fill="white"/>
<path d="M157.141 194.797C157.141 194.797 154.832 194.664 155.304 196.876C155.774 199.088 160.695 197.508 163.353 201.865C163.353 201.865 165.529 197.08 157.141 194.797Z" fill="#39393A"/>
<path d="M146.84 193.173C146.84 193.173 149.078 193.757 147.951 195.716C146.825 197.675 142.626 194.657 138.759 197.986C138.759 197.986 138.159 192.762 146.84 193.173Z" fill="#39393A"/>
<path d="M143.55 209.326C143.383 210.387 141.064 210.904 138.369 210.478C135.675 210.054 133.626 208.848 133.793 207.786C133.96 206.725 136.28 206.21 138.974 206.635C141.668 207.06 143.717 208.264 143.55 209.326Z" fill="#D96C62"/>
<path d="M169.684 208.88L162.486 207.973C162.462 208.277 162.404 208.577 162.348 208.878C162.339 208.931 162.322 208.979 162.303 209.026L169.55 209.939C169.842 209.976 170.109 209.769 170.146 209.477C170.183 209.184 169.991 208.91 169.684 208.88Z" fill="white"/>
<path d="M150.348 203.604C150.336 203.237 150.298 202.876 150.236 202.519C149.917 200.593 148.983 198.835 147.606 197.504C146.347 196.282 144.727 195.413 142.877 195.098C142.846 195.09 142.818 195.083 142.786 195.08C138.568 194.399 134.548 196.782 133.005 200.588C132.87 200.917 132.755 201.253 132.664 201.603C132.577 201.909 132.511 202.224 132.458 202.543C132.076 204.909 132.654 207.208 133.901 209.045C134.326 209.671 134.831 210.246 135.398 210.743C136.629 211.839 138.173 212.603 139.912 212.884C142.843 213.358 145.673 212.355 147.648 210.426C148.981 209.125 149.923 207.4 150.242 205.422C150.241 205.415 150.245 205.404 150.244 205.397C150.339 204.794 150.375 204.195 150.348 203.604ZM140.084 211.829C140.038 211.822 139.998 211.815 139.952 211.805C137.673 211.398 135.787 210.046 134.634 208.216C133.638 206.636 133.192 204.704 133.51 202.716C133.577 202.306 133.676 201.907 133.8 201.522C133.811 201.498 133.818 201.475 133.825 201.45C134.818 198.486 137.469 196.393 140.529 196.076C141.209 196.005 141.909 196.018 142.615 196.134C144.135 196.38 145.486 197.045 146.568 197.997C148.56 199.743 149.64 202.446 149.188 205.252C148.491 209.577 144.407 212.531 140.084 211.829Z" fill="white"/>
<path d="M166.189 199.221C165.94 199.103 165.687 198.999 165.424 198.9C165.115 198.789 164.796 198.696 164.471 198.62C164.247 198.563 164.021 198.517 163.789 198.478C163.363 198.408 162.936 198.372 162.52 198.364C162.011 198.353 161.509 198.386 161.017 198.462C159.651 198.667 158.368 199.186 157.255 199.949C156.03 200.79 155.013 201.935 154.328 203.289C154.147 203.633 153.994 203.993 153.861 204.364C153.854 204.385 153.847 204.401 153.844 204.422C153.674 204.907 153.543 205.418 153.46 205.942C152.893 209.451 154.442 212.823 157.161 214.749C158.044 215.375 159.051 215.849 160.153 216.125C160.318 216.167 160.488 216.205 160.658 216.233C160.741 216.255 160.828 216.269 160.914 216.283C161.791 216.423 162.66 216.435 163.499 216.323C163.635 216.308 163.769 216.287 163.9 216.264C164.269 216.197 164.632 216.113 164.987 216.003C165.652 215.799 166.286 215.52 166.879 215.173C169.127 213.856 170.798 211.587 171.244 208.82C171.899 204.766 169.726 200.893 166.189 199.221ZM170.19 208.647C170.162 208.82 170.131 208.992 170.089 209.158C170.036 209.4 169.971 209.636 169.89 209.869C169.336 211.567 168.231 212.983 166.816 213.948C166.296 214.304 165.733 214.595 165.141 214.823C164.77 214.962 164.389 215.076 163.997 215.158C163.882 215.182 163.772 215.202 163.657 215.218C162.825 215.359 161.96 215.369 161.083 215.229C161.003 215.214 160.924 215.201 160.844 215.187C160.795 215.176 160.747 215.166 160.699 215.159C159.409 214.882 158.253 214.303 157.296 213.502C157.153 213.388 157.015 213.267 156.884 213.138C155.051 211.393 154.078 208.801 154.513 206.113C154.611 205.51 154.775 204.931 154.994 204.387C155.714 202.616 157.041 201.196 158.678 200.338C159.691 199.806 160.824 199.49 162.009 199.436C162.2 199.43 162.391 199.429 162.588 199.432C162.927 199.444 163.271 199.477 163.616 199.534C163.867 199.576 164.112 199.625 164.351 199.687C164.687 199.775 165.01 199.881 165.324 200.011C165.574 200.108 165.82 200.224 166.055 200.348C168.983 201.897 170.748 205.196 170.19 208.647Z" fill="white"/>
<path d="M121.696 202.705C121.634 202.695 121.573 202.675 121.514 202.641C121.259 202.493 121.173 202.166 121.32 201.91C124.653 196.157 133.47 200.806 133.558 200.854C133.818 200.993 133.915 201.318 133.775 201.578C133.638 201.837 133.314 201.936 133.054 201.796C132.975 201.754 125.059 197.586 122.243 202.447C122.129 202.644 121.909 202.74 121.696 202.705Z" fill="white"/>
<path d="M154.27 204.657C154.135 204.635 154.007 204.561 153.921 204.439C152.7 202.721 150.286 203.62 150.262 203.63C149.988 203.734 149.679 203.597 149.574 203.323C149.468 203.047 149.606 202.738 149.881 202.633C150.987 202.21 153.433 201.912 154.79 203.82C154.959 204.06 154.904 204.393 154.664 204.564C154.546 204.65 154.403 204.677 154.27 204.657Z" fill="white"/>
<path d="M162.114 210.292C161.899 211.644 161.687 212.916 161.475 214.114C159.021 213.634 157.218 212.506 157.375 211.506C157.534 210.503 159.615 209.99 162.114 210.292Z" fill="#D96C62"/>
<path d="M145.197 203.958C144.967 205.416 144.121 206.494 143.305 206.366C142.491 206.237 142.016 204.951 142.246 203.492C142.475 202.034 143.322 200.957 144.136 201.085C144.952 201.213 145.426 202.5 145.197 203.958Z" fill="#39393A"/>
<path d="M159.607 206.233C159.378 207.691 158.532 208.769 157.716 208.64C156.901 208.511 156.426 207.226 156.657 205.766C156.886 204.308 157.732 203.232 158.547 203.359C159.363 203.488 159.837 204.775 159.607 206.233Z" fill="#39393A"/>
<path d="M152.401 210.434C153.099 210.543 153.589 210.501 153.631 210.498C153.8 210.481 153.954 210.395 154.057 210.259C154.159 210.123 154.201 209.953 154.17 209.785L152.954 203.075C152.895 202.746 152.579 202.528 152.248 202.587C151.919 202.647 151.701 202.962 151.76 203.292L152.844 209.266C152.238 209.2 151.315 208.992 150.473 208.351C150.205 208.148 149.825 208.199 149.622 208.465C149.419 208.732 149.471 209.114 149.739 209.316C150.666 210.022 151.653 210.315 152.401 210.434Z" fill="#39393A"/>
<path d="M126.035 216.373C125.939 216.525 123.325 220.67 120.365 221.541C120.365 221.541 120.362 221.543 120.359 221.543C120.351 221.532 120.347 221.526 120.347 221.526C120.282 220.475 120.24 219.436 120.214 218.412C120.32 218.411 123.178 218.364 126.035 216.373Z" fill="#39393A"/>
<path d="M124.962 205.827C124.962 205.827 120.371 197.077 115.136 202.558C110.821 207.073 115.388 221.338 123.06 217.909L124.962 205.827Z" fill="#EA9B79"/>
<path d="M114.956 213.978C112.551 214.893 110.482 217.15 110.054 219.87C109.417 223.909 112.183 227.714 116.218 228.351C120.254 228.988 124.054 226.22 124.689 222.18C125.166 219.155 123.733 216.261 121.29 214.731C120.471 214.218 119.538 213.858 118.524 213.699C118.5 213.695 118.476 213.694 118.452 213.69C118.333 214.201 118.41 214.603 118.709 214.906C119.527 215.084 120.276 215.419 120.931 215.874C122.843 217.202 123.939 219.55 123.553 222.001C123.016 225.413 119.808 227.753 116.398 227.214C112.99 226.676 110.654 223.46 111.19 220.049C111.58 217.568 113.319 215.744 115.586 215.093L114.956 213.978Z" fill="#F9AE39"/>
<path d="M122.635 215.423C122.657 215.426 122.679 215.43 122.7 215.43C123.035 215.447 123.32 215.189 123.336 214.853C123.657 208.078 118.422 204.887 118.199 204.754C117.91 204.583 117.538 204.679 117.368 204.968C117.197 205.256 117.29 205.627 117.578 205.798C117.775 205.917 122.408 208.766 122.123 214.795C122.109 215.106 122.334 215.376 122.635 215.423Z" fill="#39393A"/>
<path d="M117.615 210.904C117.747 210.925 117.886 210.903 118.012 210.83C118.6 210.49 120.345 209.7 121.337 210.128C121.644 210.26 122 210.118 122.133 209.81C122.266 209.502 122.123 209.145 121.816 209.011C120.086 208.267 117.673 209.623 117.403 209.782C117.113 209.95 117.014 210.32 117.183 210.61C117.279 210.774 117.441 210.877 117.615 210.904Z" fill="#39393A"/>
<path d="M129.721 190.44C129.721 190.44 124.738 206.06 124.565 209.171C124.327 213.411 118.121 199.186 123.194 186.577L129.721 190.44Z" fill="#39393A"/>
</svg>
