<svg width="390" height="514" viewBox="0 0 390 514" fill="none" xmlns="http://www.w3.org/2000/svg">
<g clip-path="url(#clip0_110_116)">
<mask id="mask0_110_116" style="mask-type:luminance" maskUnits="userSpaceOnUse" x="-86" y="-39" width="553" height="553">
<path d="M467 -39H-86V514H467V-39Z" fill="white"/>
</mask>
<g mask="url(#mask0_110_116)">
<path d="M437.813 501.291C437.813 507.089 326.166 511.788 188.442 511.788C50.7182 511.788 -60.9292 507.089 -60.9292 501.291C-60.9292 495.493 50.7182 490.794 188.442 490.794C326.166 490.794 437.813 495.493 437.813 501.291Z" fill="#D2F9FA"/>
<path d="M194.334 65.7437C194.334 65.7437 100.334 28.3421 55.0935 84.4882C9.85146 140.634 119.94 213.961 6.29015 269.975C-73.9678 309.53 -32.9153 416.538 52.0509 402.799C148.735 387.168 83.0112 332.511 296.474 365.038C402.204 381.151 480.334 156.461 194.334 65.7437Z" fill="#EBFAFB"/>
<path d="M168.031 41.675C172.418 36.302 170.527 28.268 164.373 25.0662C159.529 22.5456 153.415 21.1609 148.854 26.2252C140.028 36.0266 153.267 42.6449 160.271 44.607C163.242 45.4387 166.67 43.3406 168.031 41.675Z" fill="#50D790"/>
<path d="M266.529 274.24C266.529 274.24 263.74 273.4 262.624 275.634C261.507 277.868 258.013 304.689 258.986 312.232C259.969 319.775 262.758 316.988 262.758 316.988C262.758 316.988 262.48 321.456 260.666 322.717L260.655 322.706C260.634 322.695 260.589 322.661 260.533 322.617C260.489 322.595 260.435 322.551 260.369 322.506H260.356C259.284 321.799 255.569 319.343 252.14 316.988C248.092 314.189 245.714 311.811 245.714 311.811C245.714 311.811 246.277 307.343 246.277 306.093C246.277 304.833 237.331 275.07 228.537 265.857C220.33 257.263 228.393 208.853 229.521 202.317L229.654 201.587C229.654 201.587 236.775 203.686 239.85 205.933C242.913 208.189 253.964 235.398 254.517 249.366C255.08 263.335 260.102 271.265 260.102 271.265C260.102 271.265 261.784 270.248 264.582 271.265L266.529 274.24Z" fill="#266EF1"/>
<path d="M236.711 455.924C236.479 458.469 236.037 460.524 235.506 462.315V462.328C234.61 465.413 233.482 467.726 232.862 470.379C231.889 474.571 230.772 490.883 230.772 490.883H201.43C202.546 484.845 203.94 480.167 205.621 465.07C207.225 450.637 198.598 400.888 197.857 396.631C197.824 396.443 197.801 396.343 197.801 396.343C190.259 427.909 171.745 464.519 169.853 466.608C167.973 468.71 164.202 470.589 164.202 470.589C162.1 474.57 157.698 490.883 157.698 490.883H123.965C125.845 482.258 134.439 469.34 137.171 464.517C139.892 459.694 150.155 426.79 152.887 405.002C154.026 395.922 154.9 386.334 155.542 378.227V378.205C156.437 366.879 156.869 358.475 156.869 358.475C165.451 349.681 232.596 341.01 232.596 341.01L234.72 347.9C234.72 347.9 237.12 348.421 237.441 350.101C237.75 351.771 235.506 353.31 235.506 353.31C243.038 396.056 237.331 449.011 236.711 455.924Z" fill="#0A0054"/>
<path d="M256.928 304.622C256.928 304.622 256.09 314.052 261.748 318.453C261.748 318.453 273.379 312.375 279.107 302.457C284.835 292.537 256.928 304.622 256.928 304.622Z" fill="#F4AF92"/>
<path d="M301.74 274.917C301.74 274.917 304.983 277.545 305.001 279.803C305.022 282.06 299.643 281.012 299.643 281.012L301.74 274.917Z" fill="#F49592"/>
<path d="M142.191 264.596L139.891 252.021C139.891 252.021 134.018 252.021 125.435 259.984C125.435 259.984 125.225 264.296 122.283 269.684C122.283 269.684 112.395 274.451 107.805 280.942C103.215 287.434 101.479 288.087 96.69 284.405C95.4181 283.43 94.5554 280.124 94.1019 275.623C93.4273 268.82 93.6817 259.286 94.854 250.892C95.8273 243.969 97.431 237.831 99.6541 234.634C99.6541 234.634 99.4439 230.366 101.545 227.015C101.645 227.082 101.755 227.148 101.855 227.224C102.541 227.657 104.31 228.606 106.146 228.275C108.524 227.855 110.515 224.217 110.515 224.217C110.515 224.217 111.875 224.36 112.572 225.344C112.572 225.344 122.073 219.582 128.089 209.882C134.095 200.193 135.068 198.999 135.068 198.999C135.068 198.999 136.606 198.37 138.685 197.983C140.322 197.673 142.302 197.528 144.149 197.959C144.149 197.959 173.347 243.084 142.191 264.596Z" fill="#266EF1"/>
<path d="M204.369 201.587C204.369 201.587 200.73 196.152 200.732 183.503L172.397 169.677C172.397 169.677 173.822 179.436 169.019 187.898C167.751 190.133 161.835 193.666 161.835 193.666C161.835 193.666 187.727 225.601 200.16 222.536C212.594 219.471 210.101 205.933 210.101 205.933C210.101 205.933 207.999 206.758 204.369 201.587Z" fill="#FFA28F"/>
<path d="M165.4 191.356C165.4 191.356 179.913 205.344 192.406 206.129C195.187 206.304 199.847 206.335 201.915 203.254C203.728 200.551 202.53 196.896 202.128 195.802C202.652 195.992 203.175 196.183 203.698 196.374C204.71 197.694 210.538 205.478 207.9 210.877C204.695 217.436 190.842 216.767 182.763 213.359C172.577 209.062 162.83 192.373 162.83 192.373L165.4 191.356Z" fill="#E6E7E8"/>
<path d="M211.617 180.551C211.584 180.584 211.539 180.617 211.504 180.672C211.107 181.148 210.688 181.513 210.235 181.745C203.941 184.964 187.185 184.123 178.105 176.16C174.654 173.13 172.066 169.502 170.009 165.797C169.998 165.764 169.987 165.752 169.987 165.752C166.691 159.747 164.822 153.509 163.008 149.196C160.077 142.217 157.666 130.526 158.263 123.769C158.816 117.486 160.077 112.178 168.605 104.911C177.121 97.6447 198.08 97.2244 203.388 104.491C208.696 111.757 208.552 128.104 209.814 131.732C211.075 135.371 215.543 139.695 216.803 144.584C217.953 149.107 216.738 174.169 211.617 180.551Z" fill="#FFC39F"/>
<path d="M207.789 115.727C207.789 115.727 207.303 109.577 203.806 103.494C203.806 103.494 199.926 107.587 193.643 109.777C193.643 109.777 196.563 107.067 197.924 104.976C197.679 105.164 193.776 108.184 188.301 110.518C188.301 110.518 189.872 108.106 189.872 107.056C189.872 106.005 185.89 101.404 181.278 101.504C176.666 101.614 167.862 104.645 163.461 113.028C159.07 121.412 163.483 122.186 165.894 124.376C165.894 124.376 164.688 134.772 164.954 143.465C165.042 146.065 165.263 148.509 165.673 150.477C165.739 150.798 165.816 151.097 165.894 151.384L159.601 145.633C159.601 145.633 159.545 141.795 157.123 136.287C156.858 135.657 156.548 135.004 156.205 134.33L156.172 134.275C156.039 134.009 155.896 133.744 155.752 133.467C154.248 130.658 149.618 125.402 150.286 120.05C150.915 115.017 160.076 110.695 162.31 107.332C162.31 107.332 155.287 109.577 151.958 112.929C151.958 112.929 152.489 109.777 155.099 107.996C157.698 106.215 159.888 107.321 163.671 105.795C167.464 104.28 172.585 91.5496 178.657 86.7274C184.74 81.9052 198.676 82.8564 203.177 86.7274C204.338 87.7228 205.201 88.9284 205.843 90.1671H205.854V90.1781V90.1892C205.865 90.2113 205.876 90.2224 205.876 90.2445C207.734 93.8058 207.789 97.6215 207.789 97.6215C207.789 97.6215 210.41 108.361 207.789 115.727Z" fill="#280054"/>
<path d="M225.174 276.054C225.174 276.054 220.995 297.921 226.436 321.601C226.436 321.601 229.788 323.901 230.208 326.831C230.208 326.831 230.208 326.855 230.219 326.887C230.617 329.808 229.997 332.494 229.997 332.494C229.997 332.494 231.468 333.965 232.728 336.055C232.961 336.453 233.093 336.919 233.138 337.428C233.338 339.595 232.099 342.338 232.099 342.338C232.099 342.338 229.576 348.843 203.387 351.143C177.197 353.454 156.868 358.476 156.868 358.476C156.868 358.476 155.287 353.242 158.173 349.261C158.173 349.261 153.717 345.279 153.927 343.809C154.137 342.338 163.78 325.581 161.27 313.846C158.748 302.113 149.325 292.59 144.083 269.685C144.083 269.685 140.588 268.512 140.378 266.83C140.168 265.16 141.914 262.429 141.914 262.429L142.546 263.624C142.546 263.624 154.49 256.778 151.272 227.856C148.064 198.935 144.668 197.174 138.685 197.981C138.685 197.981 143.452 193.57 144.57 193.669C145.686 193.769 146.106 195.826 146.106 195.826C146.106 195.826 149.846 197.363 154.248 195.826C158.649 194.289 161.602 191.358 161.602 191.358C161.602 191.358 188.14 213.827 199.784 212.45C213.074 210.879 203.7 196.33 203.7 196.33C203.7 196.33 212.047 197.96 216.516 199.001C220.995 200.051 222.664 199.001 222.664 199.001C222.664 199.001 225.319 195.052 228.813 197.695C232.308 200.327 236.633 214.859 235.24 238.328C233.847 261.798 225.174 276.054 225.174 276.054Z" fill="#266EF1"/>
<path d="M179.838 134.774C179.838 134.774 179.13 136.923 179.496 138.862C179.864 140.8 186.839 142.691 190.15 139.755C193.459 136.819 179.838 134.774 179.838 134.774Z" fill="#E8798D"/>
<path d="M319.905 233.163C311.245 256.356 287.488 305.673 287.488 305.673C256.199 311.679 226.857 306.646 226.857 306.646L225.176 303.937C236.07 270.978 259.55 227.998 259.55 227.998C288.328 226.461 318.788 231.062 318.788 231.062L319.905 233.163Z" fill="#003074"/>
<path d="M307.747 259.776C307.747 259.776 310.023 261.583 310.472 263.06C310.961 264.666 311.59 268.706 306.909 269.976L304.812 270.534C304.812 270.534 306.35 271.232 306.629 272.281C306.909 273.328 305.163 275.633 302.369 276.193C299.574 276.751 294.895 275.633 293.497 274.375C292.101 273.118 293.008 271.371 295.104 270.883C295.104 270.883 292.029 270.192 292.168 268.058C292.309 265.923 299.365 263.618 306.84 264.316L307.747 259.776Z" fill="#F4AF92"/>
<path d="M204.369 136.851C204.369 136.851 205.499 138.653 207.999 138.126C210.501 137.598 210.268 133.256 209.813 131.736C209.36 130.217 204.408 135.445 204.369 136.851Z" fill="#E8798D"/>
<path d="M313.405 249.152C313.405 249.152 317.177 252.651 317.177 255.062C317.177 257.471 311.624 260.511 302.089 261.698C302.089 261.698 301.198 259.847 302.089 257.856C302.98 255.865 307.748 253.07 311.676 252.442L313.405 249.152Z" fill="#F4AF92"/>
<path d="M302.418 277.589C302.418 277.589 295.942 276.961 296.5 282.877C296.5 282.877 300.125 283.387 302.778 282.618C305.434 281.851 305.083 279.825 304.874 279.127C304.664 278.428 304.432 277.869 302.418 277.589Z" fill="#F4AF92"/>
<path d="M172.687 130.479C172.687 130.479 173.211 127.103 176.51 123.686C178.885 121.226 183.475 118.744 186.691 117.486C186.691 117.486 187.18 118.534 187.18 120.49C187.18 120.49 187.704 118.639 188.159 116.893C188.159 116.893 188.874 118.639 188.664 122.044C188.664 122.044 185.849 123.036 181.225 124.297C175.463 125.869 172.687 130.479 172.687 130.479Z" fill="#280054"/>
<path d="M203.701 134.774C203.701 134.774 203.7 125.939 206.267 125.449C208.417 125.039 209.428 130.032 209.428 130.032L203.701 134.774Z" fill="#77475E"/>
<path d="M179.496 137.289C179.496 137.289 179.409 131.084 184.491 128.883C189.573 126.683 191.335 133.817 191.335 133.817L179.496 137.289Z" fill="#77475E"/>
<path d="M191.863 137.284C191.718 138.578 189.971 140.889 186.199 140.889C182.849 140.889 179.487 139.208 179.496 137.284C179.496 136.609 179.673 135.879 179.984 135.138C180.659 133.512 182.018 131.898 183.677 130.935C184.783 130.283 186.033 129.929 187.317 130.062C191.376 130.482 191.994 136.001 191.863 137.284Z" fill="#F0F1F1"/>
<path d="M209.881 132.894C209.936 135.77 208.686 137.96 206.495 137.916C205.577 137.893 205.013 137.639 204.614 137.197C204.282 136.821 204.084 136.301 203.917 135.67C203.84 135.394 203.764 135.095 203.697 134.774C203.697 134.774 203.928 132.065 204.648 129.853C204.814 129.366 204.99 128.913 205.19 128.526C205.543 127.829 205.976 127.309 206.495 127.132C208.198 126.513 209.836 130.008 209.881 132.894Z" fill="#F0F1F1"/>
<path d="M188.7 135.249C188.7 137.66 186.753 139.607 184.342 139.607C181.931 139.607 179.973 137.66 179.973 135.249C179.973 135.216 179.973 135.171 179.984 135.138C180.659 133.512 182.019 131.898 183.678 130.935C183.888 130.902 184.121 130.88 184.342 130.88C186.753 130.88 188.7 132.838 188.7 135.249Z" fill="#891FFF"/>
<path d="M187.36 135.247C187.36 136.917 186.006 138.269 184.337 138.269C182.669 138.269 181.315 136.917 181.315 135.247C181.315 133.578 182.669 132.224 184.337 132.224C186.006 132.224 187.36 133.578 187.36 135.247Z" fill="#625285"/>
<path d="M207.999 132.882C207.999 135.293 206.671 137.24 205.033 137.24C204.889 137.24 204.748 137.229 204.614 137.195C204.283 136.819 204.084 136.3 203.918 135.669C203.84 135.393 203.762 135.094 203.695 134.773C203.695 134.773 203.927 132.064 204.647 129.852C204.813 129.365 204.99 128.911 205.19 128.524C206.761 128.646 207.999 130.548 207.999 132.882Z" fill="#891FFF"/>
<path d="M206.771 132.882C206.771 134.552 205.853 135.901 204.713 135.901C204.437 135.901 204.16 135.813 203.917 135.669C203.84 135.393 203.762 135.094 203.696 134.773C203.696 134.773 203.928 132.064 204.647 129.852H204.713C205.853 129.852 206.771 131.212 206.771 132.882Z" fill="#625285"/>
<path d="M204.751 117.42C204.751 117.42 202.41 129.85 203.701 136.207C203.701 136.207 202.946 126.65 205.847 119.84L204.751 117.42Z" fill="#E8798D"/>
<path d="M204.295 122.096C204.295 122.096 204.574 117.906 205.202 114.343L205.621 115.811L206.84 112.746C206.84 112.746 209.988 114.657 208.061 118.767C208.061 118.767 206.042 118.534 204.295 122.096Z" fill="#280054"/>
<path d="M192.105 152.517C192.105 152.517 192.367 155.357 197.607 156.964C202.845 158.57 207.321 157.582 208.95 155.766C208.95 155.766 207.264 157.79 204.19 158.349C201.116 158.909 196.464 158.184 194.27 156.499C191.86 154.647 191.372 153.007 191.372 153.007L192.105 152.517Z" fill="#FF849B"/>
<path d="M189.834 153.72C189.834 153.72 192.384 152.412 194.654 152.028C194.654 152.028 192.244 151.575 191.126 151.854C190.009 152.133 189.834 153.72 189.834 153.72Z" fill="#E27D7E"/>
<path d="M267.541 308.194C267.541 308.194 265.766 316.672 266.534 317.197C267.302 317.72 271.389 307.895 271.389 307.895L267.541 308.194Z" fill="#414042"/>
<path d="M165.235 150.98C165.235 150.98 158.313 144.083 154.175 147.985C149.265 152.615 152.737 162.816 158.168 167.221C162.888 171.049 167.971 170.033 169.018 165.475C169.018 165.475 170.458 155.184 165.235 150.98Z" fill="#FFC39F"/>
<path d="M165.058 157.473C165.058 157.473 160.982 152.694 157.62 153.923C154.257 155.151 155.223 160.511 155.223 160.511C155.223 160.511 155.264 156.59 157.445 156.002C159.626 155.416 160.965 158.236 160.965 158.236C160.965 158.236 159.797 158.333 159.837 161.637C159.878 164.941 163.737 168.014 165.267 165.682C166.797 163.349 165.058 157.473 165.058 157.473Z" fill="#FFA28F"/>
<path d="M189.345 135.508C189.345 135.914 189.017 136.242 188.611 136.242C188.206 136.242 187.878 135.914 187.878 135.508C187.878 135.103 188.206 134.776 188.611 134.776C189.017 134.776 189.345 135.103 189.345 135.508Z" fill="white"/>
<path d="M208.95 132.963C208.95 133.371 208.62 133.702 208.212 133.702C207.804 133.702 207.473 133.371 207.473 132.963C207.473 132.555 207.804 132.224 208.212 132.224C208.62 132.224 208.95 132.555 208.95 132.963Z" fill="white"/>
<path d="M319.905 233.163C277.567 227.711 260.358 230.233 260.358 230.233C245.212 256.164 226.857 306.646 226.857 306.646L225.176 303.937C236.07 270.978 259.55 227.998 259.55 227.998C288.328 226.461 318.788 231.062 318.788 231.062L319.905 233.163Z" fill="#2E006A"/>
<path d="M161.746 201.212C161.768 201.3 161.801 201.378 161.834 201.466C161.79 201.344 161.757 201.255 161.746 201.212ZM161.746 201.466H161.834V201.212H161.746V201.466ZM-86.0013 -39.0013H467.001V514.001H-86.0013V-39.0013ZM-86.0013 514.001H467.001V-39.0013H-86.0013V514.001ZM161.746 201.466V201.212H161.834V201.466H161.746Z" fill="#7F7F7F"/>
<path d="M203.122 104.151C203.371 103.926 203.621 103.674 203.866 103.392C205.109 101.958 205.656 100.388 205.912 99.2485C205.887 100.182 205.936 101.312 206.164 102.574C206.527 104.575 207.207 106.165 207.797 107.274C208.078 111.169 207.969 113.169 207.47 113.273C207.303 113.307 207.094 113.131 206.84 112.746C205.6 109.882 204.362 107.016 203.122 104.151Z" fill="#110035"/>
<path d="M241.802 490.912L241.251 490.857C241.28 490.567 244.593 461.633 279.802 451.144C299.064 445.405 311.874 432.054 314.944 414.517C317.979 397.174 310.661 379.118 296.302 368.514C268.222 347.778 266.275 317.515 266.258 317.211L266.81 317.181C266.827 317.482 268.768 347.493 296.63 368.069C311.156 378.797 318.559 397.066 315.489 414.613C312.381 432.364 299.43 445.872 279.96 451.673C245.101 462.059 241.831 490.625 241.802 490.912Z" fill="#D1D2D3"/>
<path d="M201.85 139.607C197.52 140.213 195.214 145.986 195.214 145.986L203.386 147.383C207.088 147.174 209.884 145.079 209.884 145.079C209.884 145.079 206.181 139 201.85 139.607Z" fill="#FFB59E"/>
<path d="M195.214 145.986C195.214 145.986 198.846 145.986 202.199 146.195C205.553 146.405 208.63 145.986 209.885 145.078C209.885 145.078 210.092 148.99 205.9 151.364C205.9 151.364 204.223 151.993 202.477 151.364C202.477 151.364 200.871 149.618 197.867 149.06C197.867 149.06 195.075 148.221 195.214 145.986Z" fill="#FFA28F"/>
<path d="M195.959 127.132C193.837 124.31 179.082 126.976 174.942 131.557C170.803 136.138 176.109 145.204 182.675 146.5C190.354 148.014 193.956 145.532 196.087 142.289C198.334 138.865 197.88 129.683 195.959 127.132ZM195.862 140.709C194.136 145.482 187.782 147.091 182.433 145.67C179.136 144.794 173.513 139.677 174.771 133.914C176.028 128.152 193.094 125.665 195.174 127.862C196.853 129.635 197.587 135.938 195.862 140.709Z" fill="#20295B"/>
<path d="M214.184 125.683C212.927 123.611 205.749 124.402 203.959 125.683C202.798 126.515 203.429 136.568 206.611 140.795C208.621 143.464 211.475 142.833 212.333 142.228C214.708 140.551 215.442 127.755 214.184 125.683ZM213.172 139.399C212.188 142.125 209.749 142.759 207.357 140.543C205.207 138.551 203.307 128.796 204.702 126.683C205.867 124.918 211.727 124.382 213.403 126.232C215.08 128.081 214.315 136.231 213.172 139.399Z" fill="#18395F"/>
<path d="M196.676 128.556C196.676 128.556 199.897 126.151 203.878 127.874C203.878 127.874 203.799 127.021 204.054 126.415C204.054 126.415 201.22 125.571 195.739 126.897C195.739 126.897 196.487 128.05 196.676 128.556Z" fill="#20295B"/>
<path d="M173.755 132.745L169.988 133.961L157.716 147.063C157.716 147.063 158.133 146.944 159.233 147.353L170.229 135.721C170.229 135.721 172.04 134.769 173.318 135.033C173.318 135.033 173.266 133.522 173.755 132.745Z" fill="#20295B"/>
<path d="M104.881 233.174L100.48 234.642C100.48 234.642 69.9534 237.646 73.3068 253.014C76.6591 268.382 89.5131 284.308 100.689 285.006C100.689 285.006 110.748 281.095 111.308 260.418C111.867 239.742 104.881 233.174 104.881 233.174Z" fill="#FFC39F"/>
<path d="M77 195.257C77 195.257 83.5948 187.672 84.4 184.626C85.204 181.581 83.3007 174.523 83.9112 166.246C84.5218 157.968 87.6393 152.168 87.6886 151.183C87.7382 150.195 82.827 149.099 80.6839 152.81C78.5407 156.521 79.213 164.052 78.2615 165.292C77.3103 166.53 75.2121 168.541 75.2121 168.541C74.5659 166.715 70.5867 157.618 68.3657 154.688C68.3657 154.688 67.0465 151.803 65.5208 148.425C63.9953 145.047 58.7983 130.207 54.2952 127.223C52.8241 127.448 50.5692 125.674 51.9879 133.678C53.4066 141.682 54.6927 140.321 57.883 146.906C59.5962 150.443 61.7993 156.791 61.1755 158.003C60.5514 159.216 60.7284 155.761 52.0347 145.152C47.9795 140.202 40.5647 130.01 39.5987 130.036C38.6336 130.063 37.0797 131.469 36.9666 133.155C36.8523 134.841 39.364 142.798 44.7711 146.836C44.7711 146.836 51.0133 153.173 53.5204 160.596C53.5204 160.596 51.3367 163.053 50.1853 162.937C49.0328 162.82 43.3915 157.242 38.6477 154.187C33.9038 151.131 29.4326 148.876 28.5497 149.025C27.6669 149.174 27.6158 151.086 27.8906 152.421C28.1648 153.754 32.0959 158.252 36.8964 160.465C36.8964 160.465 43.8263 164.906 45.6954 168.47C45.6954 168.47 44.7884 171.495 43.8655 171.85C42.9427 172.205 36.9508 170.082 33.2449 168.83C29.5382 167.577 25.0084 167.336 24.3885 167.75C23.7674 168.163 23.8395 169.992 26.7056 171.723C29.5717 173.453 33.4149 173.452 34.0116 173.675C34.6094 173.898 45.1423 179.57 46.32 180.653C47.4968 181.736 51.6633 191.638 55.3614 195.131C59.0594 198.624 65.388 198.442 65.388 198.442C65.388 198.442 77.8471 224.992 77 195.257Z" fill="#FFC39F"/>
<path d="M101.555 235.123C98.2388 232.557 94.6088 229.261 91.1122 225.063C81.2969 213.279 76.6375 194.237 76.3725 193.207C76.1064 192.177 65.2529 196.357 65.1648 198.373C65.0768 200.39 67.3096 210.33 68.6677 219.285C71.8903 240.528 72.3838 245.224 73.6063 252.29C76.2849 267.79 88.4318 284.262 99.5668 285.448C101.341 283.866 110.434 275.434 111.248 261.347C112.107 246.477 103.082 236.719 101.555 235.123Z" fill="#FFC39F"/>
<path d="M310.443 75.5457C310.443 75.5457 303.216 79.2585 298.657 88.3764C295.474 94.7453 295.743 105.179 295.743 105.179C295.743 105.179 295.738 140.637 314.663 167.292L318.866 160.463L362.806 158.846L367.858 152.619L310.443 75.5457Z" fill="#8120E8"/>
<path d="M315.257 167.554C315.257 167.554 301.672 126.475 302.669 85.3985C302.669 85.3985 310.599 70.9486 327.385 68.4004C342.629 66.086 358.187 71.7449 364.848 83.7212C364.848 83.7212 369.923 91.4057 370.761 113.761C371.72 139.314 368.45 152.883 368.45 152.883C368.45 152.883 342.787 163.667 323.509 154.141L315.257 167.554Z" fill="#9277E8"/>
<path d="M360.449 476.207C360.674 473.149 358.225 470.566 355.695 468.836C353.164 467.106 350.253 465.674 348.627 463.075C345.995 458.865 347.363 452.547 343.587 449.32C341.368 447.421 337.975 447.267 335.932 445.179C334.86 444.085 334.309 442.598 333.709 441.189C330.654 433.995 325.626 427.65 319.32 423.034C320.163 429.781 322.865 436.285 327.05 441.645C328.732 443.8 330.688 445.841 331.585 448.424C333.039 452.616 331.438 457.499 333.266 461.542C335.357 466.168 341.387 468.424 342.55 473.365C343.533 477.542 340.529 481.91 341.569 486.074C342.01 487.846 343.145 489.362 344.352 490.734C348.595 495.563 354.06 498.428 361.299 496.99L370.248 495.687L360.449 476.207Z" fill="#93FFC9"/>
<path d="M360.449 476.207C360.674 473.149 358.225 470.566 355.695 468.836C353.164 467.106 350.253 465.674 348.627 463.075C345.995 458.865 347.363 452.547 343.587 449.32C341.368 447.421 337.975 447.267 335.932 445.179C334.86 444.085 334.309 442.598 333.709 441.189C330.654 433.995 325.626 427.65 319.32 423.034C320.163 429.781 322.865 436.285 327.05 441.645C328.732 443.8 330.688 445.841 331.585 448.424C333.039 452.616 331.438 457.499 333.266 461.542C335.357 466.168 341.387 468.424 342.55 473.365C343.533 477.542 340.529 481.91 341.569 486.074C342.01 487.846 343.145 489.362 344.352 490.734C348.595 495.563 354.06 498.428 361.299 496.99L370.248 495.687L360.449 476.207Z" stroke="#015568" stroke-width="0.25" stroke-miterlimit="10"/>
<path d="M378.927 498.452C378.927 498.452 379.141 498.436 379.558 498.435C379.973 498.406 380.594 498.361 381.388 498.183C382.182 498.015 383.155 497.745 384.249 497.282C385.335 496.816 386.567 496.167 387.706 495.144C388.25 494.616 388.778 493.978 389.03 493.187C389.284 492.392 389.3 491.477 389.309 490.546C389.311 489.608 389.262 488.616 389.38 487.583C389.487 486.544 389.85 485.496 390.377 484.518C391.386 482.549 393.033 480.727 393.457 478.28C393.941 475.855 393.396 473.226 392.85 470.525C392.31 467.843 391.746 464.812 392.692 461.825C393.57 458.872 395.435 456.228 396.247 453.118C397.065 449.993 396.473 446.604 396.53 443.113C396.549 441.367 396.821 439.543 397.53 437.865C398.215 436.185 399.166 434.631 399.863 432.965C401.272 429.619 401.402 425.813 401.68 422.002C401.815 420.088 401.949 418.155 402.087 416.201C402.218 414.264 402.317 412.24 402.866 410.291C403.354 408.334 404.096 406.442 404.814 404.553C405.164 403.609 405.532 402.655 405.713 401.696C405.833 400.74 405.852 399.682 405.869 398.673C405.886 396.628 405.719 394.576 405.381 392.527C405.055 390.477 404.594 388.422 404.282 386.319C404.263 386.193 404.244 386.07 404.227 385.956L404.649 386.168C402.843 387.166 401.315 388.604 400.151 390.29C398.966 391.963 398.12 393.848 397.459 395.767C396.131 399.628 395.75 403.673 395.141 407.607C394.548 411.532 393.711 415.463 391.794 418.862C390.841 420.552 389.698 422.07 388.729 423.652C387.76 425.223 386.953 426.895 386.762 428.664C386.364 432.236 388.588 435.528 388.299 439.149C388.201 440.934 387.558 442.599 386.774 444.096C385.991 445.603 385.07 446.985 384.21 448.357C383.351 449.728 382.547 451.101 381.979 452.537C381.401 453.969 381.11 455.466 381.067 456.957C380.958 459.941 381.494 462.823 381.369 465.616C381.281 468.427 380.387 470.992 379.368 473.262C378.344 475.542 377.197 477.592 376.25 479.565C375.772 480.548 375.333 481.513 374.987 482.46C374.62 483.4 374.454 484.364 374.301 485.28C374.069 487.13 374.149 488.852 374.392 490.365C374.869 493.409 376.063 495.575 377.108 496.794C378.164 498.022 378.964 498.405 378.927 498.452C378.927 498.452 378.742 498.345 378.395 498.11C378.22 497.997 378.004 497.851 377.782 497.631C377.556 497.419 377.271 497.194 377.019 496.87C375.933 495.659 374.688 493.478 374.171 490.401C373.908 488.873 373.809 487.129 374.029 485.244C374.177 484.311 374.337 483.327 374.707 482.359C375.053 481.39 375.487 480.42 375.959 479.426C376.898 477.437 378.032 475.379 379.035 473.113C380.03 470.856 380.89 468.341 380.963 465.601C381.076 462.865 380.526 459.993 380.623 456.939C380.661 455.416 380.957 453.848 381.55 452.368C382.132 450.885 382.946 449.487 383.806 448.104C384.666 446.722 385.575 445.346 386.336 443.87C387.1 442.402 387.706 440.804 387.795 439.117C388.096 435.716 385.856 432.446 386.235 428.605C386.435 426.717 387.285 424.968 388.268 423.369C389.252 421.758 390.389 420.241 391.314 418.594C393.172 415.288 393.998 411.431 394.583 407.521C395.187 403.611 395.566 399.523 396.916 395.583C397.59 393.625 398.455 391.692 399.68 389.959C400.883 388.217 402.481 386.708 404.374 385.662L404.734 385.463L404.797 385.874C404.814 385.986 404.833 386.109 404.851 386.232C405.16 388.311 405.62 390.361 405.949 392.436C406.29 394.508 406.46 396.602 406.443 398.676C406.42 399.724 406.41 400.722 406.277 401.794C406.075 402.844 405.7 403.799 405.347 404.753C404.624 406.651 403.893 408.516 403.414 410.429C402.875 412.334 402.779 414.285 402.643 416.246C402.503 418.197 402.366 420.129 402.228 422.042C401.943 425.837 401.817 429.705 400.351 433.171C399.628 434.885 398.676 436.433 398.01 438.061C397.324 439.68 397.062 441.405 397.036 443.124C396.966 446.544 397.565 449.982 396.71 453.238C395.848 456.461 393.972 459.09 393.117 461.954C392.195 464.818 392.721 467.754 393.25 470.447C393.78 473.145 394.332 475.828 393.816 478.351C393.347 480.913 391.651 482.755 390.662 484.668C390.14 485.624 389.789 486.617 389.677 487.618C389.555 488.618 389.594 489.601 389.584 490.547C389.565 491.493 389.545 492.414 389.268 493.263C388.986 494.113 388.425 494.77 387.858 495.308C386.674 496.347 385.42 496.984 384.314 497.44C383.202 497.891 382.214 498.146 381.41 498.297C379.795 498.617 378.927 498.452 378.927 498.452Z" fill="#F0F1F1"/>
<path d="M378.927 498.452C378.927 498.452 379.141 498.436 379.558 498.435C379.973 498.406 380.594 498.361 381.388 498.183C382.182 498.015 383.155 497.745 384.249 497.282C385.335 496.816 386.567 496.167 387.706 495.144C388.25 494.616 388.778 493.978 389.03 493.187C389.284 492.392 389.3 491.477 389.309 490.546C389.311 489.608 389.262 488.616 389.38 487.583C389.487 486.544 389.85 485.496 390.377 484.518C391.386 482.549 393.033 480.727 393.457 478.28C393.941 475.855 393.396 473.226 392.85 470.525C392.31 467.843 391.746 464.812 392.692 461.825C393.57 458.872 395.435 456.228 396.247 453.118C397.065 449.993 396.473 446.604 396.53 443.113C396.549 441.367 396.821 439.543 397.53 437.865C398.215 436.185 399.166 434.631 399.863 432.965C401.272 429.619 401.402 425.813 401.68 422.002C401.815 420.088 401.949 418.155 402.087 416.201C402.218 414.264 402.317 412.24 402.866 410.291C403.354 408.334 404.096 406.442 404.814 404.553C405.164 403.609 405.532 402.655 405.713 401.696C405.833 400.74 405.852 399.682 405.869 398.673C405.886 396.628 405.719 394.576 405.381 392.527C405.055 390.477 404.594 388.422 404.282 386.319C404.263 386.193 404.244 386.07 404.227 385.956L404.649 386.168C402.843 387.166 401.315 388.604 400.151 390.29C398.966 391.963 398.12 393.848 397.459 395.767C396.131 399.628 395.75 403.673 395.141 407.607C394.548 411.532 393.711 415.463 391.794 418.862C390.841 420.552 389.698 422.07 388.729 423.652C387.76 425.223 386.953 426.895 386.762 428.664C386.364 432.236 388.588 435.528 388.299 439.149C388.201 440.934 387.558 442.599 386.774 444.096C385.991 445.603 385.07 446.985 384.21 448.357C383.351 449.728 382.547 451.101 381.979 452.537C381.401 453.969 381.11 455.466 381.067 456.957C380.958 459.941 381.494 462.823 381.369 465.616C381.281 468.427 380.387 470.992 379.368 473.262C378.344 475.542 377.197 477.592 376.25 479.565C375.772 480.548 375.333 481.513 374.987 482.46C374.62 483.4 374.454 484.364 374.301 485.28C374.069 487.13 374.149 488.852 374.392 490.365C374.869 493.409 376.063 495.575 377.108 496.794C378.164 498.022 378.964 498.405 378.927 498.452ZM378.927 498.452C378.927 498.452 378.742 498.345 378.395 498.11C378.22 497.997 378.004 497.851 377.782 497.631C377.556 497.419 377.271 497.194 377.019 496.87C375.933 495.659 374.688 493.478 374.171 490.401C373.908 488.873 373.809 487.129 374.029 485.244C374.177 484.311 374.337 483.327 374.707 482.359C375.053 481.39 375.487 480.42 375.959 479.426C376.898 477.437 378.032 475.379 379.035 473.113C380.03 470.856 380.89 468.341 380.963 465.601C381.076 462.865 380.526 459.993 380.623 456.939C380.661 455.416 380.957 453.848 381.55 452.368C382.132 450.885 382.946 449.487 383.806 448.104C384.666 446.722 385.575 445.346 386.336 443.87C387.1 442.402 387.706 440.804 387.795 439.117C388.096 435.716 385.856 432.446 386.235 428.605C386.435 426.717 387.285 424.968 388.268 423.369C389.252 421.758 390.389 420.241 391.314 418.594C393.172 415.288 393.998 411.431 394.583 407.521C395.187 403.611 395.566 399.523 396.916 395.583C397.59 393.625 398.455 391.692 399.68 389.959C400.883 388.217 402.481 386.708 404.374 385.662L404.734 385.463L404.797 385.874C404.814 385.986 404.833 386.109 404.851 386.232C405.16 388.311 405.62 390.361 405.949 392.436C406.29 394.508 406.46 396.602 406.443 398.676C406.42 399.724 406.41 400.722 406.277 401.794C406.075 402.844 405.7 403.799 405.347 404.753C404.624 406.651 403.893 408.516 403.414 410.429C402.875 412.334 402.779 414.285 402.643 416.246C402.503 418.197 402.366 420.129 402.228 422.042C401.943 425.837 401.817 429.705 400.351 433.171C399.628 434.885 398.676 436.433 398.01 438.061C397.324 439.68 397.062 441.405 397.036 443.124C396.966 446.544 397.565 449.982 396.71 453.238C395.848 456.461 393.972 459.09 393.117 461.954C392.195 464.818 392.721 467.754 393.25 470.447C393.78 473.145 394.332 475.828 393.816 478.351C393.347 480.913 391.651 482.755 390.662 484.668C390.14 485.624 389.789 486.617 389.677 487.618C389.556 488.618 389.594 489.601 389.584 490.547C389.565 491.493 389.545 492.414 389.268 493.263C388.986 494.113 388.425 494.77 387.858 495.308C386.674 496.347 385.42 496.984 384.314 497.44C383.202 497.891 382.214 498.146 381.41 498.297C379.795 498.617 378.927 498.452 378.927 498.452Z" stroke="#015568" stroke-width="0.25" stroke-miterlimit="10"/>
<path d="M403.154 390.92C403.164 390.922 403.157 391.019 403.136 391.207C403.106 391.427 403.07 391.7 403.027 392.037C402.914 392.766 402.784 393.837 402.527 395.223C402.25 396.62 401.52 398.183 400.93 400.068C400.309 401.949 399.689 404.12 399.135 406.551C398.572 408.981 398.094 411.671 397.593 414.567C397.075 417.441 396.542 420.628 395.073 423.638C394.392 425.15 393.631 426.661 393.057 428.27C392.469 429.871 392.189 431.597 392.011 433.377C391.73 436.954 391.217 440.679 390.511 444.424C388.982 451.901 387.526 459.021 386.202 465.503C384.806 471.954 383.55 477.768 382.49 482.668C381.42 487.515 380.551 491.453 379.938 494.229C379.633 495.557 379.392 496.605 379.216 497.367C379.133 497.696 379.067 497.964 379.014 498.18C378.966 498.362 378.935 498.455 378.926 498.452C378.917 498.45 378.926 498.353 378.957 498.167C378.996 497.948 379.043 497.677 379.103 497.342C379.252 496.575 379.458 495.519 379.719 494.182C380.289 491.397 381.096 487.446 382.092 482.584C383.116 477.676 384.332 471.854 385.683 465.393C386.993 458.912 388.432 451.795 389.944 444.322C390.651 440.571 391.16 436.913 391.449 433.318C391.632 431.526 391.926 429.737 392.538 428.084C393.135 426.434 393.908 424.916 394.588 423.419C396.047 420.463 396.58 417.369 397.123 414.483C397.644 411.592 398.147 408.893 398.737 406.457C399.32 404.021 399.972 401.846 400.625 399.966C401.25 398.072 402.008 396.525 402.309 395.173C402.594 393.819 402.763 392.736 402.911 392.017C402.979 391.685 403.034 391.414 403.078 391.197C403.118 391.012 403.144 390.919 403.154 390.92Z" fill="#F0F1F1"/>
<path d="M403.154 390.92C403.164 390.922 403.157 391.019 403.136 391.207C403.106 391.427 403.07 391.7 403.027 392.037C402.914 392.766 402.784 393.837 402.527 395.223C402.25 396.62 401.52 398.183 400.93 400.068C400.309 401.949 399.689 404.12 399.135 406.551C398.572 408.981 398.094 411.671 397.593 414.567C397.075 417.441 396.542 420.628 395.073 423.638C394.392 425.15 393.631 426.661 393.057 428.27C392.469 429.871 392.189 431.597 392.011 433.377C391.73 436.954 391.217 440.679 390.511 444.424C388.982 451.901 387.526 459.021 386.202 465.503C384.806 471.954 383.55 477.768 382.49 482.668C381.42 487.515 380.551 491.453 379.938 494.229C379.633 495.557 379.392 496.605 379.216 497.367C379.133 497.696 379.067 497.964 379.014 498.18C378.966 498.362 378.935 498.455 378.926 498.452C378.917 498.45 378.926 498.353 378.957 498.167C378.996 497.948 379.043 497.677 379.103 497.342C379.252 496.575 379.458 495.519 379.719 494.182C380.289 491.397 381.096 487.446 382.092 482.584C383.116 477.676 384.332 471.854 385.683 465.393C386.993 458.912 388.432 451.795 389.944 444.322C390.651 440.571 391.16 436.913 391.449 433.318C391.632 431.526 391.926 429.737 392.538 428.084C393.135 426.434 393.908 424.916 394.588 423.419C396.047 420.463 396.58 417.369 397.123 414.483C397.644 411.592 398.147 408.894 398.737 406.457C399.32 404.021 399.972 401.846 400.625 399.966C401.25 398.072 402.008 396.525 402.309 395.173C402.594 393.819 402.763 392.736 402.911 392.017C402.979 391.685 403.034 391.414 403.078 391.197C403.118 391.012 403.144 390.919 403.154 390.92Z" stroke="#015568" stroke-width="0.25" stroke-miterlimit="10"/>
<path d="M377.228 498.799C383.285 495.565 385.464 485.004 383.298 478.488C381.133 471.972 377.097 465.923 376.746 459.065C376.477 453.793 378.441 448.487 377.453 443.301C376.122 436.302 369.609 430.631 370.012 423.517C370.24 419.526 372.685 415.873 372.687 411.876C372.689 406.973 369.111 402.919 366.983 398.503C363.726 391.742 363.849 383.931 362.971 376.479C362.093 369.024 359.637 360.975 353.249 357.039C351.991 363.274 350.143 367.499 350.272 376.031C350.319 379.096 353.598 385.105 353.774 391.825C353.879 395.84 353.895 399.858 353.956 403.874C354.016 407.782 354.087 411.763 355.317 415.473C356.259 418.317 357.862 420.935 358.524 423.855C359.771 429.351 357.537 435.142 358.492 440.696C359.301 445.401 362.342 449.557 362.784 454.312C363.405 460.992 358.792 467.691 360.702 474.122C361.648 477.314 364.117 479.957 364.702 483.234C365.154 485.778 364.412 488.414 364.812 490.965C365.455 495.077 373.081 498.598 377.241 498.537" fill="#BEFFE3"/>
<path d="M377.228 498.799C383.285 495.565 385.464 485.004 383.298 478.488C381.133 471.972 377.097 465.923 376.746 459.065C376.477 453.793 378.441 448.487 377.453 443.301C376.122 436.302 369.609 430.631 370.012 423.517C370.24 419.526 372.685 415.873 372.687 411.876C372.689 406.973 369.111 402.919 366.983 398.503C363.726 391.742 363.849 383.931 362.971 376.479C362.093 369.024 359.637 360.975 353.249 357.039C351.991 363.274 350.143 367.499 350.272 376.031C350.319 379.096 353.598 385.105 353.774 391.825C353.879 395.84 353.895 399.858 353.956 403.874C354.016 407.782 354.087 411.763 355.317 415.473C356.259 418.317 357.862 420.935 358.524 423.855C359.771 429.351 357.537 435.142 358.492 440.696C359.301 445.401 362.342 449.557 362.784 454.312C363.405 460.992 358.792 467.691 360.702 474.122C361.648 477.314 364.117 479.957 364.702 483.234C365.154 485.778 364.412 488.414 364.812 490.965C365.455 495.077 373.081 498.598 377.241 498.537" stroke="#015568" stroke-width="0.25" stroke-miterlimit="10"/>
<path d="M354.589 363.347C354.599 363.347 354.622 363.464 354.656 363.696C354.694 363.961 354.74 364.301 354.799 364.728C354.93 365.632 355.059 366.986 355.317 368.692C355.593 370.396 356.425 372.37 357.066 374.762C357.743 377.143 358.398 379.888 358.949 382.953C359.511 386.016 359.946 389.401 360.391 393.026C360.863 396.644 361.31 400.536 362.918 404.314C363.659 406.221 364.513 408.158 365.136 410.243C365.781 412.329 366.021 414.565 366.124 416.8C366.234 421.281 366.614 425.868 367.231 430.571C368.595 439.956 369.892 448.896 371.073 457.032C372.308 465.151 373.421 472.464 374.359 478.622C375.269 484.741 376.009 489.707 376.526 493.185C376.763 494.875 376.952 496.204 377.085 497.149C377.139 497.577 377.182 497.917 377.216 498.181C377.242 498.414 377.251 498.535 377.241 498.537C377.231 498.538 377.204 498.421 377.158 498.19C377.111 497.928 377.048 497.591 376.97 497.166C376.811 496.225 376.588 494.904 376.303 493.219C375.743 489.748 374.943 484.792 373.956 478.683C372.984 472.531 371.83 465.224 370.548 457.114C369.352 448.975 368.039 440.033 366.659 430.645C366.042 425.945 365.661 421.292 365.56 416.828C365.461 414.604 365.232 412.434 364.609 410.4C364.005 408.356 363.163 406.429 362.422 404.506C360.808 400.673 360.365 396.691 359.917 393.085C359.492 389.455 359.082 386.078 358.547 383.023C358.025 379.966 357.401 377.227 356.755 374.849C356.15 372.466 355.348 370.476 355.097 368.729C354.87 366.993 354.778 365.654 354.683 364.741C354.649 364.31 354.62 363.969 354.597 363.703C354.582 363.469 354.579 363.349 354.589 363.347Z" fill="#BEFFE3"/>
<path d="M354.589 363.347C354.599 363.347 354.622 363.464 354.656 363.696C354.694 363.961 354.74 364.301 354.799 364.728C354.93 365.632 355.059 366.986 355.317 368.692C355.593 370.396 356.425 372.37 357.066 374.762C357.743 377.143 358.398 379.888 358.949 382.953C359.511 386.016 359.946 389.401 360.391 393.026C360.863 396.644 361.31 400.536 362.918 404.314C363.659 406.221 364.513 408.158 365.136 410.243C365.781 412.329 366.021 414.565 366.124 416.8C366.234 421.281 366.614 425.868 367.231 430.571C368.595 439.956 369.892 448.896 371.073 457.032C372.308 465.151 373.421 472.464 374.359 478.622C375.269 484.741 376.009 489.707 376.526 493.185C376.763 494.875 376.952 496.204 377.085 497.149C377.139 497.577 377.182 497.917 377.216 498.181C377.242 498.414 377.251 498.535 377.241 498.537C377.231 498.538 377.204 498.421 377.158 498.19C377.111 497.928 377.048 497.591 376.97 497.166C376.811 496.225 376.588 494.904 376.303 493.219C375.743 489.748 374.943 484.792 373.956 478.683C372.984 472.531 371.83 465.224 370.548 457.114C369.352 448.975 368.039 440.033 366.659 430.645C366.042 425.945 365.661 421.292 365.56 416.828C365.461 414.604 365.232 412.434 364.609 410.4C364.005 408.356 363.163 406.429 362.422 404.506C360.808 400.673 360.365 396.691 359.917 393.085C359.492 389.455 359.082 386.078 358.547 383.023C358.025 379.966 357.401 377.227 356.755 374.849C356.15 372.466 355.348 370.476 355.097 368.729C354.87 366.993 354.778 365.654 354.683 364.741C354.649 364.31 354.62 363.969 354.597 363.703C354.582 363.469 354.579 363.349 354.589 363.347Z" stroke="#015568" stroke-width="0.25" stroke-miterlimit="10"/>
<path d="M353.07 108.977C353.289 110.136 353.398 112.057 353.398 114.741C353.398 115.942 353.362 117.846 353.289 120.456C353.247 121.865 353.164 122.851 353.039 123.409C352.914 123.968 352.699 124.551 352.396 125.156C352.072 124.54 351.838 123.824 351.692 123.01C351.462 121.736 351.347 119.653 351.347 116.761C351.347 115.477 351.394 113.718 351.488 111.483C351.551 110.063 351.65 109.08 351.786 108.532C351.922 107.983 352.124 107.48 352.396 107.02C352.699 107.552 352.924 108.204 353.07 108.977ZM349.186 126.016C349.958 128.021 351.05 129.024 352.459 129.024C353.461 129.024 354.333 128.392 355.074 127.129C356.337 124.978 356.97 121.303 356.97 116.103C356.97 114.046 356.849 112.113 356.609 110.301C356.369 108.49 356.018 107.043 355.559 105.962C355.099 104.882 354.599 104.133 354.056 103.715C353.513 103.298 352.96 103.089 352.396 103.089C351.185 103.089 350.172 103.945 349.358 105.657C348.303 107.881 347.776 111.457 347.776 116.385C347.776 120.331 348.245 123.542 349.186 126.016Z" fill="white"/>
<path d="M353.07 108.977C353.289 110.136 353.398 112.057 353.398 114.741C353.398 115.942 353.362 117.846 353.289 120.456C353.247 121.865 353.164 122.851 353.039 123.409C352.914 123.968 352.699 124.551 352.396 125.156C352.072 124.54 351.838 123.824 351.692 123.01C351.462 121.736 351.347 119.653 351.347 116.761C351.347 115.477 351.394 113.718 351.488 111.483C351.551 110.063 351.65 109.08 351.786 108.532C351.922 107.983 352.124 107.48 352.396 107.02C352.699 107.552 352.924 108.204 353.07 108.977ZM349.186 126.016C349.958 128.021 351.05 129.024 352.459 129.024C353.461 129.024 354.333 128.392 355.074 127.129C356.337 124.978 356.97 121.303 356.97 116.103C356.97 114.046 356.849 112.113 356.609 110.301C356.369 108.49 356.018 107.043 355.559 105.962C355.099 104.882 354.599 104.133 354.056 103.715C353.513 103.298 352.96 103.089 352.396 103.089C351.185 103.089 350.172 103.945 349.358 105.657C348.303 107.881 347.776 111.457 347.776 116.385C347.776 120.331 348.245 123.542 349.186 126.016Z" stroke="black" stroke-width="0.01"/>
<path d="M341.951 128.82H347.402V125.421H345.396V103.292H341.951V128.82Z" fill="white"/>
<path d="M341.951 128.82H347.402V125.421H345.396V103.292H341.951V128.82Z" stroke="black" stroke-width="0.01"/>
<path d="M334.622 128.82H340.072V125.421H338.068V103.292H334.622V128.82Z" fill="white"/>
<path d="M334.622 128.82H340.072V125.421H338.068V103.292H334.622V128.82Z" stroke="black" stroke-width="0.01"/>
<path d="M326.965 128.82H332.838V125.469H330.41V118.045H332.838V114.725H330.41V106.676H332.838V103.292H326.965V128.82Z" fill="white"/>
<path d="M326.965 128.82H332.838V125.469H330.41V118.045H332.838V114.725H330.41V106.676H332.838V103.292H326.965V128.82Z" stroke="black" stroke-width="0.01"/>
<path d="M315.971 128.82H319.416V118.045H321.171V128.82H324.616V103.292H321.171V114.725H319.416V103.292H315.971V128.82Z" fill="white"/>
<path d="M315.971 128.82H319.416V118.045H321.171V128.82H324.616V103.292H321.171V114.725H319.416V103.292H315.971V128.82Z" stroke="black" stroke-width="0.01"/>
<path d="M94.9153 113.933C94.7545 113.84 94.667 113.79 94.667 113.79" stroke="#FE4A4A" stroke-width="0.72"/>
<path d="M95.6159 136.183C95.4695 136.297 95.39 136.359 95.39 136.359" stroke="#FE4A4A" stroke-width="0.72"/>
<path d="M116.508 143.868C116.559 144.046 116.587 144.143 116.587 144.143" stroke="#FE4A4A" stroke-width="0.72"/>
<path d="M131.46 127.376C131.645 127.396 131.745 127.406 131.745 127.406" stroke="#FE4A4A" stroke-width="0.72"/>
<path d="M121.77 107.335C121.857 107.171 121.905 107.082 121.905 107.082" stroke="#FE4A4A" stroke-width="0.72"/>
<path d="M99.5584 108.812C99.439 108.669 99.3741 108.592 99.3741 108.592" stroke="#FE4A4A" stroke-width="0.72"/>
<path d="M92.6069 129.959C92.4302 130.017 92.3342 130.048 92.3342 130.048" stroke="#FE4A4A" stroke-width="0.72"/>
<path d="M109.61 144.326C109.597 144.512 109.59 144.612 109.59 144.612" stroke="#FE4A4A" stroke-width="0.72"/>
<path d="M129.301 133.943C129.468 134.025 129.559 134.069 129.559 134.069" stroke="#FE4A4A" stroke-width="0.72"/>
<path d="M127.05 111.797C127.188 111.672 127.263 111.605 127.263 111.605" stroke="#FE4A4A" stroke-width="0.72"/>
<path d="M105.673 105.587C105.61 105.413 105.575 105.318 105.575 105.318" stroke="#FE4A4A" stroke-width="0.72"/>
<path d="M91.9079 123.082C91.7223 123.075 91.6214 123.072 91.6214 123.072" stroke="#FE4A4A" stroke-width="0.72"/>
<path d="M102.972 142.398C102.896 142.568 102.855 142.66 102.855 142.66" stroke="#FE4A4A" stroke-width="0.72"/>
<path d="M125.027 139.376C125.156 139.509 125.226 139.582 125.226 139.582" stroke="#FE4A4A" stroke-width="0.72"/>
<path d="M130.486 117.795C130.658 117.725 130.752 117.688 130.752 117.688" stroke="#FE4A4A" stroke-width="0.72"/>
<path d="M112.522 104.649C112.522 104.463 112.522 104.362 112.522 104.362" stroke="#FE4A4A" stroke-width="0.72"/>
<path d="M261.921 185.823C261.76 185.73 261.673 185.68 261.673 185.68" stroke="#04F512" stroke-width="1.2"/>
<path d="M262.622 208.073C262.475 208.187 262.396 208.249 262.396 208.249" stroke="#04F512" stroke-width="1.2"/>
<path d="M283.514 215.758C283.565 215.936 283.593 216.033 283.593 216.033" stroke="#04F512" stroke-width="1.2"/>
<path d="M298.466 199.266C298.65 199.286 298.751 199.296 298.751 199.296" stroke="#04F512" stroke-width="1.2"/>
<path d="M288.776 179.225C288.863 179.061 288.911 178.972 288.911 178.972" stroke="#04F512" stroke-width="1.2"/>
<path d="M266.564 180.702C266.445 180.559 266.38 180.482 266.38 180.482" stroke="#04F512" stroke-width="1.2"/>
<path d="M259.613 201.849C259.436 201.906 259.34 201.938 259.34 201.938" stroke="#04F512" stroke-width="1.2"/>
<path d="M276.616 216.216C276.603 216.402 276.596 216.502 276.596 216.502" stroke="#04F512" stroke-width="1.2"/>
<path d="M296.307 205.833C296.474 205.915 296.565 205.959 296.565 205.959" stroke="#04F512" stroke-width="1.2"/>
<path d="M294.056 183.687C294.194 183.562 294.269 183.495 294.269 183.495" stroke="#04F512" stroke-width="1.2"/>
<path d="M272.679 177.477C272.615 177.303 272.581 177.208 272.581 177.208" stroke="#04F512" stroke-width="1.2"/>
<path d="M258.914 194.972C258.728 194.965 258.627 194.962 258.627 194.962" stroke="#04F512" stroke-width="1.2"/>
<path d="M269.978 214.288C269.902 214.458 269.861 214.55 269.861 214.55" stroke="#04F512" stroke-width="1.2"/>
<path d="M292.033 211.266C292.162 211.399 292.232 211.472 292.232 211.472" stroke="#04F512" stroke-width="1.2"/>
<path d="M297.492 189.685C297.664 189.615 297.758 189.578 297.758 189.578" stroke="#04F512" stroke-width="1.2"/>
<path d="M279.528 176.539C279.528 176.353 279.528 176.252 279.528 176.252" stroke="#04F512" stroke-width="1.2"/>
<path d="M42.8109 314.145C42.8109 314.145 42.669 314.063 42.4101 313.914" stroke="#F800FF" stroke-width="1.6"/>
<path d="M42.1564 321.093C42.1564 321.093 42.0272 321.193 41.7917 321.377" stroke="#F800FF" stroke-width="1.6"/>
<path d="M48.3525 324.302C48.3525 324.302 48.3977 324.459 48.4801 324.747" stroke="#F800FF" stroke-width="1.6"/>
<path d="M53.6493 319.759C53.6493 319.759 53.8123 319.776 54.1095 319.808" stroke="#F800FF" stroke-width="1.6"/>
<path d="M51.4216 313.146C51.4216 313.146 51.4985 313.002 51.6388 312.738" stroke="#F800FF" stroke-width="1.6"/>
<path d="M44.4558 312.735C44.4558 312.735 44.3504 312.609 44.1583 312.38" stroke="#F800FF" stroke-width="1.6"/>
<path d="M41.4646 319.039C41.4646 319.039 41.3087 319.09 41.0244 319.182" stroke="#F800FF" stroke-width="1.6"/>
<path d="M46.1894 324.174C46.1894 324.174 46.1779 324.338 46.1571 324.636" stroke="#F800FF" stroke-width="1.6"/>
<path d="M52.7204 321.717C52.7204 321.717 52.8678 321.789 53.1364 321.92" stroke="#F800FF" stroke-width="1.6"/>
<path d="M52.8888 314.741C52.8888 314.741 53.0106 314.631 53.2327 314.431" stroke="#F800FF" stroke-width="1.6"/>
<path d="M46.4839 311.972C46.4839 311.972 46.4278 311.818 46.3256 311.537" stroke="#F800FF" stroke-width="1.6"/>
<path d="M41.5169 316.873C41.5169 316.873 41.353 316.867 41.0543 316.857" stroke="#F800FF" stroke-width="1.6"/>
<path d="M44.2004 323.314C44.2004 323.314 44.1338 323.464 44.0122 323.737" stroke="#F800FF" stroke-width="1.6"/>
<path d="M51.178 323.239C51.178 323.239 51.2919 323.357 51.4995 323.572" stroke="#F800FF" stroke-width="1.6"/>
<path d="M53.7221 316.741C53.7221 316.741 53.8741 316.68 54.1512 316.568" stroke="#F800FF" stroke-width="1.6"/>
<path d="M48.6506 311.948C48.6506 311.948 48.6506 311.784 48.6506 311.485" stroke="#F800FF" stroke-width="1.6"/>
<path d="M45.0199 315.958C45.0199 315.958 45.0143 315.955 45.0033 315.949" stroke="#DA078C" stroke-width="0.867338"/>
<path d="M44.5413 319.791C44.5413 319.791 44.536 319.795 44.5256 319.803" stroke="#DA078C" stroke-width="0.903477"/>
<path d="M48.0566 321.75C48.0566 321.75 48.0584 321.756 48.0619 321.769" stroke="#DA078C" stroke-width="0.941122"/>
<path d="M51.32 319.118C51.32 319.118 51.3268 319.119 51.34 319.12" stroke="#DA078C" stroke-width="0.980335"/>
<path d="M50.0514 314.94C50.0514 314.94 50.0547 314.933 50.0613 314.921" stroke="#DA078C" stroke-width="1.02118"/>
<path d="M45.5205 314.534C45.5205 314.534 45.5157 314.528 45.5064 314.517" stroke="#DA078C" stroke-width="1.06373"/>
<path d="M43.3608 318.752C43.3608 318.752 43.3535 318.754 43.339 318.759" stroke="#DA078C" stroke-width="1.10805"/>
<path d="M46.5917 322.483C46.5917 322.483 46.5911 322.491 46.59 322.507" stroke="#DA078C" stroke-width="1.15422"/>
<path d="M51.4543 320.818C51.4543 320.818 51.4626 320.822 51.4789 320.83" stroke="#DA078C" stroke-width="1.20232"/>
<path d="M51.7457 315.473C51.7457 315.473 51.7528 315.466 51.7668 315.454" stroke="#DA078C" stroke-width="1.25241"/>
<path d="M46.6963 313.104C46.6963 313.104 46.693 313.095 46.6867 313.078" stroke="#DA078C" stroke-width="1.3046"/>
<path d="M42.4383 317.058C42.4383 317.058 42.4286 317.058 42.4096 317.057" stroke="#DA078C" stroke-width="1.35895"/>
<path d="M44.5961 322.714C44.5961 322.714 44.592 322.723 44.584 322.741" stroke="#DA078C" stroke-width="1.41558"/>
<path d="M50.9002 322.836C50.9002 322.836 50.9075 322.844 50.9218 322.859" stroke="#DA078C" stroke-width="1.47456"/>
<path d="M53.4788 316.796C53.4788 316.796 53.4888 316.792 53.5087 316.784" stroke="#DA078C" stroke-width="1.536"/>
<path d="M48.6506 311.948C48.6506 311.948 48.6506 311.937 48.6506 311.914" stroke="#DA078C" stroke-width="1.6"/>
<path d="M275.894 194.619C275.868 194.603 275.853 194.595 275.853 194.595" stroke="#00F5E1" stroke-width="0.121212"/>
<path d="M275.808 198.513C275.782 198.533 275.768 198.545 275.768 198.545" stroke="#00F5E1" stroke-width="0.130336"/>
<path d="M279.655 200.168C279.665 200.202 279.671 200.221 279.671 200.221" stroke="#00F5E1" stroke-width="0.140146"/>
<path d="M282.855 196.999C282.893 197.003 282.914 197.005 282.914 197.005" stroke="#00F5E1" stroke-width="0.150695"/>
<path d="M280.984 192.533C281.004 192.496 281.014 192.476 281.014 192.476" stroke="#00F5E1" stroke-width="0.162037"/>
<path d="M275.778 192.598C275.749 192.564 275.734 192.546 275.734 192.546" stroke="#00F5E1" stroke-width="0.174234"/>
<path d="M273.747 197.816C273.701 197.83 273.676 197.838 273.676 197.838" stroke="#00F5E1" stroke-width="0.187348"/>
<path d="M278.13 201.942C278.126 201.993 278.124 202.021 278.124 202.021" stroke="#00F5E1" stroke-width="0.201449"/>
<path d="M284.009 199.235C284.059 199.259 284.086 199.272 284.086 199.272" stroke="#00F5E1" stroke-width="0.216612"/>
<path d="M283.678 192.282C283.722 192.242 283.746 192.221 283.746 192.221" stroke="#00F5E1" stroke-width="0.232916"/>
<path d="M276.614 189.812C276.592 189.752 276.58 189.719 276.58 189.719" stroke="#00F5E1" stroke-width="0.250448"/>
<path d="M271.305 195.86C271.236 195.858 271.199 195.856 271.199 195.856" stroke="#00F5E1" stroke-width="0.269299"/>
<path d="M275.197 203.588C275.167 203.656 275.15 203.693 275.15 203.693" stroke="#00F5E1" stroke-width="0.289569"/>
<path d="M284.468 202.821C284.524 202.879 284.555 202.91 284.555 202.91" stroke="#00F5E1" stroke-width="0.311364"/>
<path d="M287.439 193.269C287.519 193.237 287.563 193.219 287.563 193.219" stroke="#00F5E1" stroke-width="0.3348"/>
<path d="M279.112 186.46C279.112 186.367 279.112 186.317 279.112 186.317" stroke="#00F5E1" stroke-width="0.36"/>
<path d="M132.903 140.641C131.97 140.102 131.174 139.643 130.777 139.414" stroke="#530DCA" stroke-width="0.420985"/>
<path d="M132.959 150.857C132.093 151.534 131.354 152.111 130.985 152.399" stroke="#530DCA" stroke-width="0.429576"/>
<path d="M142.646 154.709C142.955 155.787 143.219 156.707 143.35 157.166" stroke="#530DCA" stroke-width="0.438343"/>
<path d="M149.993 147.017C151.131 147.136 152.102 147.239 152.587 147.289" stroke="#530DCA" stroke-width="0.447289"/>
<path d="M145.524 137.125C146.072 136.094 146.54 135.214 146.773 134.775" stroke="#530DCA" stroke-width="0.456417"/>
<path d="M134.457 137.572C133.691 136.66 133.038 135.881 132.712 135.492" stroke="#530DCA" stroke-width="0.465732"/>
<path d="M130.65 148.214C129.493 148.59 128.507 148.91 128.015 149.07" stroke="#530DCA" stroke-width="0.475236"/>
<path d="M139.263 155.884C139.176 157.121 139.102 158.177 139.065 158.704" stroke="#530DCA" stroke-width="0.484935"/>
<path d="M149.811 150.667C150.949 151.222 151.92 151.695 152.404 151.932" stroke="#530DCA" stroke-width="0.494832"/>
<path d="M148.908 138.693C149.868 137.828 150.687 137.091 151.096 136.723" stroke="#530DCA" stroke-width="0.50493"/>
<path d="M137.234 134.97C136.783 133.731 136.398 132.675 136.206 132.147" stroke="#530DCA" stroke-width="0.515235"/>
<path d="M129.249 144.592C127.905 144.545 126.758 144.505 126.186 144.485" stroke="#530DCA" stroke-width="0.52575"/>
<path d="M135.301 155.824C134.742 157.078 134.266 158.148 134.028 158.682" stroke="#530DCA" stroke-width="0.536479"/>
<path d="M148.241 154.393C149.214 155.4 150.044 156.26 150.458 156.688" stroke="#530DCA" stroke-width="0.547428"/>
<path d="M151.832 141.603C153.157 141.067 154.288 140.61 154.852 140.383" stroke="#530DCA" stroke-width="0.5586"/>
<path d="M141.105 133.316C141.105 131.857 141.105 130.613 141.105 129.992" stroke="#530DCA" stroke-width="0.57"/>
<path d="M352.997 41.101C352.064 40.5624 351.268 40.103 350.871 39.8737" stroke="#530DCA" stroke-width="0.841969"/>
<path d="M353.053 51.317C352.187 51.9937 351.448 52.571 351.079 52.859" stroke="#530DCA" stroke-width="0.859152"/>
<path d="M362.74 55.1691C363.049 56.2472 363.313 57.167 363.444 57.6259" stroke="#530DCA" stroke-width="0.876686"/>
<path d="M370.087 47.4768C371.225 47.5964 372.196 47.6985 372.681 47.7494" stroke="#530DCA" stroke-width="0.894577"/>
<path d="M365.618 37.585C366.166 36.554 366.634 35.6743 366.867 35.2354" stroke="#530DCA" stroke-width="0.912834"/>
<path d="M354.551 38.0323C353.785 37.1195 353.132 36.3407 352.806 35.9521" stroke="#530DCA" stroke-width="0.931463"/>
<path d="M350.744 48.6738C349.587 49.0495 348.601 49.3701 348.109 49.53" stroke="#530DCA" stroke-width="0.950473"/>
<path d="M359.356 56.3436C359.27 57.5813 359.196 58.6373 359.159 59.1641" stroke="#530DCA" stroke-width="0.96987"/>
<path d="M369.905 51.1269C371.043 51.6819 372.014 52.1554 372.498 52.3916" stroke="#530DCA" stroke-width="0.989663"/>
<path d="M369.002 39.1526C369.962 38.2881 370.781 37.5506 371.19 37.1827" stroke="#530DCA" stroke-width="1.00986"/>
<path d="M357.328 35.4301C356.877 34.1913 356.492 33.1345 356.3 32.6072" stroke="#530DCA" stroke-width="1.03047"/>
<path d="M349.343 45.0522C347.999 45.0053 346.852 44.9652 346.28 44.9453" stroke="#530DCA" stroke-width="1.0515"/>
<path d="M355.395 56.2843C354.836 57.5383 354.36 58.6081 354.122 59.1418" stroke="#530DCA" stroke-width="1.07296"/>
<path d="M368.335 54.8525C369.308 55.86 370.138 56.7196 370.552 57.1484" stroke="#530DCA" stroke-width="1.09486"/>
<path d="M371.926 42.0626C373.251 41.5272 374.382 41.0704 374.946 40.8425" stroke="#530DCA" stroke-width="1.1172"/>
<path d="M361.199 33.7755C361.199 32.3171 361.199 31.0729 361.199 30.4521" stroke="#530DCA" stroke-width="1.14"/>
</g>
</g>
<defs>
<clipPath id="clip0_110_116">
<rect width="553" height="553" fill="white" transform="translate(-86 -39)"/>
</clipPath>
</defs>
</svg>
