<svg width="390" height="470" viewBox="0 0 390 470" fill="none" xmlns="http://www.w3.org/2000/svg">
<g clip-path="url(#clip0_110_11)">
<mask id="mask0_110_11" style="mask-type:luminance" maskUnits="userSpaceOnUse" x="-29" y="-56" width="518" height="526">
<path d="M489 -56H-29V470H489V-56Z" fill="white"/>
</mask>
<g mask="url(#mask0_110_11)">
<mask id="mask1_110_11" style="mask-type:luminance" maskUnits="userSpaceOnUse" x="-29" y="-56" width="518" height="526">
<path d="M-28.3116 -55.1628H488.312V469.163H-28.3116V-55.1628Z" fill="white"/>
</mask>
<g mask="url(#mask1_110_11)">
<path d="M195.007 392.869C270.62 392.869 331.916 330.767 331.916 254.161C331.916 177.555 270.62 115.454 195.007 115.454C119.394 115.454 58.0971 177.555 58.0971 254.161C58.0971 330.767 119.394 392.869 195.007 392.869Z" fill="url(#paint0_linear_110_11)"/>
<path d="M195.007 404.679C113.086 404.679 46.4386 337.156 46.4386 254.16C46.4386 199.846 75.4942 149.546 122.268 122.885C122.806 122.578 123.492 122.771 123.796 123.32C124.1 123.866 123.908 124.561 123.368 124.868C77.3001 151.127 48.6821 200.667 48.6821 254.162C48.6821 335.905 114.323 402.405 195.007 402.405C275.69 402.405 341.331 335.905 341.331 254.162C341.331 253.535 341.835 253.026 342.454 253.026C343.074 253.026 343.575 253.536 343.575 254.162C343.576 337.157 276.928 404.679 195.007 404.679Z" fill="#428DFC"/>
<path d="M293.36 367.637H283.702V377.421H293.36V367.637Z" fill="#1D72D8"/>
<path d="M166.445 156.135C168.696 149.83 173.857 145.129 178.828 140.706C185.1 135.119 191.373 129.534 197.647 123.949C198.615 123.085 199.636 122.194 200.888 121.878C201.959 121.607 203.083 121.788 204.17 121.977C217.891 124.36 231.415 127.902 244.558 132.552C231.898 143.87 217.183 152.519 202.573 161.09C201.026 161.998 199.448 162.917 197.701 163.291C195.878 163.681 193.989 163.452 192.141 163.223C184.399 162.261 176.66 161.301 168.918 160.339C168.053 160.231 167.103 160.079 166.539 159.407C165.805 158.534 166.06 157.212 166.445 156.135Z" fill="#A1C3FC"/>
<path d="M290.535 115.9L285.819 126.594L275.266 121.815L279.981 111.121L290.535 115.9Z" fill="#A1C3FC"/>
<path d="M349.115 444.805H184.925L349.115 429.684V444.805Z" fill="#428DFC"/>
<path d="M320.386 444.689L287.197 397.793L310.935 381.07L346.032 430.662L320.386 444.689Z" fill="#428DFC"/>
<path d="M-14.1751 158.436C-15.5034 159.395 -16.7549 160.453 -17.8917 161.635C-20.9235 164.786 -23.1058 168.89 -23.3518 173.251C-23.4755 175.431 -23.1114 177.649 -22.2128 179.64C-21.3143 181.632 -19.8747 183.391 -18.0498 184.596C-16.2661 185.775 -14.1706 186.402 -12.0663 186.783C-9.96194 187.164 -7.82309 187.316 -5.70649 187.625C6.21702 189.368 17.0316 196.232 24.9168 205.323C32.802 214.415 37.9448 225.614 41.3029 237.161C43.5475 244.877 45.0373 252.798 47.3476 260.495C49.6579 268.193 52.8645 275.774 58.0809 281.895C64.4296 289.344 73.2868 294.127 81.9246 298.748C90.5625 303.369 99.413 308.169 105.729 315.646C109.845 320.517 112.687 326.302 115.891 331.813C119.096 337.324 122.833 342.748 128.151 346.274C131.16 348.268 134.705 349.607 138.314 349.481C140.119 349.418 141.919 348.985 143.517 348.148C145.116 347.31 146.508 346.062 147.448 344.523C148.847 342.232 149.183 339.41 148.823 336.751C148.463 334.093 147.457 331.566 146.322 329.134C145.188 326.703 143.914 324.328 142.976 321.814C142.039 319.3 141.439 316.607 141.716 313.939C141.977 311.436 143.001 309.056 144.365 306.939C145.729 304.822 147.429 302.945 149.159 301.114C150.889 299.283 152.661 297.483 154.201 295.49C155.741 293.497 157.052 291.291 157.735 288.868C158.993 284.407 158.026 279.618 156.529 275.231C155.031 270.844 153.003 266.615 152.06 262.077C150.926 256.627 151.437 250.84 153.568 245.697C155.686 240.584 159.394 236.141 164.049 233.137C168.704 230.133 174.288 228.582 179.829 228.752L179.834 228.746C181.271 230.065 182.992 231.064 184.69 232.036C190.234 235.213 195.778 238.392 201.322 241.569C200.669 224.751 215.321 208.889 231.927 208.438C230.079 213.118 228.23 217.801 226.381 222.48C235.205 221.335 244.14 221.063 253.016 221.669C266.145 202.225 279.274 182.781 292.403 163.336C298.594 154.167 306.463 144.025 317.426 143.786C320.394 149.647 323.361 155.507 326.33 161.368C330.458 161.478 334.586 161.589 338.715 161.698C327.598 148.674 318.891 133.542 313.186 117.321C277.617 115.834 242.049 114.346 206.48 112.859C201.285 112.642 195.679 112.576 190.962 114.425C188.625 114.986 186.196 115.165 183.801 114.956C179.344 114.567 175.085 112.842 171.254 110.536C167.422 108.23 163.978 105.348 160.575 102.449C157.172 99.5497 153.783 96.6093 150.039 94.1665C146.294 91.7237 142.151 89.7775 137.734 89.0688C132.874 88.2889 127.846 89.041 123.224 90.7295C118.603 92.418 114.358 95.0141 110.406 97.9401C102.5 103.793 95.6218 111.033 87.1988 116.116C73.4315 124.425 56.7982 126.269 41.7638 131.99C29.1099 136.805 17.6618 144.345 5.13701 149.484C1.08754 151.146 -3.06771 152.553 -7.04481 154.378C-9.53106 155.519 -11.9617 156.838 -14.1751 158.435V158.436ZM310.802 56.5139C310.27 56.8861 309.773 57.3248 309.29 57.7581C303.033 63.3624 296.779 68.9689 290.524 74.5743C285.567 79.0133 280.422 83.7289 278.19 90.0408C277.808 91.1194 277.557 92.4413 278.293 93.3122C278.859 93.9832 279.809 94.1343 280.674 94.2387C288.418 95.1763 296.163 96.1127 303.907 97.0503C305.756 97.2736 307.644 97.4968 309.466 97.1014C311.212 96.7226 312.787 95.7961 314.332 94.8841C328.914 86.2672 343.604 77.5725 356.228 66.2162C343.071 61.6072 329.534 58.1058 315.807 55.7652C314.719 55.5797 313.597 55.4031 312.526 55.6774C311.9 55.8374 311.333 56.1418 310.802 56.5139ZM337.198 174.118C333.744 180.064 330.293 186.007 326.841 191.952C327.762 198.01 333.567 202.427 339.558 203.281C345.548 204.134 351.589 202.086 356.988 199.319C362.384 196.554 367.478 193.017 373.31 191.4C379.142 189.783 386.173 190.569 390.022 195.296C391.509 197.119 392.465 199.446 394.369 200.812C397.884 203.335 402.831 201.441 406.242 198.775C409.651 196.109 412.741 192.611 416.951 191.698C420.467 193.616 421.815 198.108 421.77 202.153C421.724 206.198 420.63 210.19 420.733 214.235C420.919 221.531 425.33 228.56 431.771 231.822C432.908 220.844 435.625 210.038 439.806 199.845C428.74 197.735 420.709 185.34 423.202 174.216C415.298 172.489 408.291 179.127 400.801 182.212C392.786 185.515 383.744 184.719 375.189 183.388C362.3 181.382 349.576 178.276 337.198 174.118ZM256.242 285.12C255.661 285.533 255.092 285.964 254.537 286.414C250.984 289.288 248.059 292.865 244.856 296.135C241.53 299.528 237.879 302.589 233.984 305.29C234.281 308.693 233.437 312.187 231.616 315.081C229.796 317.975 227.011 320.254 223.81 321.468C221.304 322.419 218.607 322.719 215.988 323.29C213.37 323.861 210.71 324.77 208.811 326.659C207.605 327.859 206.78 329.383 206.101 330.942C205.422 332.5 204.871 334.115 204.116 335.638C201.432 341.052 196.431 344.879 192.409 349.392C190.398 351.649 188.592 354.143 187.52 356.967C186.447 359.791 186.154 362.984 187.15 365.836C188.078 368.496 190.044 370.68 192.22 372.476C194.397 374.271 196.819 375.746 199.039 377.487C204.143 381.489 208.052 386.775 211.903 391.988C215.755 397.201 219.679 402.48 224.802 406.457C230.153 410.611 236.691 413.192 243.425 413.977C250.159 414.763 257.071 413.771 263.375 411.281C276.012 406.29 285.524 395.787 296.845 388.284C309.632 379.811 324.567 375.272 338.419 368.673C342.99 366.497 347.487 364.064 351.323 360.765C355.158 357.466 358.318 353.223 359.63 348.343C360.494 345.13 360.537 341.757 360.438 338.431C360.339 335.105 360.106 331.766 360.442 328.456C361.027 322.694 363.375 317.12 367.094 312.674C366.504 306.052 365.458 299.414 362.483 293.525C359.034 286.696 352.445 281.007 344.879 280.783C340.334 280.651 335.941 282.449 331.401 282.743C322.6 283.31 313.759 277.512 310.666 269.145C309.652 266.399 308.571 262.853 305.693 262.547C304.557 262.426 303.45 262.905 302.405 263.375C291.422 268.289 280.44 273.206 269.459 278.12C264.904 280.159 260.3 282.225 256.242 285.12Z" fill="#A1C3FC"/>
<path d="M328.473 431.91L109.257 113.505L110.177 112.855L329.392 431.26L328.473 431.91Z" fill="#428DFC"/>
<path d="M71.5631 217.308C71.3192 217.308 71.0932 217.144 71.0231 216.893C70.9384 216.59 71.1121 216.278 71.4105 216.192L76.8084 214.64C77.1067 214.554 77.4163 214.729 77.502 215.03C77.5855 215.334 77.4129 215.647 77.1145 215.734L71.7178 217.285C71.6655 217.303 71.6143 217.308 71.5631 217.308ZM79.1198 215.137C78.876 215.137 78.6511 214.974 78.582 214.722C78.4974 214.419 78.6711 214.105 78.9695 214.02L81.1273 213.401C81.4279 213.315 81.7374 213.49 81.8209 213.793C81.9044 214.095 81.7319 214.409 81.4335 214.494L79.2746 215.114C79.2233 215.13 79.1721 215.137 79.1198 215.137ZM83.4387 213.895C83.1949 213.895 82.97 213.732 82.9009 213.481C82.8163 213.179 82.9889 212.864 83.2862 212.778L83.8262 212.623C84.1279 212.538 84.4341 212.713 84.5199 213.014C84.6045 213.316 84.4308 213.631 84.1335 213.717L83.5946 213.872C83.5423 213.888 83.4899 213.895 83.4387 213.895ZM86.1387 213.12C85.8949 213.12 85.67 212.956 85.5999 212.705C85.5164 212.402 85.6889 212.089 85.9873 212.003L91.3852 210.453C91.6824 210.365 91.9942 210.541 92.0777 210.844C92.1623 211.147 91.9897 211.461 91.6913 211.546L86.2924 213.096C86.239 213.113 86.1889 213.12 86.1387 213.12ZM93.6955 210.949C93.4516 210.949 93.2256 210.786 93.1566 210.534C93.072 210.231 93.2457 209.918 93.5441 209.833L95.703 209.212C96.0036 209.126 96.3109 209.301 96.3955 209.604C96.479 209.906 96.3064 210.22 96.008 210.305L93.8491 210.926C93.7968 210.94 93.7467 210.949 93.6955 210.949ZM98.0133 209.707C97.7695 209.707 97.5445 209.544 97.4755 209.292C97.392 208.99 97.5646 208.676 97.863 208.591L98.4019 208.436C98.6969 208.35 99.0098 208.525 99.0944 208.828C99.1779 209.132 99.0065 209.445 98.7081 209.531L98.1681 209.685C98.1157 209.7 98.0634 209.707 98.0133 209.707ZM100.713 208.931C100.469 208.931 100.243 208.767 100.173 208.516C100.089 208.213 100.262 207.901 100.561 207.815L105.959 206.263C106.258 206.176 106.568 206.352 106.652 206.653C106.737 206.957 106.563 207.27 106.265 207.357L100.867 208.908C100.815 208.924 100.763 208.931 100.713 208.931ZM108.27 206.758C108.026 206.758 107.801 206.596 107.732 206.345C107.649 206.041 107.82 205.728 108.118 205.641L110.276 205.022C110.58 204.936 110.885 205.112 110.97 205.411C111.056 205.715 110.882 206.028 110.585 206.115L108.426 206.736C108.372 206.751 108.321 206.758 108.27 206.758ZM112.588 205.517C112.344 205.517 112.118 205.355 112.049 205.103C111.964 204.799 112.138 204.486 112.436 204.401L112.976 204.247C113.274 204.16 113.585 204.336 113.669 204.639C113.754 204.943 113.58 205.255 113.282 205.34L112.742 205.495C112.69 205.509 112.64 205.517 112.588 205.517ZM115.287 204.742C115.043 204.742 114.818 204.578 114.749 204.326C114.663 204.024 114.837 203.71 115.135 203.625L120.533 202.073C120.833 201.986 121.141 202.163 121.227 202.464C121.31 202.768 121.138 203.08 120.839 203.166L115.443 204.718C115.39 204.734 115.338 204.742 115.287 204.742ZM122.846 202.569C122.602 202.569 122.376 202.407 122.306 202.156C122.221 201.852 122.395 201.54 122.692 201.453L124.851 200.833C125.153 200.747 125.46 200.924 125.545 201.224C125.63 201.527 125.456 201.839 125.158 201.926L122.999 202.548C122.947 202.564 122.896 202.569 122.846 202.569ZM127.162 201.327C126.919 201.327 126.694 201.165 126.624 200.914C126.538 200.61 126.711 200.298 127.009 200.212L127.549 200.056C127.848 199.968 128.158 200.146 128.242 200.448C128.327 200.749 128.153 201.064 127.856 201.149L127.317 201.306C127.265 201.321 127.214 201.327 127.162 201.327ZM129.861 200.553C129.617 200.553 129.394 200.389 129.324 200.137C129.24 199.835 129.413 199.522 129.711 199.437L135.109 197.887C135.403 197.799 135.717 197.975 135.801 198.278C135.885 198.581 135.712 198.893 135.414 198.978L130.016 200.53C129.964 200.546 129.913 200.553 129.861 200.553ZM137.419 198.381C137.175 198.381 136.95 198.218 136.881 197.966C136.797 197.663 136.969 197.35 137.268 197.264L139.427 196.645C139.728 196.558 140.036 196.735 140.119 197.036C140.204 197.339 140.03 197.652 139.732 197.738L137.574 198.358C137.522 198.375 137.469 198.381 137.419 198.381ZM141.737 197.14C141.493 197.14 141.269 196.978 141.199 196.727C141.115 196.424 141.288 196.11 141.586 196.024L142.124 195.869C142.425 195.781 142.733 195.958 142.818 196.26C142.904 196.561 142.73 196.877 142.432 196.962L141.893 197.118C141.839 197.133 141.787 197.14 141.737 197.14ZM144.437 196.366C144.193 196.366 143.968 196.202 143.898 195.95C143.813 195.648 143.986 195.334 144.286 195.249L149.682 193.697C149.983 193.61 150.291 193.785 150.376 194.087C150.461 194.391 150.287 194.704 149.988 194.791L144.592 196.342C144.538 196.358 144.488 196.366 144.437 196.366ZM151.994 194.191C151.75 194.191 151.526 194.027 151.456 193.777C151.372 193.474 151.544 193.162 151.841 193.075L154.001 192.453C154.303 192.368 154.609 192.545 154.695 192.845C154.779 193.149 154.606 193.461 154.309 193.547L152.15 194.168C152.096 194.185 152.045 194.191 151.994 194.191ZM156.313 192.95C156.069 192.95 155.844 192.787 155.775 192.535C155.69 192.232 155.863 191.92 156.161 191.835L156.701 191.68C156.995 191.592 157.309 191.769 157.394 192.072C157.477 192.374 157.305 192.689 157.006 192.773L156.467 192.928C156.415 192.944 156.363 192.95 156.313 192.95ZM159.012 192.174C158.768 192.174 158.543 192.011 158.474 191.759C158.39 191.457 158.563 191.144 158.86 191.058L164.259 189.506C164.554 189.418 164.867 189.595 164.952 189.898C165.035 190.2 164.863 190.515 164.564 190.6L159.165 192.152C159.113 192.168 159.062 192.174 159.012 192.174ZM166.568 190.003C166.324 190.003 166.1 189.839 166.031 189.588C165.946 189.285 166.118 188.972 166.417 188.886L168.576 188.265C168.871 188.176 169.184 188.354 169.268 188.657C169.353 188.961 169.179 189.274 168.881 189.36L166.723 189.979C166.671 189.995 166.62 190.003 166.568 190.003ZM170.886 188.761C170.642 188.761 170.418 188.598 170.348 188.348C170.264 188.044 170.437 187.731 170.735 187.644L171.274 187.49C171.574 187.402 171.883 187.579 171.967 187.88C172.053 188.182 171.878 188.496 171.581 188.583L171.042 188.737C170.989 188.754 170.938 188.761 170.886 188.761ZM173.585 187.984C173.341 187.984 173.117 187.822 173.047 187.57C172.964 187.267 173.135 186.953 173.435 186.868L178.833 185.317C179.126 185.228 179.442 185.407 179.525 185.71C179.61 186.013 179.436 186.326 179.138 186.411L173.74 187.962C173.689 187.979 173.636 187.984 173.585 187.984ZM181.143 185.814C180.899 185.814 180.675 185.65 180.605 185.399C180.522 185.096 180.693 184.783 180.991 184.698L183.151 184.076C183.447 183.992 183.759 184.166 183.844 184.47C183.928 184.773 183.755 185.085 183.455 185.171L181.298 185.791C181.245 185.807 181.194 185.814 181.143 185.814ZM185.462 184.572C185.218 184.572 184.993 184.408 184.923 184.159C184.837 183.855 185.011 183.543 185.309 183.456L185.848 183.301C186.151 183.213 186.456 183.392 186.542 183.692C186.626 183.995 186.453 184.307 186.155 184.394L185.617 184.55C185.564 184.567 185.513 184.572 185.462 184.572ZM188.161 183.796C187.917 183.796 187.692 183.634 187.623 183.382C187.537 183.079 187.711 182.767 188.009 182.681L193.407 181.129C193.707 181.04 194.016 181.218 194.102 181.52C194.185 181.822 194.013 182.137 193.713 182.223L188.317 183.775C188.263 183.791 188.211 183.796 188.161 183.796ZM195.72 181.626C195.476 181.626 195.25 181.462 195.18 181.213C195.094 180.909 195.269 180.595 195.566 180.509L197.725 179.888C198.027 179.803 198.333 179.978 198.419 180.279C198.504 180.582 198.329 180.896 198.032 180.983L195.874 181.602C195.821 181.618 195.77 181.626 195.72 181.626ZM200.035 180.384C199.791 180.384 199.566 180.221 199.497 179.969C199.413 179.666 199.585 179.352 199.884 179.267L200.424 179.114C200.722 179.029 201.033 179.203 201.116 179.505C201.201 179.808 201.027 180.122 200.729 180.207L200.19 180.36C200.139 180.376 200.088 180.384 200.035 180.384ZM202.735 179.608C202.491 179.608 202.268 179.446 202.197 179.194C202.114 178.891 202.285 178.578 202.585 178.492L207.982 176.94C208.28 176.851 208.591 177.03 208.676 177.332C208.762 177.634 208.587 177.948 208.29 178.033L202.893 179.586C202.838 179.601 202.786 179.608 202.735 179.608ZM210.292 177.436C210.048 177.436 209.822 177.272 209.753 177.02C209.67 176.718 209.842 176.405 210.141 176.32L212.299 175.698C212.595 175.613 212.909 175.788 212.992 176.091C213.077 176.394 212.903 176.707 212.605 176.791L210.447 177.413C210.396 177.429 210.343 177.436 210.292 177.436ZM214.612 176.194C214.367 176.194 214.143 176.031 214.074 175.779C213.99 175.477 214.161 175.163 214.461 175.078L215.001 174.924C215.297 174.838 215.609 175.014 215.693 175.316C215.777 175.619 215.604 175.931 215.306 176.017L214.767 176.171C214.713 176.187 214.661 176.194 214.612 176.194ZM217.31 175.417C217.066 175.417 216.841 175.254 216.772 175.004C216.687 174.701 216.86 174.389 217.158 174.302L222.555 172.75C222.854 172.661 223.165 172.839 223.25 173.141C223.335 173.444 223.162 173.759 222.862 173.843L217.466 175.395C217.412 175.413 217.361 175.417 217.31 175.417ZM224.867 173.248C224.623 173.248 224.398 173.084 224.329 172.833C224.244 172.531 224.417 172.217 224.715 172.131L226.874 171.51C227.176 171.423 227.482 171.6 227.568 171.901C227.652 172.203 227.479 172.518 227.181 172.603L225.024 173.224C224.97 173.24 224.92 173.248 224.867 173.248ZM229.186 172.006C228.942 172.006 228.717 171.842 228.648 171.591C228.562 171.289 228.736 170.975 229.033 170.889L229.573 170.734C229.871 170.649 230.181 170.823 230.267 171.125C230.352 171.428 230.178 171.741 229.88 171.828L229.341 171.982C229.289 171.998 229.237 172.006 229.186 172.006ZM231.884 171.23C231.641 171.23 231.417 171.067 231.347 170.816C231.263 170.513 231.435 170.199 231.733 170.114L237.132 168.563C237.435 168.477 237.741 168.653 237.826 168.955C237.909 169.257 237.736 169.572 237.438 169.656L232.039 171.207C231.987 171.224 231.936 171.23 231.884 171.23ZM239.442 169.057C239.198 169.057 238.972 168.894 238.903 168.642C238.819 168.34 238.992 168.027 239.291 167.941L241.45 167.32C241.746 167.233 242.059 167.409 242.142 167.713C242.227 168.016 242.053 168.329 241.755 168.413L239.597 169.035C239.545 169.052 239.493 169.057 239.442 169.057ZM243.76 167.817C243.516 167.817 243.292 167.654 243.222 167.402C243.139 167.1 243.31 166.786 243.61 166.701L244.15 166.546C244.444 166.46 244.758 166.635 244.842 166.939C244.926 167.242 244.753 167.555 244.454 167.64L243.915 167.794C243.862 167.81 243.811 167.817 243.76 167.817ZM246.46 167.041C246.216 167.041 245.991 166.878 245.922 166.628C245.838 166.325 246.01 166.013 246.309 165.926L251.705 164.374C252.005 164.289 252.314 164.463 252.399 164.765C252.485 165.068 252.312 165.383 252.013 165.467L246.616 167.019C246.563 167.036 246.51 167.041 246.46 167.041ZM254.017 164.871C253.773 164.871 253.548 164.707 253.478 164.456C253.394 164.154 253.567 163.84 253.865 163.753L256.024 163.133C256.326 163.046 256.632 163.223 256.718 163.523C256.803 163.826 256.629 164.141 256.332 164.226L254.173 164.847C254.118 164.862 254.068 164.871 254.017 164.871ZM258.335 163.628C258.091 163.628 257.866 163.464 257.797 163.212C257.712 162.91 257.885 162.597 258.183 162.511L258.723 162.357C259.019 162.271 259.331 162.445 259.416 162.749C259.5 163.052 259.327 163.365 259.028 163.451L258.489 163.604C258.438 163.621 258.387 163.628 258.335 163.628ZM261.034 162.851C260.79 162.851 260.565 162.688 260.496 162.437C260.412 162.134 260.584 161.819 260.882 161.735L266.281 160.183C266.578 160.097 266.889 160.273 266.974 160.575C267.057 160.878 266.886 161.19 266.587 161.276L261.188 162.828C261.137 162.844 261.085 162.851 261.034 162.851ZM268.592 160.678C268.349 160.678 268.123 160.516 268.054 160.264C267.969 159.961 268.143 159.649 268.441 159.563L270.6 158.943C270.894 158.856 271.209 159.033 271.293 159.335C271.377 159.639 271.203 159.952 270.905 160.036L268.746 160.657C268.694 160.673 268.643 160.678 268.592 160.678ZM272.91 159.44C272.666 159.44 272.443 159.276 272.373 159.025C272.288 158.723 272.46 158.41 272.758 158.323L273.298 158.168C273.597 158.082 273.907 158.258 273.993 158.56C274.077 158.862 273.903 159.175 273.605 159.262L273.066 159.417C273.012 159.433 272.96 159.44 272.91 159.44ZM275.608 158.662C275.364 158.662 275.14 158.5 275.071 158.248C274.987 157.946 275.158 157.631 275.458 157.547L280.854 155.996C281.151 155.909 281.465 156.085 281.548 156.387C281.633 156.69 281.459 157.004 281.161 157.089L275.764 158.64C275.711 158.657 275.659 158.662 275.608 158.662ZM283.166 156.49C282.922 156.49 282.697 156.328 282.627 156.077C282.544 155.774 282.716 155.461 283.013 155.374L285.173 154.754C285.475 154.666 285.781 154.844 285.867 155.144C285.951 155.447 285.778 155.761 285.481 155.847L283.321 156.467C283.268 156.484 283.217 156.49 283.166 156.49ZM287.486 155.248C287.242 155.248 287.016 155.086 286.947 154.834C286.862 154.531 287.036 154.219 287.335 154.133L287.875 153.979C288.172 153.892 288.482 154.068 288.567 154.371C288.652 154.673 288.478 154.987 288.18 155.073L287.641 155.226C287.588 155.243 287.536 155.248 287.486 155.248ZM290.183 154.474C289.939 154.474 289.714 154.312 289.645 154.061C289.559 153.758 289.733 153.443 290.03 153.358L290.228 153.301C290.531 153.217 290.837 153.39 290.923 153.692C291.008 153.994 290.835 154.309 290.537 154.395L290.339 154.451C290.286 154.466 290.235 154.474 290.183 154.474Z" fill="white"/>
<path d="M135.682 373.704C135.616 373.704 135.548 373.692 135.482 373.665C135.193 373.554 135.048 373.226 135.157 372.933L135.356 372.401C135.466 372.108 135.789 371.961 136.079 372.072C136.368 372.182 136.513 372.511 136.405 372.804L136.205 373.335C136.122 373.563 135.908 373.704 135.682 373.704ZM136.68 371.047C136.614 371.047 136.546 371.035 136.481 371.007C136.191 370.897 136.045 370.567 136.153 370.274L136.952 368.147C137.062 367.854 137.386 367.709 137.675 367.818C137.965 367.929 138.111 368.259 138.002 368.552L137.203 370.678C137.118 370.907 136.905 371.047 136.68 371.047ZM138.273 366.796C138.208 366.796 138.14 366.783 138.074 366.757C137.785 366.646 137.64 366.317 137.749 366.023L139.743 360.71C139.852 360.418 140.177 360.271 140.466 360.381C140.755 360.491 140.9 360.821 140.792 361.115L138.798 366.427C138.714 366.656 138.501 366.796 138.273 366.796ZM141.067 359.356C141.001 359.356 140.933 359.344 140.867 359.317C140.577 359.206 140.432 358.877 140.54 358.584L140.741 358.054C140.85 357.761 141.175 357.614 141.464 357.724C141.754 357.836 141.899 358.164 141.79 358.457L141.59 358.988C141.506 359.216 141.293 359.356 141.067 359.356ZM142.065 356.699C141.999 356.699 141.93 356.687 141.864 356.66C141.575 356.548 141.429 356.221 141.538 355.928L142.336 353.802C142.445 353.509 142.769 353.362 143.059 353.472C143.348 353.583 143.494 353.913 143.386 354.206L142.587 356.33C142.504 356.559 142.291 356.699 142.065 356.699ZM143.66 352.448C143.594 352.448 143.526 352.437 143.461 352.41C143.171 352.3 143.027 351.97 143.135 351.677L145.128 346.363C145.238 346.07 145.563 345.924 145.852 346.034C146.142 346.145 146.287 346.475 146.178 346.768L144.183 352.08C144.099 352.308 143.886 352.448 143.66 352.448ZM146.453 345.01C146.386 345.01 146.318 344.999 146.252 344.973C145.963 344.862 145.817 344.532 145.926 344.238L146.125 343.707C146.235 343.414 146.559 343.265 146.849 343.378C147.138 343.489 147.283 343.817 147.175 344.111L146.975 344.643C146.892 344.871 146.679 345.01 146.453 345.01ZM147.448 342.353C147.382 342.353 147.314 342.341 147.249 342.314C146.959 342.203 146.814 341.876 146.922 341.582L147.721 339.455C147.831 339.162 148.155 339.013 148.444 339.125C148.734 339.237 148.88 339.565 148.771 339.858L147.972 341.984C147.888 342.213 147.674 342.353 147.448 342.353ZM149.043 338.102C148.978 338.102 148.91 338.091 148.844 338.064C148.555 337.953 148.41 337.624 148.519 337.331L150.512 332.019C150.621 331.726 150.946 331.578 151.236 331.689C151.525 331.801 151.67 332.129 151.562 332.422L149.567 337.734C149.483 337.962 149.271 338.102 149.043 338.102ZM151.837 330.664C151.771 330.664 151.703 330.652 151.638 330.625C151.348 330.514 151.203 330.185 151.311 329.892L151.512 329.362C151.621 329.069 151.946 328.921 152.234 329.032C152.524 329.143 152.67 329.472 152.561 329.765L152.361 330.297C152.276 330.524 152.062 330.664 151.837 330.664ZM152.833 328.007C152.768 328.007 152.699 327.995 152.633 327.969C152.344 327.858 152.199 327.528 152.308 327.236L153.106 325.111C153.216 324.817 153.54 324.67 153.829 324.781C154.118 324.893 154.263 325.219 154.155 325.513L153.357 327.639C153.274 327.868 153.06 328.007 152.833 328.007ZM154.43 323.755C154.364 323.755 154.297 323.743 154.231 323.716C153.941 323.604 153.797 323.275 153.905 322.983L155.898 317.671C156.008 317.378 156.332 317.229 156.622 317.341C156.912 317.452 157.057 317.781 156.948 318.074L154.953 323.387C154.869 323.616 154.656 323.755 154.43 323.755ZM157.221 316.317C157.155 316.317 157.087 316.305 157.021 316.278C156.732 316.167 156.587 315.839 156.696 315.546L156.895 315.014C157.005 314.721 157.328 314.574 157.619 314.685C157.908 314.795 158.053 315.124 157.945 315.417L157.745 315.948C157.662 316.177 157.447 316.317 157.221 316.317ZM158.219 313.661C158.153 313.661 158.085 313.649 158.02 313.622C157.73 313.511 157.586 313.181 157.694 312.888L158.493 310.763C158.602 310.469 158.925 310.323 159.216 310.434C159.505 310.544 159.65 310.874 159.541 311.167L158.742 313.292C158.657 313.52 158.445 313.661 158.219 313.661ZM159.815 309.41C159.748 309.41 159.68 309.397 159.614 309.371C159.325 309.26 159.179 308.931 159.288 308.638L161.282 303.325C161.391 303.032 161.715 302.884 162.005 302.996C162.294 303.106 162.44 303.435 162.332 303.729L160.337 309.041C160.254 309.27 160.041 309.41 159.815 309.41ZM162.607 301.97C162.541 301.97 162.473 301.958 162.408 301.931C162.118 301.82 161.973 301.491 162.081 301.198L162.282 300.667C162.391 300.374 162.714 300.226 163.004 300.337C163.294 300.448 163.439 300.777 163.33 301.07L163.13 301.601C163.045 301.83 162.832 301.97 162.607 301.97ZM163.604 299.314C163.538 299.314 163.469 299.303 163.403 299.275C163.114 299.165 162.969 298.835 163.078 298.542L163.876 296.416C163.987 296.123 164.309 295.975 164.599 296.086C164.888 296.198 165.033 296.527 164.925 296.82L164.127 298.946C164.043 299.175 163.83 299.314 163.604 299.314ZM165.2 295.062C165.134 295.062 165.067 295.05 165.001 295.023C164.711 294.913 164.566 294.584 164.674 294.291L166.668 288.977C166.778 288.683 167.102 288.537 167.391 288.647C167.681 288.758 167.827 289.088 167.718 289.381L165.723 294.694C165.639 294.925 165.426 295.062 165.2 295.062ZM167.991 287.625C167.925 287.625 167.857 287.613 167.791 287.587C167.502 287.476 167.357 287.146 167.466 286.853L167.665 286.322C167.775 286.028 168.099 285.881 168.389 285.992C168.678 286.104 168.822 286.432 168.714 286.725L168.514 287.257C168.431 287.487 168.217 287.625 167.991 287.625ZM168.989 284.967C168.923 284.967 168.855 284.955 168.79 284.929C168.5 284.816 168.356 284.49 168.464 284.196L169.262 282.07C169.371 281.777 169.696 281.63 169.986 281.74C170.275 281.851 170.42 282.181 170.311 282.474L169.512 284.599C169.427 284.827 169.215 284.967 168.989 284.967ZM170.585 280.716C170.518 280.716 170.45 280.705 170.384 280.678C170.095 280.568 169.95 280.239 170.059 279.945L172.053 274.632C172.163 274.339 172.487 274.191 172.776 274.302C173.065 274.413 173.21 274.743 173.102 275.036L171.108 280.348C171.024 280.577 170.81 280.716 170.585 280.716ZM173.377 273.278C173.311 273.278 173.243 273.266 173.178 273.239C172.888 273.129 172.744 272.799 172.852 272.506L173.051 271.975C173.16 271.682 173.485 271.534 173.775 271.645C174.064 271.756 174.209 272.085 174.101 272.378L173.9 272.91C173.816 273.138 173.604 273.278 173.377 273.278ZM174.375 270.621C174.309 270.621 174.24 270.61 174.174 270.583C173.885 270.472 173.739 270.143 173.848 269.85L174.646 267.724C174.757 267.43 175.079 267.283 175.369 267.394C175.658 267.506 175.804 267.832 175.696 268.126L174.898 270.253C174.813 270.482 174.6 270.621 174.375 270.621ZM175.969 266.371C175.903 266.371 175.835 266.358 175.77 266.332C175.48 266.221 175.336 265.892 175.444 265.598L177.439 260.285C177.548 259.992 177.871 259.845 178.161 259.955C178.451 260.068 178.596 260.394 178.486 260.687L176.493 266.002C176.409 266.232 176.195 266.371 175.969 266.371ZM178.763 258.931C178.697 258.931 178.628 258.919 178.562 258.892C178.273 258.78 178.127 258.452 178.236 258.159L178.435 257.628C178.546 257.335 178.871 257.187 179.16 257.299C179.45 257.409 179.594 257.738 179.485 258.031L179.285 258.562C179.201 258.792 178.988 258.931 178.763 258.931ZM179.758 256.274C179.692 256.274 179.626 256.263 179.56 256.236C179.27 256.125 179.124 255.795 179.232 255.502L180.032 253.377C180.141 253.084 180.465 252.936 180.755 253.048C181.044 253.158 181.19 253.487 181.081 253.78L180.282 255.906C180.199 256.136 179.985 256.274 179.758 256.274ZM181.355 252.025C181.289 252.025 181.22 252.013 181.154 251.986C180.865 251.874 180.72 251.545 180.829 251.253L182.822 245.941C182.932 245.647 183.256 245.5 183.546 245.611C183.835 245.723 183.98 246.051 183.872 246.344L181.878 251.656C181.794 251.884 181.58 252.025 181.355 252.025ZM184.147 244.585C184.081 244.585 184.013 244.573 183.948 244.547C183.658 244.434 183.512 244.108 183.62 243.815L183.821 243.282C183.93 242.989 184.256 242.844 184.545 242.953C184.834 243.065 184.979 243.392 184.871 243.686L184.67 244.217C184.586 244.444 184.374 244.585 184.147 244.585ZM185.144 241.928C185.078 241.928 185.009 241.917 184.943 241.889C184.654 241.779 184.509 241.45 184.618 241.156L185.416 239.03C185.527 238.737 185.849 238.591 186.139 238.7C186.428 238.812 186.573 239.141 186.465 239.434L185.668 241.561C185.583 241.791 185.368 241.928 185.144 241.928ZM186.739 237.678C186.673 237.678 186.606 237.666 186.54 237.639C186.25 237.527 186.106 237.199 186.214 236.906L188.208 231.592C188.317 231.298 188.642 231.151 188.931 231.263C189.221 231.373 189.366 231.703 189.257 231.996L187.262 237.309C187.178 237.539 186.965 237.678 186.739 237.678ZM189.532 230.239C189.466 230.239 189.397 230.227 189.331 230.2C189.042 230.089 188.897 229.76 189.006 229.467L189.205 228.936C189.316 228.642 189.638 228.496 189.929 228.606C190.219 228.717 190.364 229.047 190.255 229.339L190.055 229.87C189.971 230.1 189.756 230.239 189.532 230.239ZM190.528 227.583C190.462 227.583 190.394 227.57 190.329 227.544C190.039 227.433 189.895 227.105 190.003 226.812L190.802 224.686C190.911 224.392 191.234 224.246 191.525 224.356C191.814 224.467 191.959 224.797 191.85 225.09L191.052 227.215C190.97 227.442 190.755 227.583 190.528 227.583ZM192.125 223.331C192.059 223.331 191.99 223.319 191.924 223.293C191.635 223.183 191.49 222.854 191.599 222.56L193.592 217.247C193.702 216.954 194.028 216.808 194.316 216.918C194.605 217.03 194.75 217.358 194.642 217.652L192.647 222.964C192.564 223.19 192.351 223.331 192.125 223.331ZM194.916 215.892C194.85 215.892 194.782 215.882 194.717 215.854C194.427 215.744 194.282 215.414 194.39 215.121L194.591 214.59C194.7 214.297 195.024 214.149 195.313 214.26C195.603 214.371 195.749 214.7 195.641 214.993L195.44 215.525C195.356 215.753 195.142 215.892 194.916 215.892ZM195.914 213.235C195.848 213.235 195.779 213.224 195.713 213.197C195.424 213.086 195.279 212.757 195.388 212.464L196.186 210.338C196.297 210.044 196.62 209.897 196.909 210.008C197.199 210.12 197.343 210.447 197.235 210.74L196.437 212.867C196.352 213.097 196.139 213.235 195.914 213.235ZM197.509 208.985C197.443 208.985 197.376 208.974 197.31 208.947C197.02 208.835 196.875 208.507 196.983 208.214L198.978 202.9C199.087 202.607 199.411 202.461 199.7 202.571C199.99 202.682 200.136 203.01 200.027 203.303L198.032 208.617C197.948 208.846 197.736 208.985 197.509 208.985ZM200.303 201.546C200.237 201.546 200.168 201.534 200.102 201.507C199.813 201.395 199.668 201.068 199.777 200.774L199.976 200.242C200.087 199.95 200.411 199.803 200.7 199.913C200.99 200.026 201.134 200.353 201.025 200.647L200.826 201.178C200.74 201.406 200.526 201.546 200.303 201.546ZM201.298 198.89C201.232 198.89 201.164 198.879 201.099 198.853C200.809 198.74 200.665 198.413 200.773 198.119L201.571 195.994C201.68 195.701 202.005 195.554 202.295 195.664C202.584 195.775 202.729 196.103 202.62 196.396L201.821 198.523C201.739 198.75 201.525 198.89 201.298 198.89ZM202.895 194.639C202.829 194.639 202.761 194.627 202.695 194.6C202.406 194.489 202.26 194.16 202.369 193.867L204.363 188.555C204.474 188.262 204.796 188.113 205.087 188.225C205.377 188.336 205.52 188.664 205.412 188.957L203.419 194.27C203.335 194.499 203.12 194.639 202.895 194.639ZM205.686 187.201C205.62 187.201 205.552 187.188 205.487 187.162C205.197 187.051 205.053 186.722 205.161 186.429L205.361 185.898C205.47 185.604 205.795 185.458 206.084 185.569C206.373 185.679 206.518 186.008 206.41 186.301L206.209 186.832C206.127 187.06 205.913 187.201 205.686 187.201ZM206.685 184.545C206.619 184.545 206.551 184.532 206.484 184.506C206.195 184.395 206.05 184.065 206.158 183.771L206.956 181.645C207.067 181.352 207.392 181.205 207.681 181.316C207.971 181.428 208.114 181.756 208.006 182.05L207.208 184.176C207.122 184.404 206.909 184.545 206.685 184.545ZM208.278 180.293C208.212 180.293 208.144 180.281 208.079 180.255C207.789 180.143 207.645 179.815 207.753 179.521L209.748 174.208C209.857 173.915 210.18 173.766 210.47 173.878C210.76 173.988 210.905 174.318 210.795 174.611L208.802 179.925C208.718 180.152 208.505 180.293 208.278 180.293ZM211.073 172.854C211.007 172.854 210.938 172.843 210.872 172.816C210.583 172.705 210.437 172.375 210.546 172.083L210.745 171.551C210.856 171.258 211.181 171.11 211.47 171.221C211.76 171.332 211.904 171.662 211.795 171.955L211.596 172.485C211.51 172.713 211.297 172.854 211.073 172.854ZM212.068 170.196C212.002 170.196 211.935 170.183 211.869 170.157C211.579 170.047 211.433 169.718 211.541 169.425L212.34 167.299C212.449 167.005 212.773 166.858 213.064 166.969C213.353 167.08 213.498 167.41 213.389 167.703L212.591 169.828C212.509 170.056 212.295 170.196 212.068 170.196ZM213.665 165.944C213.599 165.944 213.53 165.933 213.464 165.907C213.175 165.797 213.03 165.467 213.139 165.173L215.133 159.861C215.244 159.568 215.568 159.42 215.857 159.531C216.147 159.641 216.29 159.971 216.182 160.265L214.189 165.578C214.103 165.808 213.889 165.944 213.665 165.944ZM216.456 158.506C216.39 158.506 216.322 158.495 216.257 158.467C215.967 158.357 215.821 158.027 215.929 157.734L216.13 157.203C216.239 156.91 216.564 156.761 216.854 156.873C217.143 156.984 217.288 157.313 217.18 157.606L216.979 158.138C216.897 158.368 216.683 158.506 216.456 158.506ZM217.454 155.85C217.388 155.85 217.32 155.839 217.253 155.812C216.964 155.701 216.82 155.372 216.928 155.079L217.726 152.953C217.837 152.66 218.16 152.511 218.45 152.623C218.74 152.734 218.884 153.062 218.776 153.355L217.978 155.482C217.892 155.711 217.68 155.85 217.454 155.85ZM219.049 151.6C218.984 151.6 218.916 151.588 218.85 151.561C218.56 151.45 218.416 151.121 218.524 150.828L220.518 145.515C220.627 145.221 220.952 145.075 221.242 145.185C221.531 145.296 221.676 145.625 221.567 145.918L219.573 151.231C219.489 151.459 219.275 151.6 219.049 151.6ZM221.842 144.16C221.776 144.16 221.707 144.148 221.641 144.122C221.352 144.012 221.206 143.682 221.315 143.388L221.514 142.859C221.625 142.565 221.95 142.418 222.239 142.529C222.529 142.639 222.673 142.967 222.564 143.261L222.365 143.793C222.28 144.019 222.068 144.16 221.842 144.16ZM222.837 141.503C222.771 141.503 222.703 141.492 222.638 141.466C222.348 141.354 222.204 141.026 222.312 140.732L223.111 138.607C223.22 138.314 223.544 138.166 223.834 138.277C224.123 138.388 224.269 138.716 224.16 139.009L223.361 141.136C223.279 141.366 223.064 141.503 222.837 141.503ZM224.435 137.253C224.369 137.253 224.3 137.241 224.234 137.214C223.945 137.103 223.8 136.774 223.909 136.481L225.902 131.169C226.013 130.876 226.338 130.727 226.627 130.839C226.917 130.95 227.06 131.279 226.952 131.572L224.958 136.884C224.873 137.114 224.66 137.253 224.435 137.253Z" fill="white"/>
<path d="M101.302 355.349C101.083 355.349 100.874 355.218 100.784 355C100.664 354.71 100.8 354.377 101.086 354.257L102.001 353.868C102.288 353.746 102.616 353.882 102.734 354.172C102.854 354.462 102.719 354.795 102.433 354.915L101.518 355.305C101.448 355.335 101.374 355.349 101.302 355.349ZM104.288 354.081C104.069 354.081 103.861 353.95 103.77 353.732C103.65 353.442 103.785 353.109 104.071 352.989L109.247 350.792C109.535 350.671 109.862 350.809 109.98 351.097C110.1 351.387 109.965 351.721 109.679 351.841L104.503 354.036C104.434 354.068 104.359 354.081 104.288 354.081ZM111.534 351.007C111.315 351.007 111.107 350.876 111.016 350.659C110.896 350.369 111.031 350.035 111.317 349.915L111.835 349.696C112.123 349.572 112.451 349.711 112.569 350C112.689 350.29 112.553 350.623 112.267 350.743L111.749 350.964C111.679 350.994 111.607 351.007 111.534 351.007ZM114.122 349.908C113.902 349.908 113.694 349.778 113.604 349.56C113.485 349.27 113.62 348.937 113.905 348.816L115.973 347.937C116.261 347.814 116.589 347.951 116.708 348.241C116.827 348.531 116.693 348.865 116.408 348.985L114.339 349.864C114.269 349.894 114.193 349.908 114.122 349.908ZM118.263 348.151C118.043 348.151 117.834 348.02 117.744 347.803C117.623 347.513 117.759 347.179 118.045 347.059L123.221 344.862C123.508 344.742 123.836 344.878 123.954 345.167C124.075 345.457 123.94 345.79 123.654 345.91L118.477 348.106C118.407 348.137 118.334 348.151 118.263 348.151ZM125.506 345.077C125.287 345.077 125.079 344.946 124.989 344.728C124.87 344.438 125.005 344.105 125.292 343.985L125.809 343.764C126.094 343.644 126.425 343.781 126.543 344.07C126.662 344.36 126.526 344.693 126.24 344.813L125.722 345.033C125.652 345.063 125.579 345.077 125.506 345.077ZM128.095 343.977C127.876 343.977 127.668 343.847 127.577 343.629C127.458 343.339 127.593 343.006 127.878 342.885L129.948 342.006C130.235 341.886 130.564 342.021 130.683 342.312C130.802 342.6 130.667 342.934 130.382 343.055L128.312 343.934C128.241 343.964 128.168 343.977 128.095 343.977ZM132.235 342.222C132.015 342.222 131.808 342.091 131.718 341.873C131.597 341.583 131.732 341.25 132.018 341.13L137.193 338.932C137.482 338.811 137.809 338.948 137.927 339.237C138.048 339.527 137.912 339.86 137.626 339.981L132.451 342.175C132.381 342.207 132.308 342.222 132.235 342.222ZM139.48 339.147C139.26 339.147 139.052 339.016 138.962 338.798C138.843 338.508 138.978 338.175 139.265 338.055L139.783 337.834C140.069 337.713 140.397 337.85 140.515 338.14C140.634 338.43 140.501 338.764 140.215 338.884L139.696 339.102C139.627 339.131 139.553 339.147 139.48 339.147ZM142.068 338.048C141.849 338.048 141.641 337.917 141.551 337.699C141.43 337.411 141.566 337.077 141.851 336.956L143.921 336.078C144.21 335.956 144.535 336.094 144.656 336.384C144.775 336.673 144.64 337.006 144.354 337.127L142.286 338.006C142.214 338.035 142.141 338.048 142.068 338.048ZM146.209 336.292C145.99 336.292 145.781 336.161 145.69 335.943C145.571 335.653 145.706 335.32 145.992 335.198L151.167 333.003C151.455 332.879 151.783 333.017 151.901 333.307C152.021 333.596 151.887 333.93 151.6 334.051L146.424 336.245C146.354 336.277 146.282 336.292 146.209 336.292ZM153.454 333.217C153.235 333.217 153.027 333.085 152.936 332.868C152.816 332.579 152.952 332.246 153.238 332.124L153.757 331.904C154.042 331.783 154.371 331.922 154.491 332.211C154.61 332.499 154.475 332.833 154.188 332.954L153.67 333.173C153.599 333.203 153.527 333.217 153.454 333.217ZM156.043 332.117C155.824 332.117 155.614 331.986 155.524 331.768C155.405 331.479 155.541 331.145 155.827 331.024L157.896 330.146C158.185 330.026 158.511 330.162 158.63 330.451C158.751 330.74 158.615 331.073 158.329 331.195L156.26 332.073C156.188 332.104 156.114 332.117 156.043 332.117ZM160.181 330.361C159.962 330.361 159.754 330.231 159.664 330.013C159.542 329.723 159.678 329.39 159.964 329.268L165.142 327.073C165.428 326.951 165.755 327.088 165.874 327.378C165.995 327.668 165.86 328.002 165.573 328.122L160.397 330.317C160.328 330.347 160.256 330.361 160.181 330.361ZM167.428 327.286C167.208 327.286 167 327.154 166.91 326.936C166.791 326.647 166.925 326.315 167.212 326.193L167.729 325.973C168.014 325.853 168.345 325.989 168.463 326.28C168.583 326.569 168.447 326.902 168.161 327.023L167.642 327.242C167.573 327.272 167.5 327.286 167.428 327.286ZM170.014 326.189C169.795 326.189 169.588 326.058 169.497 325.84C169.378 325.55 169.512 325.217 169.798 325.096L171.868 324.217C172.156 324.096 172.484 324.234 172.603 324.522C172.722 324.812 172.587 325.146 172.301 325.267L170.231 326.145C170.161 326.173 170.087 326.189 170.014 326.189ZM174.156 324.431C173.937 324.431 173.727 324.3 173.637 324.082C173.517 323.793 173.653 323.459 173.939 323.339L179.115 321.143C179.405 321.02 179.73 321.159 179.848 321.449C179.969 321.737 179.834 322.072 179.548 322.192L174.372 324.387C174.301 324.418 174.227 324.431 174.156 324.431ZM181.401 321.356C181.182 321.356 180.973 321.225 180.883 321.008C180.764 320.719 180.899 320.387 181.185 320.264L181.703 320.044C181.989 319.923 182.317 320.06 182.436 320.35C182.555 320.639 182.421 320.972 182.133 321.093L181.617 321.313C181.547 321.34 181.474 321.356 181.401 321.356ZM183.988 320.259C183.769 320.259 183.562 320.128 183.472 319.91C183.35 319.62 183.486 319.287 183.772 319.167L185.842 318.287C186.131 318.164 186.456 318.304 186.575 318.593C186.696 318.881 186.56 319.215 186.274 319.336L184.204 320.216C184.133 320.246 184.06 320.259 183.988 320.259ZM188.128 318.5C187.909 318.5 187.701 318.368 187.61 318.15C187.49 317.862 187.625 317.528 187.911 317.407L193.087 315.212C193.374 315.092 193.703 315.229 193.821 315.518C193.941 315.807 193.806 316.14 193.519 316.261L188.344 318.456C188.275 318.487 188.203 318.5 188.128 318.5ZM195.374 315.427C195.155 315.427 194.946 315.294 194.855 315.077C194.735 314.788 194.871 314.456 195.157 314.334L195.675 314.115C195.962 313.993 196.291 314.13 196.409 314.419C196.53 314.708 196.394 315.042 196.108 315.162L195.59 315.382C195.52 315.413 195.448 315.427 195.374 315.427ZM197.962 314.328C197.742 314.328 197.534 314.197 197.444 313.979C197.324 313.689 197.458 313.356 197.746 313.236L199.816 312.356C200.102 312.233 200.431 312.372 200.549 312.662C200.67 312.951 200.535 313.284 200.249 313.405L198.178 314.284C198.109 314.315 198.034 314.328 197.962 314.328ZM202.103 312.572C201.883 312.572 201.675 312.44 201.585 312.222C201.463 311.933 201.599 311.6 201.885 311.479L207.061 309.284C207.349 309.163 207.676 309.3 207.797 309.589C207.916 309.878 207.78 310.211 207.495 310.332L202.32 312.527C202.247 312.555 202.176 312.572 202.103 312.572ZM209.349 309.496C209.128 309.496 208.921 309.364 208.831 309.146C208.711 308.857 208.844 308.524 209.132 308.403L209.649 308.184C209.937 308.061 210.265 308.198 210.383 308.488C210.503 308.778 210.369 309.111 210.082 309.231L209.564 309.451C209.493 309.481 209.42 309.496 209.349 309.496ZM211.935 308.398C211.716 308.398 211.508 308.267 211.417 308.049C211.296 307.759 211.432 307.426 211.718 307.306L213.788 306.426C214.077 306.303 214.404 306.442 214.523 306.732C214.643 307.021 214.507 307.354 214.221 307.475L212.151 308.353C212.08 308.384 212.009 308.398 211.935 308.398ZM216.076 306.642C215.857 306.642 215.647 306.51 215.557 306.292C215.437 306.003 215.571 305.67 215.859 305.549L221.035 303.354C221.323 303.231 221.65 303.369 221.768 303.658C221.888 303.947 221.753 304.281 221.467 304.402L216.291 306.598C216.222 306.628 216.148 306.642 216.076 306.642ZM223.321 303.565C223.101 303.565 222.893 303.434 222.803 303.216C222.682 302.927 222.818 302.594 223.104 302.473L223.62 302.254C223.91 302.131 224.236 302.269 224.355 302.558C224.475 302.847 224.34 303.181 224.053 303.302L223.537 303.522C223.467 303.552 223.395 303.565 223.321 303.565ZM225.908 302.468C225.689 302.468 225.481 302.336 225.391 302.12C225.27 301.83 225.404 301.496 225.691 301.375L227.761 300.497C228.048 300.373 228.377 300.511 228.495 300.801C228.616 301.09 228.48 301.423 228.194 301.544L226.123 302.423C226.054 302.454 225.981 302.468 225.908 302.468ZM230.048 300.711C229.829 300.711 229.622 300.579 229.531 300.361C229.41 300.072 229.545 299.739 229.831 299.618L235.008 297.423C235.296 297.3 235.623 297.437 235.742 297.727C235.862 298.016 235.728 298.349 235.44 298.47L230.264 300.668C230.193 300.697 230.122 300.711 230.048 300.711ZM237.295 297.635C237.076 297.635 236.867 297.504 236.776 297.286C236.656 296.997 236.791 296.664 237.078 296.543L237.596 296.323C237.881 296.199 238.21 296.339 238.329 296.629C238.45 296.917 238.315 297.251 238.029 297.372L237.51 297.592C237.44 297.622 237.367 297.635 237.295 297.635ZM239.883 296.538C239.663 296.538 239.455 296.405 239.365 296.188C239.245 295.899 239.38 295.566 239.666 295.444L241.737 294.566C242.025 294.443 242.351 294.58 242.469 294.869C242.59 295.159 242.456 295.492 242.169 295.613L240.099 296.492C240.029 296.523 239.956 296.538 239.883 296.538ZM244.024 294.781C243.804 294.781 243.595 294.649 243.505 294.431C243.385 294.143 243.52 293.809 243.807 293.688L248.981 291.493C249.268 291.37 249.596 291.508 249.714 291.798C249.836 292.086 249.7 292.42 249.414 292.541L244.24 294.737C244.168 294.765 244.097 294.781 244.024 294.781ZM251.267 291.704C251.048 291.704 250.84 291.573 250.75 291.355C250.63 291.065 250.764 290.732 251.05 290.612L251.569 290.392C251.854 290.269 252.184 290.408 252.303 290.698C252.423 290.987 252.288 291.32 252.001 291.441L251.483 291.661C251.413 291.691 251.341 291.704 251.267 291.704ZM253.856 290.609C253.637 290.609 253.429 290.478 253.338 290.26C253.217 289.97 253.353 289.637 253.639 289.516L255.709 288.638C255.997 288.515 256.325 288.654 256.443 288.943C256.564 289.231 256.428 289.565 256.142 289.686L254.072 290.564C254.002 290.593 253.927 290.609 253.856 290.609ZM257.996 288.85C257.776 288.85 257.568 288.719 257.478 288.502C257.358 288.213 257.493 287.88 257.78 287.758L262.955 285.563C263.242 285.44 263.571 285.578 263.689 285.868C263.809 286.157 263.674 286.49 263.387 286.611L258.212 288.807C258.142 288.836 258.069 288.85 257.996 288.85ZM265.241 285.777C265.021 285.777 264.813 285.646 264.724 285.428C264.603 285.139 264.738 284.806 265.024 284.685L265.541 284.465C265.829 284.341 266.157 284.48 266.275 284.77C266.397 285.059 266.261 285.392 265.975 285.513L265.457 285.732C265.386 285.76 265.314 285.777 265.241 285.777ZM267.828 284.678C267.609 284.678 267.401 284.546 267.311 284.328C267.19 284.039 267.325 283.706 267.612 283.585L269.682 282.707C269.969 282.584 270.298 282.722 270.416 283.012C270.536 283.301 270.401 283.634 270.115 283.755L268.044 284.634C267.974 284.665 267.902 284.678 267.828 284.678ZM271.969 282.92C271.75 282.92 271.542 282.788 271.451 282.571C271.33 282.281 271.466 281.948 271.752 281.828L276.928 279.633C277.217 279.509 277.543 279.647 277.661 279.936C277.782 280.226 277.648 280.559 277.361 280.679L272.185 282.876C272.115 282.905 272.043 282.92 271.969 282.92ZM279.214 279.846C278.995 279.846 278.787 279.715 278.696 279.497C278.576 279.208 278.711 278.876 278.998 278.754L279.515 278.534C279.801 278.411 280.13 278.549 280.248 278.839C280.369 279.128 280.234 279.461 279.948 279.583L279.43 279.801C279.362 279.831 279.289 279.846 279.214 279.846ZM281.802 278.747C281.582 278.747 281.375 278.615 281.285 278.397C281.164 278.108 281.3 277.775 281.586 277.654L283.656 276.777C283.945 276.653 284.27 276.791 284.389 277.08C284.51 277.37 284.374 277.703 284.088 277.823L282.018 278.703C281.948 278.733 281.876 278.747 281.802 278.747ZM285.944 276.99C285.724 276.99 285.516 276.859 285.426 276.641C285.306 276.351 285.439 276.018 285.726 275.898L290.903 273.703C291.189 273.579 291.518 273.717 291.638 274.006C291.758 274.296 291.622 274.629 291.337 274.749L286.161 276.946C286.087 276.975 286.015 276.99 285.944 276.99ZM293.189 273.915C292.969 273.915 292.761 273.784 292.671 273.566C292.549 273.277 292.685 272.943 292.971 272.823L293.49 272.603C293.775 272.48 294.104 272.619 294.223 272.908C294.343 273.197 294.21 273.531 293.922 273.652L293.405 273.87C293.333 273.9 293.262 273.915 293.189 273.915ZM295.777 272.819C295.558 272.819 295.349 272.686 295.258 272.469C295.139 272.18 295.275 271.847 295.56 271.724L297.63 270.847C297.915 270.725 298.243 270.862 298.363 271.151C298.483 271.441 298.348 271.774 298.063 271.897L295.993 272.774C295.922 272.802 295.849 272.819 295.777 272.819ZM299.916 271.059C299.696 271.059 299.488 270.929 299.398 270.711C299.277 270.421 299.413 270.088 299.699 269.968L304.875 267.772C305.163 267.651 305.49 267.787 305.61 268.076C305.729 268.366 305.594 268.699 305.308 268.819L300.133 271.017C300.063 271.046 299.99 271.059 299.916 271.059ZM307.162 267.985C306.943 267.985 306.733 267.855 306.643 267.637C306.523 267.349 306.658 267.014 306.945 266.894L307.463 266.674C307.746 266.551 308.078 266.689 308.196 266.979C308.318 267.268 308.182 267.601 307.896 267.722L307.377 267.942C307.308 267.972 307.234 267.985 307.162 267.985ZM309.748 266.887C309.529 266.887 309.321 266.755 309.231 266.538C309.111 266.249 309.246 265.916 309.531 265.793L311.602 264.916C311.886 264.795 312.216 264.931 312.336 265.22C312.455 265.51 312.32 265.843 312.034 265.965L309.964 266.843C309.895 266.873 309.823 266.887 309.748 266.887ZM313.89 265.128C313.671 265.128 313.463 264.997 313.372 264.779C313.251 264.489 313.387 264.156 313.673 264.036L318.848 261.839C319.137 261.717 319.463 261.854 319.583 262.144C319.703 262.434 319.568 262.767 319.282 262.887L314.107 265.085C314.035 265.115 313.961 265.128 313.89 265.128ZM321.134 262.054C320.915 262.054 320.708 261.924 320.617 261.707C320.497 261.418 320.632 261.083 320.918 260.963L321.436 260.743C321.722 260.62 322.052 260.758 322.17 261.047C322.29 261.336 322.155 261.67 321.868 261.791L321.35 262.011C321.281 262.041 321.208 262.054 321.134 262.054ZM323.723 260.956C323.503 260.956 323.295 260.825 323.205 260.607C323.085 260.317 323.221 259.984 323.506 259.863L325.576 258.984C325.863 258.863 326.19 259.001 326.309 259.289C326.429 259.579 326.294 259.913 326.009 260.034L323.939 260.912C323.868 260.942 323.796 260.956 323.723 260.956ZM327.862 259.2C327.643 259.2 327.435 259.069 327.345 258.852C327.226 258.562 327.36 258.228 327.646 258.107L332.823 255.91C333.109 255.789 333.437 255.927 333.556 256.216C333.676 256.506 333.542 256.839 333.257 256.96L328.08 259.156C328.008 259.185 327.936 259.2 327.862 259.2Z" fill="white"/>
<path d="M342.848 346.51C343.053 346.528 343.166 346.433 343.182 346.227C343.201 346.02 343.109 345.907 342.903 345.887C342.698 345.869 342.587 345.962 342.569 346.17C342.551 346.377 342.755 346.396 342.848 346.51ZM371 333.822C371.093 333.935 371.298 333.954 371.409 333.859C371.521 333.766 371.54 333.56 371.447 333.445C371.355 333.332 371.15 333.313 371.038 333.406C370.721 333.482 370.795 333.803 371 333.822ZM356.385 339.28C356.478 339.393 356.57 339.507 356.775 339.525C356.886 339.43 357 339.336 357.016 339.129C356.924 339.016 356.829 338.902 356.624 338.885C356.308 338.961 356.292 339.167 356.385 339.28ZM359.392 379.682C359.467 380.003 359.764 380.136 360.082 380.06C360.398 379.985 360.528 379.682 360.454 379.361C360.379 379.04 360.082 378.91 359.764 378.986C359.355 378.948 359.206 379.458 359.392 379.682ZM354.584 366.494C354.658 366.816 354.955 366.946 355.273 366.871C355.59 366.795 355.718 366.493 355.644 366.172C355.569 365.851 355.272 365.721 354.954 365.797C354.638 365.872 354.508 366.173 354.584 366.494ZM349.884 353.211C349.958 353.532 350.257 353.664 350.574 353.588C350.892 353.513 351.02 353.211 350.945 352.89C350.87 352.569 350.573 352.439 350.256 352.514C349.941 352.591 349.81 352.892 349.884 353.211ZM329.74 377.916C330.057 377.841 330.279 377.654 330.409 377.351C330.335 377.03 330.15 376.805 329.851 376.673C329.534 376.749 329.314 376.938 329.294 377.144C329.145 377.653 329.33 377.877 329.74 377.916ZM330.268 363.857C330.585 363.782 330.806 363.593 330.936 363.289C330.861 362.968 330.676 362.744 330.378 362.612C330.061 362.687 329.84 362.877 329.82 363.084C329.783 363.501 330.064 363.838 330.268 363.857ZM379.41 359.879C379.596 360.106 380.006 360.144 380.228 359.954C380.452 359.764 380.489 359.35 380.302 359.126C380.116 358.899 379.707 358.86 379.484 359.05C379.261 359.238 379.223 359.654 379.41 359.879ZM370.028 349.408C370.214 349.635 370.623 349.673 370.845 349.483C371.069 349.293 371.106 348.878 370.918 348.655C370.731 348.428 370.324 348.391 370.101 348.581C369.877 348.767 369.841 349.183 370.028 349.408ZM360.736 339.051C360.922 339.276 361.332 339.315 361.554 339.125C361.777 338.936 361.814 338.521 361.627 338.297C361.441 338.071 361.032 338.033 360.81 338.223C360.476 338.505 360.55 338.824 360.736 339.051ZM316.215 376.89C316.42 376.909 316.848 376.74 316.773 376.419C316.791 376.212 316.625 375.779 316.309 375.853C316.104 375.836 315.675 376.004 315.75 376.325C315.621 376.63 315.807 376.853 316.215 376.89ZM366.299 363.488C366.486 363.714 366.782 363.847 367.006 363.657C367.23 363.467 367.248 363.263 367.173 362.941C366.987 362.714 366.69 362.582 366.466 362.772C366.242 362.962 366.113 363.262 366.299 363.488ZM358.831 353.506C359.018 353.733 359.314 353.864 359.538 353.675C359.762 353.485 359.78 353.281 359.705 352.958C359.519 352.732 359.222 352.6 358.998 352.789C358.776 352.978 358.645 353.282 358.831 353.506ZM351.476 343.431C351.663 343.656 351.959 343.789 352.183 343.6C352.407 343.41 352.425 343.205 352.35 342.883C352.164 342.656 351.867 342.524 351.643 342.714C351.308 342.997 351.29 343.205 351.476 343.431ZM339.795 369.221C339.87 369.543 340.168 369.674 340.486 369.598C340.803 369.523 340.931 369.22 340.856 368.899C340.782 368.578 340.484 368.448 340.167 368.524C339.852 368.598 339.609 368.996 339.795 369.221ZM336.644 357.125C336.719 357.446 337.016 357.576 337.221 357.595C337.537 357.52 337.666 357.218 337.592 356.896C337.517 356.575 337.22 356.445 336.903 356.521C336.698 356.501 336.57 356.803 336.644 357.125ZM378.093 341.052C378.391 341.184 378.597 341.202 378.725 340.901C378.855 340.6 378.779 340.28 378.577 340.261C378.278 340.129 377.962 340.206 377.833 340.506C377.834 340.506 377.906 340.828 378.093 341.052ZM367.523 334.654C367.821 334.787 368.137 334.709 368.266 334.408C368.395 334.108 368.322 333.787 368.026 333.655C367.727 333.523 367.411 333.6 367.393 333.806C367.151 334.203 367.224 334.523 367.523 334.654ZM321.21 389.156C321.285 389.477 321.582 389.607 321.899 389.531C322.217 389.456 322.346 389.155 322.271 388.834C322.197 388.513 321.898 388.383 321.581 388.457C321.267 388.532 321.137 388.836 321.21 389.156ZM317.498 375.233C317.573 375.554 317.87 375.684 318.187 375.609C318.505 375.533 318.634 375.232 318.559 374.911C318.485 374.59 318.186 374.459 317.869 374.535C317.665 374.516 317.423 374.911 317.498 375.233ZM369.341 352.481C369.638 352.614 369.955 352.536 370.085 352.235C370.215 351.934 370.139 351.614 369.843 351.482C369.546 351.35 369.228 351.427 369.099 351.727C368.875 351.917 369.043 352.349 369.341 352.481ZM356.891 345.178C357.188 345.31 357.505 345.232 357.634 344.933C357.764 344.631 357.689 344.31 357.393 344.179C357.095 344.047 356.778 344.124 356.649 344.424C356.63 344.631 356.592 345.047 356.891 345.178ZM343.984 370.857C344.17 371.083 344.58 371.122 344.801 370.932C345.025 370.742 345.063 370.328 344.876 370.104C344.69 369.878 344.28 369.84 344.057 370.03C343.834 370.216 343.797 370.63 343.984 370.857ZM335.306 359.405C335.492 359.631 335.902 359.67 336.123 359.48C336.347 359.29 336.385 358.876 336.198 358.652C336.011 358.425 335.602 358.388 335.379 358.577C335.156 358.766 335.027 359.067 335.306 359.405ZM337.926 378.664C338.112 378.889 338.522 378.927 338.743 378.738C338.967 378.548 339.004 378.134 338.817 377.911C338.631 377.684 338.333 377.552 337.999 377.835C337.776 378.024 337.739 378.438 337.926 378.664ZM329.693 366.835C329.88 367.062 330.29 367.1 330.512 366.91C330.735 366.72 330.865 366.42 330.585 366.081C330.398 365.856 329.988 365.819 329.674 365.894C329.545 366.194 329.507 366.611 329.693 366.835ZM352.73 352.532C353.027 352.665 353.344 352.589 353.567 352.399C353.697 352.096 353.622 351.775 353.436 351.551C353.138 351.418 352.821 351.494 352.598 351.684C352.375 351.873 352.544 352.308 352.73 352.532Z" fill="#1D72D8"/>
<path d="M224.294 185.157C264.578 186.248 287.696 170.65 315.021 173.712C315.021 173.712 318.729 108.964 326.387 79.8711C316.412 69.1241 296.558 65.4646 282.224 62.4152C259.303 57.5427 237.438 47.8953 218.4 34.2601C201.059 60.7488 165.364 119.257 165.364 119.257C187.378 132.748 199.981 161.459 224.294 185.157Z" fill="#151A4F"/>
<path d="M100.187 21.8095L253.271 124.223L426.103 125.089L260.541 14.7771L100.187 21.8095Z" fill="#23286B"/>
<path d="M244.368 59.4917L266.819 74.5133L292.167 74.6407L267.885 58.4601L244.368 59.4917Z" fill="#428DFC"/>
<path d="M138.465 78.4668L120.77 75.771L118.009 93.7162L135.703 96.412L138.465 78.4668Z" fill="#D62929"/>
<path d="M57.9121 390.577L48.4397 372.579L66.2544 362.879L75.7269 380.875L57.9121 390.577Z" fill="#23286B"/>
<path d="M58.8254 359.411L61.4711 347.722L72.9915 350.337L70.3457 362.026L58.8254 359.411Z" fill="#E94A47"/>
<path d="M82.4701 277.076L64.5983 274.354L61.8097 292.476L79.6815 295.199L82.4701 277.076Z" fill="white"/>
<path d="M10.3525 356.275L3.60232 366.864L-6.81093 360.086L-0.0619011 349.497L10.3525 356.275Z" fill="#1D72D8"/>
<path d="M217.756 251.814L210.104 241.238L220.586 233.425L228.238 244.001L217.756 251.814Z" fill="#D6D7D8"/>
<path d="M218.091 243.017L210.439 232.441L220.92 224.628L228.573 235.204L218.091 243.017Z" fill="#D62929"/>
<path d="M360.691 187.461L342.822 184.738L340.033 202.861L357.902 205.583L360.691 187.461Z" fill="#23286B"/>
<path d="M367.696 363.095C365.075 359.853 362.699 356.527 360.561 353.112C364.003 350.432 367.352 348.01 370.567 345.977C373.087 349.204 375.466 352.53 377.701 355.96C374.605 358.453 371.254 360.823 367.696 363.095Z" fill="#23286B"/>
<path d="M372.373 423.203C365.118 420.78 358.153 417.983 351.476 414.816C354.15 407.289 356.938 400.247 359.898 393.942C366.983 396.44 373.95 399.234 380.794 402.328C378.471 409.228 375.63 416.19 372.373 423.203Z" fill="#23286B"/>
<path d="M356.875 135.066L350.127 145.656L339.711 138.877L346.462 128.287L356.875 135.066Z" fill="#1D72D8"/>
<path d="M109.539 419.715C109.277 419.675 109.064 419.463 109.033 419.182C108.996 418.847 109.234 418.543 109.565 418.505C133.324 415.674 154.222 396.41 159.252 372.698C159.322 372.367 159.648 372.156 159.968 372.228C160.293 372.296 160.499 372.619 160.429 372.949C155.293 397.16 133.957 416.828 109.698 419.718C109.644 419.723 109.59 419.723 109.539 419.715Z" fill="#151A4F"/>
<path d="M321.819 237.542C321.606 237.509 321.416 237.36 321.343 237.138C321.236 236.82 321.403 236.472 321.718 236.363C333.693 232.172 340.265 218.954 343.668 208.601C347.178 197.931 347.989 189.577 346.222 182.302C344.357 174.633 338.076 166.021 328.71 165.236C328.379 165.202 328.134 164.912 328.163 164.575C328.192 164.241 328.485 163.991 328.817 164.019C337.359 164.746 344.995 172.133 347.392 182.004C349.215 189.509 348.395 198.082 344.812 208.98C339.806 224.201 331.955 234.067 322.107 237.515C322.009 237.55 321.912 237.556 321.819 237.542Z" fill="#151A4F"/>
<path d="M390.263 168.852C387.354 168.584 384.52 168.151 381.76 167.557C382.096 164.526 382.517 161.666 383.067 159.065C385.921 159.376 388.754 159.807 391.569 160.361C391.309 163.127 390.861 165.962 390.263 168.852Z" fill="#E94A47"/>
<path d="M98.1383 -19.0179C98.3432 -19.0001 98.4557 -19.0934 98.4724 -19.3011C98.4902 -19.5089 98.3989 -19.6222 98.1929 -19.6411C97.988 -19.6588 97.8756 -19.5655 97.8589 -19.3578C97.8411 -19.1501 98.0437 -19.1323 98.1383 -19.0179ZM126.291 -31.7061C126.384 -31.5928 126.588 -31.5728 126.701 -31.6672C126.812 -31.7616 126.831 -31.9683 126.737 -32.0827C126.644 -32.196 126.44 -32.216 126.328 -32.1216C126.01 -32.046 126.086 -31.725 126.291 -31.7061ZM111.674 -26.2473C111.768 -26.134 111.86 -26.0207 112.065 -26.0041C112.176 -26.0985 112.289 -26.1929 112.305 -26.3995C112.212 -26.5128 112.121 -26.6261 111.916 -26.6428C111.598 -26.5673 111.581 -26.3606 111.674 -26.2473ZM114.683 14.1557C114.757 14.4767 115.054 14.6067 115.372 14.5312C115.688 14.4556 115.818 14.1546 115.744 13.8336C115.669 13.5125 115.372 13.3825 115.054 13.4581C114.645 13.4203 114.497 13.9302 114.683 14.1557ZM109.874 0.966488C109.948 1.28751 110.246 1.41861 110.563 1.34306C110.88 1.26753 111.008 0.96537 110.934 0.644329C110.859 0.323292 110.562 0.193314 110.244 0.268864C109.927 0.344395 109.798 0.645451 109.874 0.966488ZM105.174 -12.3161C105.249 -11.995 105.546 -11.8651 105.863 -11.9406C106.181 -12.0161 106.31 -12.3172 106.235 -12.6382C106.16 -12.9593 105.863 -13.0892 105.546 -13.0137C105.23 -12.937 105.1 -12.6349 105.174 -12.3161ZM85.0301 12.3894C85.3475 12.3139 85.569 12.1251 85.6993 11.8229C85.6247 11.5019 85.4388 11.2764 85.1404 11.1453C84.823 11.2208 84.6026 11.4086 84.5836 11.6163C84.4345 12.1251 84.6204 12.3506 85.0301 12.3894ZM85.5579 -1.6707C85.8752 -1.74623 86.0957 -1.93507 86.2259 -2.23723C86.1513 -2.55827 85.9665 -2.78378 85.6681 -2.91486C85.3508 -2.83932 85.1292 -2.65158 85.1103 -2.44386C85.0736 -2.0284 85.3541 -1.68848 85.5579 -1.6707ZM134.701 -5.64868C134.887 -5.42207 135.296 -5.3854 135.519 -5.57425C135.743 -5.76311 135.778 -6.17744 135.591 -6.40185C135.405 -6.62846 134.997 -6.66623 134.775 -6.47738C134.551 -6.29076 134.514 -5.87419 134.701 -5.64868ZM125.317 -16.1196C125.503 -15.893 125.914 -15.8564 126.135 -16.0452C126.359 -16.2341 126.395 -16.6484 126.209 -16.8728C126.023 -17.0994 125.613 -17.1361 125.391 -16.9472C125.168 -16.7606 125.131 -16.3463 125.317 -16.1196ZM116.026 -26.4773C116.212 -26.2507 116.622 -26.214 116.844 -26.4029C117.067 -26.5917 117.103 -27.006 116.917 -27.2305C116.731 -27.4571 116.321 -27.4937 116.1 -27.3049C115.766 -27.0227 115.842 -26.7039 116.026 -26.4773ZM71.5055 11.363C71.7104 11.3808 72.1368 11.2119 72.0633 10.8909C72.0812 10.6832 71.9153 10.2522 71.5979 10.3266C71.3931 10.3088 70.9666 10.4765 71.0401 10.7976C70.9109 11.1008 71.0969 11.3263 71.5055 11.363ZM121.589 -2.03951C121.775 -1.8129 122.072 -1.6818 122.296 -1.87065C122.52 -2.05951 122.537 -2.26501 122.463 -2.58715C122.277 -2.81376 121.98 -2.94486 121.756 -2.75601C121.532 -2.56715 121.403 -2.26612 121.589 -2.03951ZM114.121 -12.0217C114.307 -11.7951 114.606 -11.664 114.829 -11.8528C115.053 -12.0417 115.07 -12.2483 114.997 -12.5704C114.811 -12.7971 114.512 -12.9281 114.288 -12.7393C114.066 -12.5493 113.935 -12.2472 114.121 -12.0217ZM106.766 -22.0972C106.952 -21.8706 107.25 -21.7395 107.474 -21.9283C107.698 -22.1172 107.715 -22.3238 107.641 -22.6459C107.455 -22.8726 107.157 -23.0036 106.933 -22.8148C106.598 -22.5315 106.58 -22.3227 106.766 -22.0972ZM95.0865 3.69363C95.16 4.01467 95.4584 4.14577 95.7757 4.07022C96.0919 3.99469 96.221 3.69253 96.1464 3.37149C96.0729 3.05045 95.7746 2.92048 95.4572 2.99603C95.141 3.07045 94.9005 3.46702 95.0865 3.69363ZM91.9333 -8.4025C92.0079 -8.08146 92.3052 -7.95038 92.51 -7.9326C92.8274 -8.00815 92.9565 -8.30919 92.8819 -8.63023C92.8073 -8.95127 92.51 -9.08235 92.1927 -9.00682C91.9878 -9.0257 91.8587 -8.72466 91.9333 -8.4025ZM133.383 -24.4755C133.681 -24.3433 133.886 -24.3256 134.014 -24.6255C134.145 -24.9265 134.069 -25.2487 133.866 -25.2665C133.568 -25.3986 133.251 -25.3209 133.122 -25.021C133.123 -25.021 133.197 -24.6999 133.383 -24.4755ZM122.814 -30.8741C123.111 -30.7419 123.428 -30.8185 123.558 -31.1185C123.687 -31.4184 123.611 -31.7416 123.315 -31.8727C123.018 -32.0049 122.7 -31.9283 122.684 -31.7217C122.441 -31.3251 122.515 -31.0051 122.814 -30.8741ZM76.5003 23.628C76.5749 23.949 76.8722 24.0801 77.1895 24.0046C77.5068 23.929 77.6348 23.6269 77.5602 23.3058C77.4856 22.9848 77.1884 22.8548 76.8711 22.9304C76.556 23.0048 76.4268 23.3081 76.5003 23.628ZM72.7882 9.7056C72.8616 10.0266 73.16 10.1566 73.4774 10.0811C73.7947 10.0055 73.9227 9.7045 73.8481 9.38346C73.7735 9.06242 73.4751 8.93135 73.1589 9.00688C72.9552 8.988 72.7136 9.38346 72.7882 9.7056ZM124.631 -13.047C124.928 -12.9148 125.245 -12.9915 125.375 -13.2914C125.505 -13.5924 125.429 -13.9146 125.133 -14.0457C124.836 -14.1779 124.518 -14.1001 124.389 -13.8002C124.165 -13.6113 124.334 -13.1792 124.631 -13.047ZM112.181 -20.3498C112.478 -20.2176 112.795 -20.2954 112.924 -20.5953C113.054 -20.8952 112.979 -21.2174 112.683 -21.3485C112.386 -21.4806 112.068 -21.4029 111.939 -21.103C111.92 -20.8941 111.882 -20.4809 112.181 -20.3498ZM99.274 5.32994C99.46 5.55655 99.8697 5.59321 100.091 5.40437C100.315 5.21552 100.352 4.80117 100.166 4.57678C99.9799 4.35015 99.5691 4.31239 99.3475 4.50123C99.1237 4.68676 99.0881 5.10332 99.274 5.32994ZM90.5961 -6.12192C90.782 -5.89529 91.1918 -5.85864 91.4133 -6.04749C91.6371 -6.23633 91.6739 -6.65178 91.4879 -6.87619C91.302 -7.1028 90.8911 -7.13946 90.6696 -6.95062C90.4458 -6.76288 90.3166 -6.45962 90.5961 -6.12192ZM93.2159 13.1359C93.4019 13.3626 93.8116 13.3992 94.0332 13.2104C94.257 13.0215 94.2926 12.6072 94.1067 12.3828C93.9207 12.1562 93.6234 12.024 93.2894 12.3072C93.0656 12.495 93.03 12.9104 93.2159 13.1359ZM84.9845 1.30751C85.1704 1.53412 85.5802 1.57079 85.8017 1.38194C86.0255 1.1931 86.1547 0.892059 85.8752 0.554359C85.6893 0.327732 85.2795 0.291084 84.9644 0.366615C84.8353 0.666553 84.7985 1.082 84.9845 1.30751ZM108.02 -12.9959C108.317 -12.8637 108.634 -12.9404 108.857 -13.1292C108.987 -13.4303 108.912 -13.7513 108.726 -13.9768C108.428 -14.109 108.111 -14.0323 107.888 -13.8435C107.666 -13.6558 107.834 -13.2214 108.02 -12.9959Z" fill="#1D72D8"/>
<path d="M269.166 67.1115C286.178 68.3476 303.051 71.4823 319.367 76.441C335.082 81.2166 350.381 87.7387 363.879 97.0826C373.5 103.743 382.176 111.842 389.037 121.314C393.804 127.897 397.665 135.092 401.128 142.442C403.925 148.376 406.485 154.45 409.947 160.023C415.896 169.596 424.427 177.469 434.177 183.138C440.836 187.009 448.086 189.885 455.619 191.514C459.958 192.453 464.472 192.975 468.83 192.125C470.474 191.804 472.109 191.275 473.459 190.285C474.518 189.51 475.375 188.46 475.898 187.258C476.422 186.056 476.604 184.704 476.393 183.412C476.041 181.268 474.56 179.342 472.575 178.45" stroke="#428DFC" stroke-width="0.96725"/>
</g>
</g>
</g>
<defs>
<linearGradient id="paint0_linear_110_11" x1="57.4914" y1="350.032" x2="331.312" y2="350.032" gradientUnits="userSpaceOnUse">
<stop stop-color="#428DFC"/>
<stop offset="0.5" stop-color="#2F80EA"/>
<stop offset="1" stop-color="#1D72D8"/>
</linearGradient>
<clipPath id="clip0_110_11">
<rect width="518" height="526" fill="white" transform="translate(-29 -56)"/>
</clipPath>
</defs>
</svg>
